ISO-10303-21;
HEADER;
FILE_DESCRIPTION(('CATIA V5 STEP Exchange'),'2;1');

FILE_NAME('D:\\3Djiexi\\.runtime\\catia-worker\\852390a4-7d18-4ba3-98a6-84060181a990\\staging\\exported.stp','2026-08-10T06:41:51+00:00',('none'),('none'),'CATIA Version 5 Release 21 GA (IN-10)','CATIA V5 STEP AP203','none');

FILE_SCHEMA(('CONFIG_CONTROL_DESIGN'));

ENDSEC;
/* file written by CATIA V5R21 */
DATA;
#5=PRODUCT('5369C11337G70','','',(#2)) ;
#1=APPLICATION_CONTEXT('configuration controlled 3D design of mechanical parts and assemblies') ;
#14=PRODUCT_DEFINITION('',' ',#6,#3) ;
#16=SECURITY_CLASSIFICATION(' ',' ',#15) ;
#15=SECURITY_CLASSIFICATION_LEVEL('unclassified') ;
#47=CARTESIAN_POINT(' ',(0.,0.,0.)) ;
#52=CARTESIAN_POINT('Axis2P3D Location',(32929.7158411,-1537.36346798,-610.114739934)) ;
#57=CARTESIAN_POINT('Axis2P3D Location',(32936.2155913,-1537.36346798,-610.171724807)) ;
#61=CARTESIAN_POINT('Vertex',(32936.2155913,-1532.36346798,-610.171724807)) ;
#63=CARTESIAN_POINT('Vertex',(32936.2594258,-1537.36346798,-605.171916957)) ;
#66=CARTESIAN_POINT('Line Origine',(32929.7596756,-1537.36346798,-605.114932085)) ;
#70=CARTESIAN_POINT('Vertex',(32920.2600407,-1537.36346798,-605.031646501)) ;
#73=CARTESIAN_POINT('Axis2P3D Location',(32920.2162062,-1537.36346798,-610.031454351)) ;
#77=CARTESIAN_POINT('Vertex',(32920.2162062,-1532.36346798,-610.031454351)) ;
#80=CARTESIAN_POINT('Line Origine',(32929.7158411,-1532.36346798,-610.114739934)) ;
#93=CARTESIAN_POINT('Control Point',(32939.1997384,-1538.24525233,-611.993076687)) ;
#94=CARTESIAN_POINT('Control Point',(32939.1923222,-1538.66078341,-612.838974623)) ;
#95=CARTESIAN_POINT('Control Point',(32938.8158682,-1539.07670218,-613.682426404)) ;
#96=CARTESIAN_POINT('Control Point',(32938.0649136,-1539.40521978,-614.344658324)) ;
#97=CARTESIAN_POINT('Control Point',(32937.1186888,-1539.56792884,-614.667615344)) ;
#98=CARTESIAN_POINT('Control Point',(32936.1762472,-1539.56792884,-614.659352732)) ;
#99=CARTESIAN_POINT('Axis1P Location',(32936.2155913,-1537.36346798,-610.171724807)) ;
#103=CARTESIAN_POINT('Axis2P3D Location',(32939.215476,-1537.36346798,-610.198025518)) ;
#107=CARTESIAN_POINT('Vertex',(32939.215476,-1535.36346798,-610.198025518)) ;
#109=CARTESIAN_POINT('Vertex',(32939.2330098,-1537.36346797,-608.198102378)) ;
#112=CARTESIAN_POINT('Axis2P3D Location',(32936.2331251,-1537.36346798,-608.171801667)) ;
#117=CARTESIAN_POINT('Axis2P3D Location',(32936.2155913,-1535.36346798,-610.171724807)) ;
#129=CARTESIAN_POINT('Axis2P3D Location',(32936.0996981,-1535.36346798,-623.390615392)) ;
#135=CARTESIAN_POINT('Control Point',(32935.9399704,-1532.36346798,-641.609313826)) ;
#136=CARTESIAN_POINT('Control Point',(32936.8823617,-1532.36346798,-641.617575997)) ;
#137=CARTESIAN_POINT('Control Point',(32937.8257114,-1532.73278258,-641.625846535)) ;
#138=CARTESIAN_POINT('Control Point',(32938.570622,-1533.47699864,-641.632377271)) ;
#139=CARTESIAN_POINT('Control Point',(32938.9398551,-1534.42104046,-641.635614334)) ;
#140=CARTESIAN_POINT('Control Point',(32938.9398551,-1535.36346798,-641.635614241)) ;
#141=CARTESIAN_POINT('Vertex',(32938.9398551,-1535.36346798,-641.635614241)) ;
#143=CARTESIAN_POINT('Vertex',(32935.9399704,-1532.36346798,-641.609313826)) ;
#146=CARTESIAN_POINT('Line Origine',(32939.0995828,-1535.36346798,-623.416916102)) ;
#151=CARTESIAN_POINT('Line Origine',(32936.0996981,-1532.36346798,-623.390615392)) ;
#163=CARTESIAN_POINT('Axis2P3D Location',(32929.8210439,-1537.36346798,-598.115201095)) ;
#168=CARTESIAN_POINT('Axis2P3D Location',(32936.3207941,-1537.36346798,-598.172185967)) ;
#172=CARTESIAN_POINT('Vertex',(32936.2769596,-1537.36346798,-603.171993817)) ;
#174=CARTESIAN_POINT('Vertex',(32936.3207941,-1532.36346798,-598.172185968)) ;
#177=CARTESIAN_POINT('Line Origine',(32929.8210439,-1532.36346798,-598.115201095)) ;
#181=CARTESIAN_POINT('Vertex',(32920.321409,-1532.36346798,-598.031915512)) ;
#184=CARTESIAN_POINT('Axis2P3D Location',(32920.321409,-1537.36346798,-598.031915512)) ;
#188=CARTESIAN_POINT('Vertex',(32920.2775745,-1537.36346798,-603.031723361)) ;
#191=CARTESIAN_POINT('Line Origine',(32929.7772094,-1537.36346798,-603.115008945)) ;
#204=CARTESIAN_POINT('Control Point',(32939.3284094,-1539.15858814,-597.316736224)) ;
#205=CARTESIAN_POINT('Control Point',(32939.3320523,-1540.00451859,-596.901221112)) ;
#206=CARTESIAN_POINT('Control Point',(32938.9666678,-1540.85123829,-596.482082939)) ;
#207=CARTESIAN_POINT('Control Point',(32938.2244564,-1541.52002831,-596.147045569)) ;
#208=CARTESIAN_POINT('Control Point',(32937.282562,-1541.85126838,-595.976072444)) ;
#209=CARTESIAN_POINT('Control Point',(32936.3401204,-1541.85126838,-595.967809832)) ;
#210=CARTESIAN_POINT('Axis1P Location',(32936.3207941,-1537.36346798,-598.172185967)) ;
#214=CARTESIAN_POINT('Axis2P3D Location',(32939.3206789,-1537.36346798,-598.198486678)) ;
#218=CARTESIAN_POINT('Vertex',(32939.303145,-1537.36346914,-600.198409818)) ;
#220=CARTESIAN_POINT('Vertex',(32939.3206789,-1535.36346798,-598.198486678)) ;
#223=CARTESIAN_POINT('Axis2P3D Location',(32936.3207941,-1535.36346798,-598.172185967)) ;
#228=CARTESIAN_POINT('Axis2P3D Location',(32936.3032603,-1537.36346798,-600.172109107)) ;
#240=CARTESIAN_POINT('Axis2P3D Location',(32936.5312798,-1535.36346798,-574.163988499)) ;
#245=CARTESIAN_POINT('Axis2P3D Location',(32936.7855999,-1535.36346798,-545.155983181)) ;
#249=CARTESIAN_POINT('Vertex',(32936.7855999,-1532.36346798,-545.155983181)) ;
#251=CARTESIAN_POINT('Vertex',(32939.7854846,-1535.36346798,-545.182283892)) ;
#254=CARTESIAN_POINT('Line Origine',(32936.5312798,-1532.36346798,-574.163988499)) ;
#259=CARTESIAN_POINT('Line Origine',(32939.5311645,-1535.36346798,-574.19028921)) ;
#271=CARTESIAN_POINT('Axis2P3D Location',(32936.1269539,-1538.85879792,-550.15040083)) ;
#277=CARTESIAN_POINT('Control Point',(32936.1707884,-1530.36325445,-545.150592981)) ;
#278=CARTESIAN_POINT('Control Point',(32934.6829947,-1530.36325445,-545.137549135)) ;
#279=CARTESIAN_POINT('Control Point',(32933.1828387,-1530.3632544,-545.718678801)) ;
#280=CARTESIAN_POINT('Control Point',(32932.0656922,-1530.36325462,-546.876282071)) ;
#281=CARTESIAN_POINT('Control Point',(32931.5010285,-1530.36325476,-548.252819484)) ;
#282=CARTESIAN_POINT('Vertex',(32936.1707884,-1530.36325445,-545.150592981)) ;
#284=CARTESIAN_POINT('Vertex',(32931.5010285,-1530.36325473,-548.252819484)) ;
#287=CARTESIAN_POINT('Line Origine',(32931.5010285,-1538.85879792,-548.252819484)) ;
#291=CARTESIAN_POINT('Vertex',(32931.5010285,-1532.36346798,-548.252819484)) ;
#294=CARTESIAN_POINT('Axis2P3D Location',(32936.1269539,-1532.36346798,-550.15040083)) ;
#298=CARTESIAN_POINT('Vertex',(32936.1707884,-1532.36346798,-545.150592981)) ;
#301=CARTESIAN_POINT('Line Origine',(32936.1707884,-1538.85879792,-545.150592981)) ;
#313=CARTESIAN_POINT('Axis2P3D Location',(32942.0331557,9.60078242638E-012,-288.810724502)) ;
#318=CARTESIAN_POINT('Line Origine',(32939.0948561,-1553.27288774,-623.956048647)) ;
#322=CARTESIAN_POINT('Vertex',(32938.9567024,-1540.96096017,-639.713994917)) ;
#324=CARTESIAN_POINT('Vertex',(32939.2330098,-1565.58481531,-608.198102378)) ;
#327=CARTESIAN_POINT('Line Origine',(32939.2330098,-1551.47414165,-608.198102378)) ;
#332=CARTESIAN_POINT('Line Origine',(32938.9398551,-1536.19218729,-641.635614159)) ;
#336=CARTESIAN_POINT('Vertex',(32938.9398551,-1537.02090659,-641.635614078)) ;
#339=CARTESIAN_POINT('Axis2P3D Location',(32938.9836896,-1537.0209061,-636.635806228)) ;
#353=CARTESIAN_POINT('Axis2P3D Location',(32930.4840163,-1537.0209061,-636.561287548)) ;
#358=CARTESIAN_POINT('Line Origine',(32930.4401818,-1537.02090659,-641.561095398)) ;
#362=CARTESIAN_POINT('Vertex',(32940.9397783,-1537.02090659,-641.653147885)) ;
#365=CARTESIAN_POINT('Axis2P3D Location',(32940.9836128,-1537.0209061,-636.653340035)) ;
#369=CARTESIAN_POINT('Vertex',(32940.9566256,-1540.96096017,-639.731528724)) ;
#372=CARTESIAN_POINT('Line Origine',(32930.4570291,-1540.96096017,-639.639476237)) ;
#384=CARTESIAN_POINT('Axis2P3D Location',(32920.8912578,-1532.36346798,-533.034413464)) ;
#389=CARTESIAN_POINT('Line Origine',(32932.9400857,-1532.36346798,-641.583013116)) ;
#393=CARTESIAN_POINT('Vertex',(32929.940201,-1532.36346798,-641.556712405)) ;
#396=CARTESIAN_POINT('Line Origine',(32920.1222302,-1532.36346798,-620.750441011)) ;
#400=CARTESIAN_POINT('Vertex',(32920.0282543,-1532.36346798,-631.469427671)) ;
#404=CARTESIAN_POINT('Control Point',(32929.940201,-1532.36346798,-641.556712405)) ;
#405=CARTESIAN_POINT('Control Point',(32928.9049294,-1532.36346798,-641.54763593)) ;
#406=CARTESIAN_POINT('Control Point',(32927.8708329,-1532.36346798,-641.404580905)) ;
#407=CARTESIAN_POINT('Control Point',(32926.8609702,-1532.36346798,-641.127702924)) ;
#408=CARTESIAN_POINT('Control Point',(32924.9358613,-1532.36346798,-640.318924143)) ;
#409=CARTESIAN_POINT('Control Point',(32923.2800885,-1532.36346798,-639.046680175)) ;
#410=CARTESIAN_POINT('Control Point',(32922.5394387,-1532.36346798,-638.306157136)) ;
#411=CARTESIAN_POINT('Control Point',(32921.2451534,-1532.36346798,-636.622292859)) ;
#412=CARTESIAN_POINT('Control Point',(32920.4302719,-1532.36346798,-634.659725089)) ;
#413=CARTESIAN_POINT('Control Point',(32920.1527799,-1532.36346798,-633.612038625)) ;
#414=CARTESIAN_POINT('Control Point',(32920.0188674,-1532.36346798,-632.540105231)) ;
#415=CARTESIAN_POINT('Control Point',(32920.0282543,-1532.36346798,-631.469427671)) ;
#425=CARTESIAN_POINT('Axis2P3D Location',(32940.9397783,-1539.45956953,-641.653147644)) ;
#430=CARTESIAN_POINT('Line Origine',(32929.940201,-1531.36336595,-641.556712504)) ;
#434=CARTESIAN_POINT('Vertex',(32929.940201,-1530.36326392,-641.556712602)) ;
#437=CARTESIAN_POINT('Line Origine',(32935.4399896,-1530.36326392,-641.604930571)) ;
#441=CARTESIAN_POINT('Vertex',(32940.9397782,-1530.36326392,-641.653148541)) ;
#444=CARTESIAN_POINT('Line Origine',(32940.9397783,-1533.69208525,-641.653148213)) ;
#459=CARTESIAN_POINT('Axis2P3D Location',(32930.02787,-1536.36336268,-631.557096311)) ;
#464=CARTESIAN_POINT('Line Origine',(32920.0282543,-1536.36336268,-631.469427276)) ;
#468=CARTESIAN_POINT('Vertex',(32920.0282543,-1530.36326294,-631.469427868)) ;
#471=CARTESIAN_POINT('Axis2P3D Location',(32930.02787,-1530.36326294,-631.557096903)) ;
#483=CARTESIAN_POINT('Line Origine',(32920.4138666,-1532.36346798,-587.486112681)) ;
#487=CARTESIAN_POINT('Vertex',(32920.5063242,-1532.36346798,-576.940309851)) ;
#490=CARTESIAN_POINT('Line Origine',(32936.4781942,-1532.36346798,-545.153288081)) ;
#495=CARTESIAN_POINT('Line Origine',(32926.3775589,-1532.36346798,-560.742817838)) ;
#499=CARTESIAN_POINT('Vertex',(32921.2540893,-1532.36346798,-573.232816192)) ;
#502=CARTESIAN_POINT('Axis2P3D Location',(32930.5059399,-1532.36346798,-577.027978885)) ;
#517=CARTESIAN_POINT('Axis2P3D Location',(32932.7857537,-1526.96503707,-545.120915567)) ;
#522=CARTESIAN_POINT('Line Origine',(32921.2540893,-1538.85879792,-573.232816192)) ;
#526=CARTESIAN_POINT('Vertex',(32921.2540893,-1530.3632572,-573.232816192)) ;
#530=CARTESIAN_POINT('Control Point',(32921.2540893,-1530.3632572,-573.232816192)) ;
#531=CARTESIAN_POINT('Control Point',(32931.5010285,-1530.36325476,-548.252819484)) ;
#540=CARTESIAN_POINT('Axis2P3D Location',(32940.9397782,-1530.36326392,-641.653148541)) ;
#546=CARTESIAN_POINT('Control Point',(32921.2540893,-1530.3632572,-573.232816192)) ;
#547=CARTESIAN_POINT('Control Point',(32920.9652736,-1530.36325727,-573.936891169)) ;
#548=CARTESIAN_POINT('Control Point',(32920.7434341,-1530.36325734,-574.668439852)) ;
#549=CARTESIAN_POINT('Control Point',(32920.5920568,-1530.36325741,-575.418983486)) ;
#550=CARTESIAN_POINT('Control Point',(32920.5129959,-1530.36325749,-576.179329213)) ;
#551=CARTESIAN_POINT('Control Point',(32920.5063242,-1530.36325756,-576.940309851)) ;
#552=CARTESIAN_POINT('Vertex',(32920.5063242,-1530.36325756,-576.940309851)) ;
#555=CARTESIAN_POINT('Line Origine',(32938.9780981,-1530.36325442,-545.17520534)) ;
#559=CARTESIAN_POINT('Vertex',(32941.7854078,-1530.36325445,-545.199817699)) ;
#562=CARTESIAN_POINT('Line Origine',(32941.362593,-1530.36325917,-593.42648312)) ;
#567=CARTESIAN_POINT('Line Origine',(32920.2672893,-1530.36326025,-604.204868859)) ;
#583=CARTESIAN_POINT('Axis2P3D Location',(32930.5059399,-1536.36336268,-577.027978885)) ;
#588=CARTESIAN_POINT('Line Origine',(32920.5063242,-1536.36336268,-576.940309851)) ;
#600=CARTESIAN_POINT('Axis2P3D Location',(32940.6200899,-1571.27742513,-564.051750546)) ;
#605=CARTESIAN_POINT('Axis2P3D Location',(32939.6201284,-1571.27742513,-564.042983642)) ;
#609=CARTESIAN_POINT('Vertex',(32939.7029761,-1574.54796927,-554.593291727)) ;
#611=CARTESIAN_POINT('Vertex',(32939.6201284,-1581.27742513,-564.042982657)) ;
#614=CARTESIAN_POINT('Line Origine',(32940.6200899,-1581.27742513,-564.051749561)) ;
#618=CARTESIAN_POINT('Vertex',(32941.6200515,-1581.27742513,-564.060516464)) ;
#621=CARTESIAN_POINT('Axis2P3D Location',(32941.6200515,-1571.27742513,-564.060517449)) ;
#625=CARTESIAN_POINT('Vertex',(32941.7028992,-1574.54796927,-554.610825534)) ;
#628=CARTESIAN_POINT('Line Origine',(32940.7029377,-1574.54796927,-554.602058631)) ;
#640=CARTESIAN_POINT('Axis2P3D Location',(32941.6824813,-1581.27742443,-556.939715063)) ;
#645=CARTESIAN_POINT('Line Origine',(32940.4392471,-1581.27742716,-584.678865627)) ;
#649=CARTESIAN_POINT('Vertex',(32941.4392086,-1581.27742716,-584.68763253)) ;
#651=CARTESIAN_POINT('Vertex',(32939.4392855,-1581.27742716,-584.670098723)) ;
#654=CARTESIAN_POINT('Line Origine',(32941.5296301,-1581.27742614,-574.374074497)) ;
#659=CARTESIAN_POINT('Line Origine',(32939.5297069,-1581.27742614,-574.35654069)) ;
#671=CARTESIAN_POINT('Axis2P3D Location',(32937.9393431,-1571.27742716,-584.656949353)) ;
#676=CARTESIAN_POINT('Axis2P3D Location',(32939.4392855,-1571.27742716,-584.670099708)) ;
#680=CARTESIAN_POINT('Vertex',(32939.385311,-1579.1575353,-590.826477086)) ;
#683=CARTESIAN_POINT('Line Origine',(32937.8853687,-1579.1575353,-590.813326731)) ;
#687=CARTESIAN_POINT('Vertex',(32941.3852342,-1579.1575353,-590.844010893)) ;
#690=CARTESIAN_POINT('Axis2P3D Location',(32941.4392086,-1571.27742716,-584.687633515)) ;
#702=CARTESIAN_POINT('Axis2P3D Location',(32923.0338859,9.54439225045E-012,-288.644153336)) ;
#707=CARTESIAN_POINT('Line Origine',(32920.2775745,-1538.58405878,-603.031723361)) ;
#711=CARTESIAN_POINT('Vertex',(32920.2775745,-1539.80464958,-603.031723361)) ;
#714=CARTESIAN_POINT('Line Origine',(32920.2600407,-1538.58405878,-605.031646501)) ;
#718=CARTESIAN_POINT('Vertex',(32920.2600407,-1539.80464958,-605.031646501)) ;
#721=CARTESIAN_POINT('Line Origine',(32920.2688076,-1539.80464958,-604.031684931)) ;
#739=CARTESIAN_POINT('Axis2P3D Location',(32930.266905,-1539.80464958,-604.292537894)) ;
#744=CARTESIAN_POINT('Axis2P3D Location',(32930.2596564,-1539.80464958,-605.119315536)) ;
#748=CARTESIAN_POINT('Vertex',(32921.4890319,-1544.60779778,-605.042421362)) ;
#751=CARTESIAN_POINT('Line Origine',(32921.4962804,-1544.60779778,-604.21564372)) ;
#755=CARTESIAN_POINT('Vertex',(32921.5065657,-1544.60779778,-603.042498223)) ;
#758=CARTESIAN_POINT('Axis2P3D Location',(32930.2771902,-1539.80464958,-603.119392396)) ;
#770=CARTESIAN_POINT('Axis2P3D Location',(32941.7854078,-1547.35434138,-545.199817699)) ;
#775=CARTESIAN_POINT('Line Origine',(32941.7854078,-1538.01804345,-545.199817699)) ;
#779=CARTESIAN_POINT('Vertex',(32941.7854078,-1545.67283245,-545.199817699)) ;
#782=CARTESIAN_POINT('Line Origine',(32939.7854846,-1540.51815021,-545.182283892)) ;
#786=CARTESIAN_POINT('Vertex',(32939.7854846,-1545.67283245,-545.182283892)) ;
#789=CARTESIAN_POINT('Line Origine',(32940.7854462,-1545.67283245,-545.191050795)) ;
#804=CARTESIAN_POINT('Axis2P3D Location',(32941.7854078,-1547.35434138,-545.199817699)) ;
#809=CARTESIAN_POINT('Line Origine',(32940.7806249,-1548.94337658,-545.74097458)) ;
#813=CARTESIAN_POINT('Vertex',(32941.7805865,-1548.94337658,-545.749741483)) ;
#815=CARTESIAN_POINT('Vertex',(32939.7806633,-1548.94337658,-545.732207676)) ;
#818=CARTESIAN_POINT('Line Origine',(32939.7418197,-1561.74567293,-550.162749702)) ;
#823=CARTESIAN_POINT('Line Origine',(32941.7417428,-1561.74567293,-550.180283509)) ;
#835=CARTESIAN_POINT('Line Origine',(32939.303145,-1554.59928352,-600.198409818)) ;
#839=CARTESIAN_POINT('Vertex',(32939.303145,-1571.83509905,-600.198409818)) ;
#842=CARTESIAN_POINT('Line Origine',(32939.344228,-1575.49631718,-595.512443452)) ;
#847=CARTESIAN_POINT('Axis2P3D Location',(32939.6978156,-1545.67283245,-555.181899591)) ;
#865=CARTESIAN_POINT('Axis2P3D Location',(32944.0330789,9.55051235487E-012,-288.828258309)) ;
#870=CARTESIAN_POINT('Axis2P3D Location',(32941.6977388,-1545.67283245,-555.199433398)) ;
#875=CARTESIAN_POINT('Line Origine',(32941.1709299,-1560.05924774,-615.287769808)) ;
#893=CARTESIAN_POINT('Axis2P3D Location',(32938.890429,-1545.67283245,-555.174821039)) ;
#905=CARTESIAN_POINT('Axis2P3D Location',(32936.2331251,-1550.14606985,-608.171801667)) ;
#911=CARTESIAN_POINT('Control Point',(32936.3840771,-1567.92664666,-605.175601824)) ;
#912=CARTESIAN_POINT('Control Point',(32936.3425791,-1567.9279958,-605.173511109)) ;
#913=CARTESIAN_POINT('Control Point',(32936.3009507,-1567.92765158,-605.172281015)) ;
#914=CARTESIAN_POINT('Control Point',(32936.2594258,-1567.92569505,-605.171916957)) ;
#915=CARTESIAN_POINT('Vertex',(32936.2594258,-1567.92569505,-605.171916957)) ;
#917=CARTESIAN_POINT('Vertex',(32936.384077,-1567.92664666,-605.175601853)) ;
#920=CARTESIAN_POINT('Line Origine',(32936.2594258,-1550.14606985,-605.171916957)) ;
#926=CARTESIAN_POINT('Control Point',(32939.2330098,-1565.58481531,-608.198102378)) ;
#927=CARTESIAN_POINT('Control Point',(32939.2362713,-1565.87546945,-607.826096259)) ;
#928=CARTESIAN_POINT('Control Point',(32939.1818686,-1566.16612334,-607.453584383)) ;
#929=CARTESIAN_POINT('Control Point',(32939.0697186,-1566.45136467,-607.087494614)) ;
#930=CARTESIAN_POINT('Control Point',(32938.8171043,-1566.85213508,-606.57229836)) ;
#931=CARTESIAN_POINT('Control Point',(32938.4311423,-1567.20537816,-606.116766063)) ;
#932=CARTESIAN_POINT('Control Point',(32938.2948346,-1567.31178776,-605.979367655)) ;
#933=CARTESIAN_POINT('Control Point',(32937.902273,-1567.57133003,-605.643714638)) ;
#934=CARTESIAN_POINT('Control Point',(32937.4204237,-1567.76983313,-605.385407221)) ;
#935=CARTESIAN_POINT('Control Point',(32937.0905314,-1567.86243973,-605.263978465)) ;
#936=CARTESIAN_POINT('Control Point',(32936.7393268,-1567.91509694,-605.193499715)) ;
#937=CARTESIAN_POINT('Control Point',(32936.3840771,-1567.92664666,-605.175601824)) ;
#947=CARTESIAN_POINT('Axis2P3D Location',(32936.3032603,-1556.82044774,-600.172109107)) ;
#953=CARTESIAN_POINT('Control Point',(32936.2769596,-1569.31752786,-603.171993817)) ;
#954=CARTESIAN_POINT('Control Point',(32936.6347487,-1569.44240529,-603.17513064)) ;
#955=CARTESIAN_POINT('Control Point',(32937.0012184,-1569.54264172,-603.112553144)) ;
#956=CARTESIAN_POINT('Control Point',(32937.343732,-1569.64393628,-602.985899907)) ;
#957=CARTESIAN_POINT('Vertex',(32937.3437318,-1569.64393628,-602.985899974)) ;
#959=CARTESIAN_POINT('Vertex',(32936.2769596,-1569.31752786,-603.171993817)) ;
#963=CARTESIAN_POINT('Control Point',(32937.343732,-1569.64393628,-602.985899907)) ;
#964=CARTESIAN_POINT('Control Point',(32938.1140691,-1569.87175414,-602.7010479)) ;
#965=CARTESIAN_POINT('Control Point',(32938.7326923,-1570.2931082,-602.167137271)) ;
#966=CARTESIAN_POINT('Control Point',(32939.0997624,-1570.78647616,-601.538858631)) ;
#967=CARTESIAN_POINT('Control Point',(32939.297257,-1571.31036787,-600.870009426)) ;
#968=CARTESIAN_POINT('Control Point',(32939.303145,-1571.83509905,-600.198409818)) ;
#970=CARTESIAN_POINT('Line Origine',(32936.2769596,-1556.82044774,-603.171993817)) ;
#983=CARTESIAN_POINT('Axis2P3D Location',(32941.4090218,-1581.2774275,-588.130776338)) ;
#988=CARTESIAN_POINT('Line Origine',(32936.8639044,-1568.78529147,-604.080750914)) ;
#1004=CARTESIAN_POINT('Axis2P3D Location',(32914.1268892,-1531.1633756,-604.977875688)) ;
#1009=CARTESIAN_POINT('Line Origine',(32933.4004224,-1566.34384729,-604.146812956)) ;
#1013=CARTESIAN_POINT('Vertex',(32933.8370199,-1567.12513276,-603.150602279)) ;
#1015=CARTESIAN_POINT('Vertex',(32932.9638249,-1565.56256182,-605.143023632)) ;
#1018=CARTESIAN_POINT('Line Origine',(32927.6717928,-1555.86646527,-603.096550251)) ;
#1023=CARTESIAN_POINT('Line Origine',(32927.2264284,-1555.0851798,-605.092722497)) ;
#1035=CARTESIAN_POINT('Axis2P3D Location',(32920.2600407,-1532.36346798,-605.031646501)) ;
#1041=CARTESIAN_POINT('Control Point',(32936.2594258,-1567.92569505,-605.171916957)) ;
#1042=CARTESIAN_POINT('Control Point',(32936.0242242,-1567.91461304,-605.169854888)) ;
#1043=CARTESIAN_POINT('Control Point',(32935.7902247,-1567.8780238,-605.167803358)) ;
#1044=CARTESIAN_POINT('Control Point',(32935.5608035,-1567.81856453,-605.165791968)) ;
#1045=CARTESIAN_POINT('Control Point',(32934.9185855,-1567.5905198,-605.160161488)) ;
#1046=CARTESIAN_POINT('Control Point',(32934.3405548,-1567.21917594,-605.155093753)) ;
#1047=CARTESIAN_POINT('Control Point',(32933.9966967,-1566.93134975,-605.152079067)) ;
#1048=CARTESIAN_POINT('Control Point',(32933.5730404,-1566.48782103,-605.14836477)) ;
#1049=CARTESIAN_POINT('Control Point',(32933.2198015,-1565.98999896,-605.14526784)) ;
#1050=CARTESIAN_POINT('Control Point',(32933.1289621,-1565.85078939,-605.144471429)) ;
#1051=CARTESIAN_POINT('Control Point',(32933.043584,-1565.70821425,-605.143722899)) ;
#1052=CARTESIAN_POINT('Control Point',(32932.9638249,-1565.56256182,-605.143023632)) ;
#1063=CARTESIAN_POINT('Axis2P3D Location',(32920.2775745,-1532.36346798,-603.031723361)) ;
#1069=CARTESIAN_POINT('Control Point',(32933.8370199,-1567.12513276,-603.150602279)) ;
#1070=CARTESIAN_POINT('Control Point',(32934.0178957,-1567.45544018,-603.152188061)) ;
#1071=CARTESIAN_POINT('Control Point',(32934.2276695,-1567.76992163,-603.154027198)) ;
#1072=CARTESIAN_POINT('Control Point',(32934.4645273,-1568.06526221,-603.156103788)) ;
#1073=CARTESIAN_POINT('Control Point',(32934.9325943,-1568.55003196,-603.160207443)) ;
#1074=CARTESIAN_POINT('Control Point',(32935.4787277,-1568.94247973,-603.164995526)) ;
#1075=CARTESIAN_POINT('Control Point',(32935.732543,-1569.09396213,-603.167220786)) ;
#1076=CARTESIAN_POINT('Control Point',(32935.9995323,-1569.22069869,-603.169561545)) ;
#1077=CARTESIAN_POINT('Control Point',(32936.2769596,-1569.31752786,-603.171993817)) ;
#1088=CARTESIAN_POINT('Axis2P3D Location',(32937.8037191,-1568.07406918,-600.126353065)) ;
#53=DIRECTION('Axis2P3D Direction',(0.999961569963,0.,-0.00876690349165)) ;
#54=DIRECTION('Axis2P3D XDirection',(0.,1.,0.)) ;
#58=DIRECTION('Axis2P3D Direction',(0.999961569963,0.,-0.00876690349165)) ;
#67=DIRECTION('Vector Direction',(0.999961569963,0.,-0.00876690349165)) ;
#74=DIRECTION('Axis2P3D Direction',(0.999961569963,0.,-0.00876690349165)) ;
#81=DIRECTION('Vector Direction',(0.999961569963,0.,-0.00876690349165)) ;
#100=DIRECTION('Axis1P Direction',(0.999961569963,1.97511755215E-012,-0.00876690348895)) ;
#104=DIRECTION('Axis2P3D Direction',(-0.999961569963,-1.97511755215E-012,0.00876690348895)) ;
#113=DIRECTION('Axis2P3D Direction',(1.97543925027E-012,-1.,2.80352026944E-014)) ;
#118=DIRECTION('Axis2P3D Direction',(0.00876690348895,4.5295027309E-014,0.999961569963)) ;
#130=DIRECTION('Axis2P3D Direction',(-0.00876690349177,0.,-0.999961569963)) ;
#131=DIRECTION('Axis2P3D XDirection',(0.,1.,0.)) ;
#147=DIRECTION('Vector Direction',(-0.00876690349177,0.,-0.999961569963)) ;
#152=DIRECTION('Vector Direction',(-0.00876690349177,0.,-0.999961569963)) ;
#164=DIRECTION('Axis2P3D Direction',(0.999961569963,0.,-0.00876690349105)) ;
#165=DIRECTION('Axis2P3D XDirection',(-0.00876690349105,0.,-0.999961569963)) ;
#169=DIRECTION('Axis2P3D Direction',(0.999961569963,0.,-0.00876690349105)) ;
#178=DIRECTION('Vector Direction',(0.999961569963,0.,-0.00876690349105)) ;
#185=DIRECTION('Axis2P3D Direction',(0.999961569963,0.,-0.00876690349105)) ;
#192=DIRECTION('Vector Direction',(0.999961569963,0.,-0.00876690349105)) ;
#211=DIRECTION('Axis1P Direction',(0.999961569963,-1.63530603989E-012,-0.00876690349057)) ;
#215=DIRECTION('Axis2P3D Direction',(-0.999961569963,1.63530603989E-012,0.00876690349057)) ;
#224=DIRECTION('Axis2P3D Direction',(0.00876690349057,1.28643883848E-014,0.999961569963)) ;
#229=DIRECTION('Axis2P3D Direction',(1.63524368168E-012,1.,-1.42810612113E-014)) ;
#241=DIRECTION('Axis2P3D Direction',(-0.00876690349168,0.,-0.999961569963)) ;
#242=DIRECTION('Axis2P3D XDirection',(0.,1.,0.)) ;
#246=DIRECTION('Axis2P3D Direction',(-0.00876690349168,0.,-0.999961569963)) ;
#255=DIRECTION('Vector Direction',(-0.00876690349168,0.,-0.999961569963)) ;
#260=DIRECTION('Vector Direction',(-0.00876690349168,0.,-0.999961569963)) ;
#272=DIRECTION('Axis2P3D Direction',(0.,-1.,0.)) ;
#273=DIRECTION('Axis2P3D XDirection',(0.00876690349105,0.,0.999961569963)) ;
#288=DIRECTION('Vector Direction',(0.,-1.,0.)) ;
#295=DIRECTION('Axis2P3D Direction',(0.,-1.,0.)) ;
#302=DIRECTION('Vector Direction',(0.,-1.,0.)) ;
#314=DIRECTION('Axis2P3D Direction',(-0.999961569963,-2.91433543964E-016,0.00876690349165)) ;
#315=DIRECTION('Axis2P3D XDirection',(2.91444744196E-016,-1.,0.)) ;
#319=DIRECTION('Vector Direction',(0.00690841475911,-0.615661397682,0.787980530984)) ;
#328=DIRECTION('Vector Direction',(0.,-1.,0.)) ;
#333=DIRECTION('Vector Direction',(-8.64806483013E-010,1.,-9.85278525724E-008)) ;
#340=DIRECTION('Axis2P3D Direction',(-0.999961569963,-2.91433543964E-016,0.00876690349165)) ;
#354=DIRECTION('Axis2P3D Direction',(-0.999961569963,-1.11902674627E-013,0.00876690349157)) ;
#355=DIRECTION('Axis2P3D XDirection',(-0.00876690349157,-9.85316091495E-008,-0.999961569963)) ;
#359=DIRECTION('Vector Direction',(-0.999961569963,-1.08273178782E-013,0.00876690349157)) ;
#366=DIRECTION('Axis2P3D Direction',(-0.999961569963,-1.11902674627E-013,0.00876690349157)) ;
#373=DIRECTION('Vector Direction',(-0.999961569963,-1.08273178782E-013,0.00876690349157)) ;
#385=DIRECTION('Axis2P3D Direction',(2.91444744196E-016,-1.,3.85185988877E-034)) ;
#386=DIRECTION('Axis2P3D XDirection',(-0.00876690349165,-2.55506794552E-018,-0.999961569963)) ;
#390=DIRECTION('Vector Direction',(0.999961569963,0.,-0.00876690349166)) ;
#397=DIRECTION('Vector Direction',(-0.00876690349164,0.,-0.999961569963)) ;
#426=DIRECTION('Axis2P3D Direction',(0.00876690349165,9.85315877129E-008,0.999961569963)) ;
#427=DIRECTION('Axis2P3D XDirection',(-8.63817211781E-010,1.,-9.85278011378E-008)) ;
#431=DIRECTION('Vector Direction',(-8.65750621836E-010,1.,-9.85278430738E-008)) ;
#438=DIRECTION('Vector Direction',(-0.999961569963,0.,0.00876690349166)) ;
#445=DIRECTION('Vector Direction',(-8.63369634241E-010,1.,-9.85278075489E-008)) ;
#460=DIRECTION('Axis2P3D Direction',(-8.63571758938E-010,1.,-9.85278020223E-008)) ;
#461=DIRECTION('Axis2P3D XDirection',(-0.00876690349178,-9.85315864455E-008,-0.999961569963)) ;
#465=DIRECTION('Vector Direction',(-8.635717174E-010,1.,-9.85277972844E-008)) ;
#472=DIRECTION('Axis2P3D Direction',(-8.63571758938E-010,1.,-9.85278020223E-008)) ;
#484=DIRECTION('Vector Direction',(-0.00876690349162,0.,-0.999961569963)) ;
#491=DIRECTION('Vector Direction',(0.999961569963,0.,-0.00876690349162)) ;
#496=DIRECTION('Vector Direction',(-0.37951626934,0.,-0.925185063274)) ;
#503=DIRECTION('Axis2P3D Direction',(2.91444744196E-016,-1.,3.85185988877E-034)) ;
#518=DIRECTION('Axis2P3D Direction',(0.925185063275,0.,-0.37951626934)) ;
#519=DIRECTION('Axis2P3D XDirection',(0.,-1.,0.)) ;
#523=DIRECTION('Vector Direction',(0.,-1.,0.)) ;
#541=DIRECTION('Axis2P3D Direction',(8.63817145244E-010,-1.,9.85277935486E-008)) ;
#542=DIRECTION('Axis2P3D XDirection',(0.00876690349165,9.85315801234E-008,0.999961569963)) ;
#556=DIRECTION('Vector Direction',(-0.999961569963,0.,0.00876690349164)) ;
#563=DIRECTION('Vector Direction',(0.00876690349164,9.85315801208E-008,0.999961569963)) ;
#568=DIRECTION('Vector Direction',(0.00876690349157,9.85315798676E-008,0.999961569963)) ;
#584=DIRECTION('Axis2P3D Direction',(0.,-1.,0.)) ;
#585=DIRECTION('Axis2P3D XDirection',(-0.925185063275,0.,0.37951626934)) ;
#589=DIRECTION('Vector Direction',(0.,-1.,0.)) ;
#601=DIRECTION('Axis2P3D Direction',(-0.999961569963,4.28676191766E-014,0.00876690349153)) ;
#602=DIRECTION('Axis2P3D XDirection',(8.63774032769E-010,-1.,9.85277989751E-008)) ;
#606=DIRECTION('Axis2P3D Direction',(-0.999961569963,4.28676191766E-014,0.00876690349153)) ;
#615=DIRECTION('Vector Direction',(-0.999961569963,0.,0.0087669034915)) ;
#622=DIRECTION('Axis2P3D Direction',(-0.999961569963,4.28676191766E-014,0.00876690349153)) ;
#629=DIRECTION('Vector Direction',(-0.999961569963,0.,0.0087669034915)) ;
#641=DIRECTION('Axis2P3D Direction',(-8.63817220141E-010,1.,-9.85278020914E-008)) ;
#642=DIRECTION('Axis2P3D XDirection',(-0.00876690349165,-9.85315886665E-008,-0.999961569963)) ;
#646=DIRECTION('Vector Direction',(-0.999961569963,0.,0.00876690349162)) ;
#655=DIRECTION('Vector Direction',(-0.00876690349133,-9.85315855682E-008,-0.999961569963)) ;
#660=DIRECTION('Vector Direction',(-0.00876690349133,-9.85315855682E-008,-0.999961569963)) ;
#672=DIRECTION('Axis2P3D Direction',(-0.999961569963,1.60741286481E-013,0.00876690349165)) ;
#673=DIRECTION('Axis2P3D XDirection',(-0.00539744405714,-0.788010814269,-0.615637737792)) ;
#677=DIRECTION('Axis2P3D Direction',(-0.999961569963,1.60741286481E-013,0.00876690349165)) ;
#684=DIRECTION('Vector Direction',(-0.999961569963,1.3920837272E-013,0.00876690349166)) ;
#691=DIRECTION('Axis2P3D Direction',(-0.999961569963,1.60741286481E-013,0.00876690349165)) ;
#703=DIRECTION('Axis2P3D Direction',(-0.999961569963,-2.91433543964E-016,0.00876690349165)) ;
#704=DIRECTION('Axis2P3D XDirection',(2.91444744196E-016,-1.,0.)) ;
#708=DIRECTION('Vector Direction',(0.,-1.,0.)) ;
#715=DIRECTION('Vector Direction',(0.,-1.,0.)) ;
#722=DIRECTION('Vector Direction',(0.00876690349105,0.,0.999961569963)) ;
#740=DIRECTION('Axis2P3D Direction',(0.00876690349165,0.,0.999961569963)) ;
#741=DIRECTION('Axis2P3D XDirection',(-0.999961569963,0.,0.00876690349165)) ;
#745=DIRECTION('Axis2P3D Direction',(0.00876690349165,0.,0.999961569963)) ;
#752=DIRECTION('Vector Direction',(0.00876690349165,0.,0.999961569963)) ;
#759=DIRECTION('Axis2P3D Direction',(0.00876690349165,0.,0.999961569963)) ;
#771=DIRECTION('Axis2P3D Direction',(0.00876690349165,2.55506794552E-018,0.999961569963)) ;
#772=DIRECTION('Axis2P3D XDirection',(-2.91444744196E-016,1.,0.)) ;
#776=DIRECTION('Vector Direction',(0.,1.,0.)) ;
#783=DIRECTION('Vector Direction',(-7.0576199358E-013,1.,0.)) ;
#790=DIRECTION('Vector Direction',(-0.999961569963,0.,0.00876690349167)) ;
#805=DIRECTION('Axis2P3D Direction',(-0.00828477208865,0.327054413897,-0.944969191509)) ;
#806=DIRECTION('Axis2P3D XDirection',(-0.00286725448315,-0.945005508106,-0.327041845184)) ;
#810=DIRECTION('Vector Direction',(-0.999961569963,0.,0.00876690349167)) ;
#819=DIRECTION('Vector Direction',(-0.00286725448301,-0.945005508106,-0.327041845184)) ;
#824=DIRECTION('Vector Direction',(-0.00286725448301,-0.945005508106,-0.327041845184)) ;
#836=DIRECTION('Vector Direction',(0.,-1.,0.)) ;
#843=DIRECTION('Vector Direction',(-0.00690841475876,0.615661397682,-0.787980530984)) ;
#848=DIRECTION('Axis2P3D Direction',(-0.999961569963,-2.91433543964E-016,0.00876690349165)) ;
#866=DIRECTION('Axis2P3D Direction',(-0.999961569963,-2.91433543964E-016,0.00876690349165)) ;
#867=DIRECTION('Axis2P3D XDirection',(2.91444744196E-016,-1.,0.)) ;
#871=DIRECTION('Axis2P3D Direction',(-0.999961569963,-2.91433543964E-016,0.00876690349165)) ;
#876=DIRECTION('Vector Direction',(-0.00690841475908,0.615661397682,-0.787980530984)) ;
#894=DIRECTION('Axis2P3D Direction',(-0.999961569963,0.,0.00876690349178)) ;
#895=DIRECTION('Axis2P3D XDirection',(0.00828477208876,-0.327054413897,0.944969191509)) ;
#906=DIRECTION('Axis2P3D Direction',(0.,-1.,0.)) ;
#907=DIRECTION('Axis2P3D XDirection',(0.999961569963,-0.,-0.00876690349165)) ;
#921=DIRECTION('Vector Direction',(0.,-1.,0.)) ;
#948=DIRECTION('Axis2P3D Direction',(0.,-1.,-0.)) ;
#949=DIRECTION('Axis2P3D XDirection',(-0.00876690349105,0.,-0.999961569963)) ;
#971=DIRECTION('Vector Direction',(0.,-1.,0.)) ;
#984=DIRECTION('Axis2P3D Direction',(0.00539744405701,0.788010814269,0.615637737792)) ;
#985=DIRECTION('Axis2P3D XDirection',(-0.00690841475907,0.615661397682,-0.787980530984)) ;
#989=DIRECTION('Vector Direction',(0.326013348896,-0.583396596265,0.743884203225)) ;
#1005=DIRECTION('Axis2P3D Direction',(0.877062452861,0.480314820343,-0.00768941738498)) ;
#1006=DIRECTION('Axis2P3D XDirection',(-0.480296361827,0.877096159699,0.00421087367556)) ;
#1010=DIRECTION('Vector Direction',(0.326013348898,-0.583396596265,0.743884203224)) ;
#1019=DIRECTION('Vector Direction',(-0.480296361827,0.877096159699,0.00421087367556)) ;
#1024=DIRECTION('Vector Direction',(0.480296361827,-0.877096159699,-0.00421087367556)) ;
#1036=DIRECTION('Axis2P3D Direction',(0.00876690349165,2.55506794552E-018,0.999961569963)) ;
#1037=DIRECTION('Axis2P3D XDirection',(2.91444744196E-016,-1.,0.)) ;
#1064=DIRECTION('Axis2P3D Direction',(0.00876690349165,2.55506794552E-018,0.999961569963)) ;
#1065=DIRECTION('Axis2P3D XDirection',(2.91444744196E-016,-1.,0.)) ;
#1089=DIRECTION('Axis2P3D Direction',(0.326013348897,-0.583396596265,0.743884203225)) ;
#1090=DIRECTION('Axis2P3D XDirection',(-0.877062452861,-0.480314820344,0.007689417385)) ;
#48=AXIS2_PLACEMENT_3D(' ',#47,$,$) ;
#55=AXIS2_PLACEMENT_3D('Cylinder Axis2P3D',#52,#53,#54) ;
#59=AXIS2_PLACEMENT_3D('Circle Axis2P3D',#57,#58,$) ;
#75=AXIS2_PLACEMENT_3D('Circle Axis2P3D',#73,#74,$) ;
#105=AXIS2_PLACEMENT_3D('Circle Axis2P3D',#103,#104,$) ;
#114=AXIS2_PLACEMENT_3D('Circle Axis2P3D',#112,#113,$) ;
#119=AXIS2_PLACEMENT_3D('Circle Axis2P3D',#117,#118,$) ;
#132=AXIS2_PLACEMENT_3D('Cylinder Axis2P3D',#129,#130,#131) ;
#166=AXIS2_PLACEMENT_3D('Cylinder Axis2P3D',#163,#164,#165) ;
#170=AXIS2_PLACEMENT_3D('Circle Axis2P3D',#168,#169,$) ;
#186=AXIS2_PLACEMENT_3D('Circle Axis2P3D',#184,#185,$) ;
#216=AXIS2_PLACEMENT_3D('Circle Axis2P3D',#214,#215,$) ;
#225=AXIS2_PLACEMENT_3D('Circle Axis2P3D',#223,#224,$) ;
#230=AXIS2_PLACEMENT_3D('Circle Axis2P3D',#228,#229,$) ;
#243=AXIS2_PLACEMENT_3D('Cylinder Axis2P3D',#240,#241,#242) ;
#247=AXIS2_PLACEMENT_3D('Circle Axis2P3D',#245,#246,$) ;
#274=AXIS2_PLACEMENT_3D('Cylinder Axis2P3D',#271,#272,#273) ;
#296=AXIS2_PLACEMENT_3D('Circle Axis2P3D',#294,#295,$) ;
#316=AXIS2_PLACEMENT_3D('Plane Axis2P3D',#313,#314,#315) ;
#341=AXIS2_PLACEMENT_3D('Circle Axis2P3D',#339,#340,$) ;
#356=AXIS2_PLACEMENT_3D('Cylinder Axis2P3D',#353,#354,#355) ;
#367=AXIS2_PLACEMENT_3D('Circle Axis2P3D',#365,#366,$) ;
#387=AXIS2_PLACEMENT_3D('Plane Axis2P3D',#384,#385,#386) ;
#428=AXIS2_PLACEMENT_3D('Plane Axis2P3D',#425,#426,#427) ;
#462=AXIS2_PLACEMENT_3D('Cylinder Axis2P3D',#459,#460,#461) ;
#473=AXIS2_PLACEMENT_3D('Circle Axis2P3D',#471,#472,$) ;
#504=AXIS2_PLACEMENT_3D('Circle Axis2P3D',#502,#503,$) ;
#520=AXIS2_PLACEMENT_3D('Plane Axis2P3D',#517,#518,#519) ;
#543=AXIS2_PLACEMENT_3D('Plane Axis2P3D',#540,#541,#542) ;
#586=AXIS2_PLACEMENT_3D('Cylinder Axis2P3D',#583,#584,#585) ;
#603=AXIS2_PLACEMENT_3D('Cylinder Axis2P3D',#600,#601,#602) ;
#607=AXIS2_PLACEMENT_3D('Circle Axis2P3D',#605,#606,$) ;
#623=AXIS2_PLACEMENT_3D('Circle Axis2P3D',#621,#622,$) ;
#643=AXIS2_PLACEMENT_3D('Plane Axis2P3D',#640,#641,#642) ;
#674=AXIS2_PLACEMENT_3D('Cylinder Axis2P3D',#671,#672,#673) ;
#678=AXIS2_PLACEMENT_3D('Circle Axis2P3D',#676,#677,$) ;
#692=AXIS2_PLACEMENT_3D('Circle Axis2P3D',#690,#691,$) ;
#705=AXIS2_PLACEMENT_3D('Plane Axis2P3D',#702,#703,#704) ;
#742=AXIS2_PLACEMENT_3D('Cylinder Axis2P3D',#739,#740,#741) ;
#746=AXIS2_PLACEMENT_3D('Circle Axis2P3D',#744,#745,$) ;
#760=AXIS2_PLACEMENT_3D('Circle Axis2P3D',#758,#759,$) ;
#773=AXIS2_PLACEMENT_3D('Plane Axis2P3D',#770,#771,#772) ;
#807=AXIS2_PLACEMENT_3D('Plane Axis2P3D',#804,#805,#806) ;
#849=AXIS2_PLACEMENT_3D('Circle Axis2P3D',#847,#848,$) ;
#868=AXIS2_PLACEMENT_3D('Plane Axis2P3D',#865,#866,#867) ;
#872=AXIS2_PLACEMENT_3D('Circle Axis2P3D',#870,#871,$) ;
#896=AXIS2_PLACEMENT_3D('Cylinder Axis2P3D',#893,#894,#895) ;
#908=AXIS2_PLACEMENT_3D('Cylinder Axis2P3D',#905,#906,#907) ;
#950=AXIS2_PLACEMENT_3D('Cylinder Axis2P3D',#947,#948,#949) ;
#986=AXIS2_PLACEMENT_3D('Plane Axis2P3D',#983,#984,#985) ;
#1007=AXIS2_PLACEMENT_3D('Plane Axis2P3D',#1004,#1005,#1006) ;
#1038=AXIS2_PLACEMENT_3D('Plane Axis2P3D',#1035,#1036,#1037) ;
#1066=AXIS2_PLACEMENT_3D('Plane Axis2P3D',#1063,#1064,#1065) ;
#1091=AXIS2_PLACEMENT_3D('Cylinder Axis2P3D',#1088,#1089,#1090) ;
#40=PRODUCT_DEFINITION_SHAPE(' ',' ',#14) ;
#31=APPROVAL_PERSON_ORGANIZATION(#25,#21,#19) ;
#25=PERSON_AND_ORGANIZATION(#22,#23) ;
#22=PERSON(' ',' ',' ',$,$,$) ;
#23=ORGANIZATION(' ',' ',' ') ;
#21=APPROVAL(#20,' ') ;
#20=APPROVAL_STATUS('not_yet_approved') ;
#19=APPROVAL_ROLE('APPROVER') ;
#13=DATE_AND_TIME(#11,#12) ;
#12=LOCAL_TIME(14,41,51.,#10) ;
#10=COORDINATED_UNIVERSAL_TIME_OFFSET(0,0,.AHEAD.) ;
#86=ORIENTED_EDGE('',*,*,#65,.T.) ;
#87=ORIENTED_EDGE('',*,*,#72,.T.) ;
#88=ORIENTED_EDGE('',*,*,#79,.F.) ;
#89=ORIENTED_EDGE('',*,*,#84,.F.) ;
#123=ORIENTED_EDGE('',*,*,#111,.T.) ;
#124=ORIENTED_EDGE('',*,*,#116,.T.) ;
#125=ORIENTED_EDGE('',*,*,#65,.F.) ;
#126=ORIENTED_EDGE('',*,*,#121,.F.) ;
#157=ORIENTED_EDGE('',*,*,#145,.F.) ;
#158=ORIENTED_EDGE('',*,*,#150,.T.) ;
#159=ORIENTED_EDGE('',*,*,#121,.T.) ;
#160=ORIENTED_EDGE('',*,*,#155,.F.) ;
#197=ORIENTED_EDGE('',*,*,#176,.T.) ;
#198=ORIENTED_EDGE('',*,*,#183,.T.) ;
#199=ORIENTED_EDGE('',*,*,#190,.F.) ;
#200=ORIENTED_EDGE('',*,*,#195,.F.) ;
#234=ORIENTED_EDGE('',*,*,#222,.T.) ;
#235=ORIENTED_EDGE('',*,*,#227,.T.) ;
#236=ORIENTED_EDGE('',*,*,#176,.F.) ;
#237=ORIENTED_EDGE('',*,*,#232,.F.) ;
#265=ORIENTED_EDGE('',*,*,#253,.F.) ;
#266=ORIENTED_EDGE('',*,*,#258,.F.) ;
#267=ORIENTED_EDGE('',*,*,#227,.F.) ;
#268=ORIENTED_EDGE('',*,*,#263,.T.) ;
#307=ORIENTED_EDGE('',*,*,#286,.T.) ;
#308=ORIENTED_EDGE('',*,*,#293,.F.) ;
#309=ORIENTED_EDGE('',*,*,#300,.T.) ;
#310=ORIENTED_EDGE('',*,*,#305,.T.) ;
#345=ORIENTED_EDGE('',*,*,#326,.T.) ;
#346=ORIENTED_EDGE('',*,*,#331,.F.) ;
#347=ORIENTED_EDGE('',*,*,#111,.F.) ;
#348=ORIENTED_EDGE('',*,*,#150,.F.) ;
#349=ORIENTED_EDGE('',*,*,#338,.F.) ;
#350=ORIENTED_EDGE('',*,*,#343,.F.) ;
#378=ORIENTED_EDGE('',*,*,#343,.T.) ;
#379=ORIENTED_EDGE('',*,*,#364,.F.) ;
#380=ORIENTED_EDGE('',*,*,#371,.T.) ;
#381=ORIENTED_EDGE('',*,*,#376,.T.) ;
#418=ORIENTED_EDGE('',*,*,#395,.T.) ;
#419=ORIENTED_EDGE('',*,*,#155,.T.) ;
#420=ORIENTED_EDGE('',*,*,#84,.T.) ;
#421=ORIENTED_EDGE('',*,*,#402,.T.) ;
#422=ORIENTED_EDGE('',*,*,#416,.F.) ;
#450=ORIENTED_EDGE('',*,*,#436,.F.) ;
#451=ORIENTED_EDGE('',*,*,#443,.F.) ;
#452=ORIENTED_EDGE('',*,*,#448,.T.) ;
#453=ORIENTED_EDGE('',*,*,#364,.T.) ;
#454=ORIENTED_EDGE('',*,*,#338,.T.) ;
#455=ORIENTED_EDGE('',*,*,#145,.T.) ;
#456=ORIENTED_EDGE('',*,*,#395,.F.) ;
#477=ORIENTED_EDGE('',*,*,#416,.T.) ;
#478=ORIENTED_EDGE('',*,*,#470,.F.) ;
#479=ORIENTED_EDGE('',*,*,#475,.T.) ;
#480=ORIENTED_EDGE('',*,*,#436,.T.) ;
#508=ORIENTED_EDGE('',*,*,#489,.T.) ;
#509=ORIENTED_EDGE('',*,*,#183,.F.) ;
#510=ORIENTED_EDGE('',*,*,#258,.T.) ;
#511=ORIENTED_EDGE('',*,*,#494,.F.) ;
#512=ORIENTED_EDGE('',*,*,#300,.F.) ;
#513=ORIENTED_EDGE('',*,*,#501,.F.) ;
#514=ORIENTED_EDGE('',*,*,#506,.F.) ;
#534=ORIENTED_EDGE('',*,*,#528,.F.) ;
#535=ORIENTED_EDGE('',*,*,#501,.T.) ;
#536=ORIENTED_EDGE('',*,*,#293,.T.) ;
#537=ORIENTED_EDGE('',*,*,#532,.T.) ;
#573=ORIENTED_EDGE('',*,*,#554,.F.) ;
#574=ORIENTED_EDGE('',*,*,#532,.F.) ;
#575=ORIENTED_EDGE('',*,*,#286,.F.) ;
#576=ORIENTED_EDGE('',*,*,#561,.F.) ;
#577=ORIENTED_EDGE('',*,*,#566,.T.) ;
#578=ORIENTED_EDGE('',*,*,#443,.T.) ;
#579=ORIENTED_EDGE('',*,*,#475,.F.) ;
#580=ORIENTED_EDGE('',*,*,#571,.F.) ;
#594=ORIENTED_EDGE('',*,*,#554,.T.) ;
#595=ORIENTED_EDGE('',*,*,#592,.F.) ;
#596=ORIENTED_EDGE('',*,*,#506,.T.) ;
#597=ORIENTED_EDGE('',*,*,#528,.T.) ;
#634=ORIENTED_EDGE('',*,*,#613,.T.) ;
#635=ORIENTED_EDGE('',*,*,#620,.F.) ;
#636=ORIENTED_EDGE('',*,*,#627,.T.) ;
#637=ORIENTED_EDGE('',*,*,#632,.T.) ;
#665=ORIENTED_EDGE('',*,*,#653,.F.) ;
#666=ORIENTED_EDGE('',*,*,#658,.T.) ;
#667=ORIENTED_EDGE('',*,*,#620,.T.) ;
#668=ORIENTED_EDGE('',*,*,#663,.T.) ;
#696=ORIENTED_EDGE('',*,*,#682,.T.) ;
#697=ORIENTED_EDGE('',*,*,#689,.F.) ;
#698=ORIENTED_EDGE('',*,*,#694,.T.) ;
#699=ORIENTED_EDGE('',*,*,#653,.T.) ;
#727=ORIENTED_EDGE('',*,*,#713,.F.) ;
#728=ORIENTED_EDGE('',*,*,#190,.T.) ;
#729=ORIENTED_EDGE('',*,*,#489,.F.) ;
#730=ORIENTED_EDGE('',*,*,#592,.T.) ;
#731=ORIENTED_EDGE('',*,*,#571,.T.) ;
#732=ORIENTED_EDGE('',*,*,#470,.T.) ;
#733=ORIENTED_EDGE('',*,*,#402,.F.) ;
#734=ORIENTED_EDGE('',*,*,#79,.T.) ;
#735=ORIENTED_EDGE('',*,*,#720,.F.) ;
#736=ORIENTED_EDGE('',*,*,#725,.F.) ;
#764=ORIENTED_EDGE('',*,*,#750,.T.) ;
#765=ORIENTED_EDGE('',*,*,#757,.F.) ;
#766=ORIENTED_EDGE('',*,*,#762,.T.) ;
#767=ORIENTED_EDGE('',*,*,#725,.T.) ;
#795=ORIENTED_EDGE('',*,*,#781,.T.) ;
#796=ORIENTED_EDGE('',*,*,#561,.T.) ;
#797=ORIENTED_EDGE('',*,*,#305,.F.) ;
#798=ORIENTED_EDGE('',*,*,#494,.T.) ;
#799=ORIENTED_EDGE('',*,*,#253,.T.) ;
#800=ORIENTED_EDGE('',*,*,#788,.F.) ;
#801=ORIENTED_EDGE('',*,*,#793,.F.) ;
#829=ORIENTED_EDGE('',*,*,#817,.T.) ;
#830=ORIENTED_EDGE('',*,*,#822,.T.) ;
#831=ORIENTED_EDGE('',*,*,#632,.F.) ;
#832=ORIENTED_EDGE('',*,*,#827,.T.) ;
#853=ORIENTED_EDGE('',*,*,#788,.T.) ;
#854=ORIENTED_EDGE('',*,*,#263,.F.) ;
#855=ORIENTED_EDGE('',*,*,#222,.F.) ;
#856=ORIENTED_EDGE('',*,*,#841,.F.) ;
#857=ORIENTED_EDGE('',*,*,#846,.F.) ;
#858=ORIENTED_EDGE('',*,*,#682,.F.) ;
#859=ORIENTED_EDGE('',*,*,#663,.F.) ;
#860=ORIENTED_EDGE('',*,*,#613,.F.) ;
#861=ORIENTED_EDGE('',*,*,#822,.F.) ;
#862=ORIENTED_EDGE('',*,*,#851,.F.) ;
#881=ORIENTED_EDGE('',*,*,#874,.F.) ;
#882=ORIENTED_EDGE('',*,*,#827,.F.) ;
#883=ORIENTED_EDGE('',*,*,#627,.F.) ;
#884=ORIENTED_EDGE('',*,*,#658,.F.) ;
#885=ORIENTED_EDGE('',*,*,#694,.F.) ;
#886=ORIENTED_EDGE('',*,*,#879,.F.) ;
#887=ORIENTED_EDGE('',*,*,#371,.F.) ;
#888=ORIENTED_EDGE('',*,*,#448,.F.) ;
#889=ORIENTED_EDGE('',*,*,#566,.F.) ;
#890=ORIENTED_EDGE('',*,*,#781,.F.) ;
#899=ORIENTED_EDGE('',*,*,#851,.T.) ;
#900=ORIENTED_EDGE('',*,*,#817,.F.) ;
#901=ORIENTED_EDGE('',*,*,#874,.T.) ;
#902=ORIENTED_EDGE('',*,*,#793,.T.) ;
#940=ORIENTED_EDGE('',*,*,#919,.F.) ;
#941=ORIENTED_EDGE('',*,*,#924,.F.) ;
#942=ORIENTED_EDGE('',*,*,#116,.F.) ;
#943=ORIENTED_EDGE('',*,*,#331,.T.) ;
#944=ORIENTED_EDGE('',*,*,#938,.F.) ;
#976=ORIENTED_EDGE('',*,*,#961,.F.) ;
#977=ORIENTED_EDGE('',*,*,#969,.F.) ;
#978=ORIENTED_EDGE('',*,*,#841,.T.) ;
#979=ORIENTED_EDGE('',*,*,#232,.T.) ;
#980=ORIENTED_EDGE('',*,*,#974,.F.) ;
#994=ORIENTED_EDGE('',*,*,#992,.T.) ;
#995=ORIENTED_EDGE('',*,*,#938,.T.) ;
#996=ORIENTED_EDGE('',*,*,#326,.F.) ;
#997=ORIENTED_EDGE('',*,*,#376,.F.) ;
#998=ORIENTED_EDGE('',*,*,#879,.T.) ;
#999=ORIENTED_EDGE('',*,*,#689,.T.) ;
#1000=ORIENTED_EDGE('',*,*,#846,.T.) ;
#1001=ORIENTED_EDGE('',*,*,#969,.T.) ;
#1029=ORIENTED_EDGE('',*,*,#1017,.F.) ;
#1030=ORIENTED_EDGE('',*,*,#1022,.T.) ;
#1031=ORIENTED_EDGE('',*,*,#757,.T.) ;
#1032=ORIENTED_EDGE('',*,*,#1027,.T.) ;
#1055=ORIENTED_EDGE('',*,*,#1053,.F.) ;
#1056=ORIENTED_EDGE('',*,*,#1027,.F.) ;
#1057=ORIENTED_EDGE('',*,*,#750,.F.) ;
#1058=ORIENTED_EDGE('',*,*,#720,.T.) ;
#1059=ORIENTED_EDGE('',*,*,#72,.F.) ;
#1060=ORIENTED_EDGE('',*,*,#924,.T.) ;
#1080=ORIENTED_EDGE('',*,*,#974,.T.) ;
#1081=ORIENTED_EDGE('',*,*,#195,.T.) ;
#1082=ORIENTED_EDGE('',*,*,#713,.T.) ;
#1083=ORIENTED_EDGE('',*,*,#762,.F.) ;
#1084=ORIENTED_EDGE('',*,*,#1022,.F.) ;
#1085=ORIENTED_EDGE('',*,*,#1078,.F.) ;
#1094=ORIENTED_EDGE('',*,*,#1053,.T.) ;
#1095=ORIENTED_EDGE('',*,*,#919,.T.) ;
#1096=ORIENTED_EDGE('',*,*,#992,.F.) ;
#1097=ORIENTED_EDGE('',*,*,#961,.T.) ;
#1098=ORIENTED_EDGE('',*,*,#1078,.T.) ;
#1099=ORIENTED_EDGE('',*,*,#1017,.T.) ;
#51=CLOSED_SHELL('Closed Shell',(#91,#128,#162,#202,#239,#270,#312,#352,#383,#424,#458,#482,#516,#539,#582,#599,#639,#670,#701,#738,#769,#803,#834,#864,#892,#904,#946,#982,#1003,#1034,#1062,#1087,#1101)) ;
#68=VECTOR('Line Direction',#67,1.) ;
#82=VECTOR('Line Direction',#81,1.) ;
#148=VECTOR('Line Direction',#147,1.) ;
#153=VECTOR('Line Direction',#152,1.) ;
#179=VECTOR('Line Direction',#178,1.) ;
#193=VECTOR('Line Direction',#192,1.) ;
#256=VECTOR('Line Direction',#255,1.) ;
#261=VECTOR('Line Direction',#260,1.) ;
#289=VECTOR('Line Direction',#288,1.) ;
#303=VECTOR('Line Direction',#302,1.) ;
#320=VECTOR('Line Direction',#319,1.) ;
#329=VECTOR('Line Direction',#328,1.) ;
#334=VECTOR('Line Direction',#333,1.) ;
#360=VECTOR('Line Direction',#359,1.) ;
#374=VECTOR('Line Direction',#373,1.) ;
#391=VECTOR('Line Direction',#390,1.) ;
#398=VECTOR('Line Direction',#397,1.) ;
#432=VECTOR('Line Direction',#431,1.) ;
#439=VECTOR('Line Direction',#438,1.) ;
#446=VECTOR('Line Direction',#445,1.) ;
#466=VECTOR('Line Direction',#465,1.) ;
#485=VECTOR('Line Direction',#484,1.) ;
#492=VECTOR('Line Direction',#491,1.) ;
#497=VECTOR('Line Direction',#496,1.) ;
#524=VECTOR('Line Direction',#523,1.) ;
#557=VECTOR('Line Direction',#556,1.) ;
#564=VECTOR('Line Direction',#563,1.) ;
#569=VECTOR('Line Direction',#568,1.) ;
#590=VECTOR('Line Direction',#589,1.) ;
#616=VECTOR('Line Direction',#615,1.) ;
#630=VECTOR('Line Direction',#629,1.) ;
#647=VECTOR('Line Direction',#646,1.) ;
#656=VECTOR('Line Direction',#655,1.) ;
#661=VECTOR('Line Direction',#660,1.) ;
#685=VECTOR('Line Direction',#684,1.) ;
#709=VECTOR('Line Direction',#708,1.) ;
#716=VECTOR('Line Direction',#715,1.) ;
#723=VECTOR('Line Direction',#722,1.) ;
#753=VECTOR('Line Direction',#752,1.) ;
#777=VECTOR('Line Direction',#776,1.) ;
#784=VECTOR('Line Direction',#783,1.) ;
#791=VECTOR('Line Direction',#790,1.) ;
#811=VECTOR('Line Direction',#810,1.) ;
#820=VECTOR('Line Direction',#819,1.) ;
#825=VECTOR('Line Direction',#824,1.) ;
#837=VECTOR('Line Direction',#836,1.) ;
#844=VECTOR('Line Direction',#843,1.) ;
#877=VECTOR('Line Direction',#876,1.) ;
#922=VECTOR('Line Direction',#921,1.) ;
#972=VECTOR('Line Direction',#971,1.) ;
#990=VECTOR('Line Direction',#989,1.) ;
#1011=VECTOR('Line Direction',#1010,1.) ;
#1020=VECTOR('Line Direction',#1019,1.) ;
#1025=VECTOR('Line Direction',#1024,1.) ;
#1103=ADVANCED_BREP_SHAPE_REPRESENTATION('NONE',(#1102),#46) ;
#49=SHAPE_REPRESENTATION(' ',(#48),#46) ;
#91=ADVANCED_FACE('\X2\96F64EF651E04F554F53\X0\',(#90),#56,.F.) ;
#128=ADVANCED_FACE('\X2\96F64EF651E04F554F53\X0\',(#127),#102,.T.) ;
#162=ADVANCED_FACE('\X2\96F64EF651E04F554F53\X0\',(#161),#133,.F.) ;
#202=ADVANCED_FACE('\X2\96F64EF651E04F554F53\X0\',(#201),#167,.F.) ;
#239=ADVANCED_FACE('\X2\96F64EF651E04F554F53\X0\',(#238),#213,.T.) ;
#270=ADVANCED_FACE('\X2\96F64EF651E04F554F53\X0\',(#269),#244,.F.) ;
#312=ADVANCED_FACE('\X2\96F64EF651E04F554F53\X0\',(#311),#275,.T.) ;
#352=ADVANCED_FACE('\X2\96F64EF651E04F554F53\X0\',(#351),#317,.T.) ;
#383=ADVANCED_FACE('\X2\96F64EF651E04F554F53\X0\',(#382),#357,.T.) ;
#424=ADVANCED_FACE('\X2\96F64EF651E04F554F53\X0\',(#423),#388,.T.) ;
#458=ADVANCED_FACE('\X2\96F64EF651E04F554F53\X0\',(#457),#429,.F.) ;
#482=ADVANCED_FACE('\X2\96F64EF651E04F554F53\X0\',(#481),#463,.T.) ;
#516=ADVANCED_FACE('\X2\96F64EF651E04F554F53\X0\',(#515),#388,.T.) ;
#539=ADVANCED_FACE('\X2\96F64EF651E04F554F53\X0\',(#538),#521,.F.) ;
#582=ADVANCED_FACE('\X2\96F64EF651E04F554F53\X0\',(#581),#544,.F.) ;
#599=ADVANCED_FACE('\X2\96F64EF651E04F554F53\X0\',(#598),#587,.T.) ;
#639=ADVANCED_FACE('\X2\96F64EF651E04F554F53\X0\',(#638),#604,.T.) ;
#670=ADVANCED_FACE('\X2\96F64EF651E04F554F53\X0\',(#669),#644,.F.) ;
#701=ADVANCED_FACE('\X2\96F64EF651E04F554F53\X0\',(#700),#675,.T.) ;
#738=ADVANCED_FACE('\X2\96F64EF651E04F554F53\X0\',(#737),#706,.T.) ;
#769=ADVANCED_FACE('\X2\96F64EF651E04F554F53\X0\',(#768),#743,.T.) ;
#803=ADVANCED_FACE('\X2\96F64EF651E04F554F53\X0\',(#802),#774,.T.) ;
#834=ADVANCED_FACE('\X2\96F64EF651E04F554F53\X0\',(#833),#808,.F.) ;
#864=ADVANCED_FACE('\X2\96F64EF651E04F554F53\X0\',(#863),#317,.T.) ;
#892=ADVANCED_FACE('\X2\96F64EF651E04F554F53\X0\',(#891),#869,.F.) ;
#904=ADVANCED_FACE('\X2\96F64EF651E04F554F53\X0\',(#903),#897,.T.) ;
#946=ADVANCED_FACE('\X2\96F64EF651E04F554F53\X0\',(#945),#909,.F.) ;
#982=ADVANCED_FACE('\X2\96F64EF651E04F554F53\X0\',(#981),#951,.F.) ;
#1003=ADVANCED_FACE('\X2\96F64EF651E04F554F53\X0\',(#1002),#987,.F.) ;
#1034=ADVANCED_FACE('\X2\96F64EF651E04F554F53\X0\',(#1033),#1008,.F.) ;
#1062=ADVANCED_FACE('\X2\96F64EF651E04F554F53\X0\',(#1061),#1039,.F.) ;
#1087=ADVANCED_FACE('\X2\96F64EF651E04F554F53\X0\',(#1086),#1067,.T.) ;
#1101=ADVANCED_FACE('\X2\96F64EF651E04F554F53\X0\',(#1100),#1092,.T.) ;
#4=APPLICATION_PROTOCOL_DEFINITION('international standard','config_control_design',1994,#1) ;
#32=APPROVAL_DATE_TIME(#13,#21) ;
#101=AXIS1_PLACEMENT('Revolution Surface Axis1P',#99,#100) ;
#212=AXIS1_PLACEMENT('Revolution Surface Axis1P',#210,#211) ;
#92=B_SPLINE_CURVE_WITH_KNOTS('',5,(#93,#94,#95,#96,#97,#98),.UNSPECIFIED.,.F.,.U.,(6,6),(-4.71238898037,1.4788170688E-012),.UNSPECIFIED.) ;
#134=B_SPLINE_CURVE_WITH_KNOTS('',5,(#135,#136,#137,#138,#139,#140),.UNSPECIFIED.,.F.,.U.,(6,6),(0.,6.66396893902),.UNSPECIFIED.) ;
#203=B_SPLINE_CURVE_WITH_KNOTS('',5,(#204,#205,#206,#207,#208,#209),.UNSPECIFIED.,.F.,.U.,(6,6),(-4.71238898039,4.905409412E-012),.UNSPECIFIED.) ;
#276=B_SPLINE_CURVE_WITH_KNOTS('',4,(#277,#278,#279,#280,#281),.UNSPECIFIED.,.F.,.U.,(5,5),(0.,8.41655558854),.UNSPECIFIED.) ;
#403=B_SPLINE_CURVE_WITH_KNOTS('',5,(#404,#405,#406,#407,#408,#409,#410,#411,#412,#413,#414,#415),.UNSPECIFIED.,.F.,.U.,(6,3,3,6),(0.,7.32075682214,14.6429887472,22.2141133428),.UNSPECIFIED.) ;
#529=B_SPLINE_CURVE_WITH_KNOTS('',1,(#530,#531),.UNSPECIFIED.,.F.,.U.,(2,2),(-14.2296703857,12.7703296143),.UNSPECIFIED.) ;
#545=B_SPLINE_CURVE_WITH_KNOTS('',5,(#546,#547,#548,#549,#550,#551),.UNSPECIFIED.,.F.,.U.,(6,6),(0.,5.38115248744),.UNSPECIFIED.) ;
#910=B_SPLINE_CURVE_WITH_KNOTS('',3,(#911,#912,#913,#914),.UNSPECIFIED.,.F.,.U.,(4,4),(0.,0.17637714825),.UNSPECIFIED.) ;
#925=B_SPLINE_CURVE_WITH_KNOTS('',5,(#926,#927,#928,#929,#930,#931,#932,#933,#934,#935,#936,#937),.UNSPECIFIED.,.F.,.U.,(6,3,3,6),(0.,3.33825568674,4.89322918986,7.40980803399),.UNSPECIFIED.) ;
#952=B_SPLINE_CURVE_WITH_KNOTS('',3,(#953,#954,#955,#956),.UNSPECIFIED.,.F.,.U.,(4,4),(0.,1.60782762069),.UNSPECIFIED.) ;
#962=B_SPLINE_CURVE_WITH_KNOTS('',5,(#963,#964,#965,#966,#967,#968),.UNSPECIFIED.,.F.,.U.,(6,6),(1.55983523596,7.58654044681),.UNSPECIFIED.) ;
#1040=B_SPLINE_CURVE_WITH_KNOTS('',5,(#1041,#1042,#1043,#1044,#1045,#1046,#1047,#1048,#1049,#1050,#1051,#1052),.UNSPECIFIED.,.F.,.U.,(6,3,3,6),(0.,1.66503549598,4.80373446617,5.97797084193),.UNSPECIFIED.) ;
#1068=B_SPLINE_CURVE_WITH_KNOTS('',5,(#1069,#1070,#1071,#1072,#1073,#1074,#1075,#1076,#1077),.UNSPECIFIED.,.F.,.U.,(6,3,6),(0.,2.66290777992,4.74073978634),.UNSPECIFIED.) ;
#1102=MANIFOLD_SOLID_BREP('\X2\96F64EF651E04F554F53\X0\',#51) ;
#11=CALENDAR_DATE(2026,10,8) ;
#30=CC_DESIGN_APPROVAL(#21,(#16,#6,#14)) ;
#18=CC_DESIGN_DATE_AND_TIME_ASSIGNMENT(#13,#17,(#16)) ;
#29=CC_DESIGN_DATE_AND_TIME_ASSIGNMENT(#13,#28,(#14)) ;
#17=DATE_TIME_ROLE('classification_date') ;
#28=DATE_TIME_ROLE('creation_date') ;
#27=CC_DESIGN_PERSON_AND_ORGANIZATION_ASSIGNMENT(#25,#26,(#16)) ;
#33=CC_DESIGN_PERSON_AND_ORGANIZATION_ASSIGNMENT(#25,#34,(#6)) ;
#35=CC_DESIGN_PERSON_AND_ORGANIZATION_ASSIGNMENT(#25,#36,(#6,#14)) ;
#37=CC_DESIGN_PERSON_AND_ORGANIZATION_ASSIGNMENT(#25,#38,(#5)) ;
#26=PERSON_AND_ORGANIZATION_ROLE('classification_officer') ;
#34=PERSON_AND_ORGANIZATION_ROLE('design_supplier') ;
#36=PERSON_AND_ORGANIZATION_ROLE('creator') ;
#38=PERSON_AND_ORGANIZATION_ROLE('design_owner') ;
#39=CC_DESIGN_SECURITY_CLASSIFICATION(#16,(#6)) ;
#60=CIRCLE('generated circle',#59,5.) ;
#76=CIRCLE('generated circle',#75,5.) ;
#106=CIRCLE('generated circle',#105,2.00000000001) ;
#115=CIRCLE('generated circle',#114,3.) ;
#120=CIRCLE('generated circle',#119,3.) ;
#171=CIRCLE('generated circle',#170,5.) ;
#187=CIRCLE('generated circle',#186,5.) ;
#217=CIRCLE('generated circle',#216,1.99999999999) ;
#226=CIRCLE('generated circle',#225,3.) ;
#231=CIRCLE('generated circle',#230,3.) ;
#248=CIRCLE('generated circle',#247,3.) ;
#297=CIRCLE('generated circle',#296,5.) ;
#342=CIRCLE('generated circle',#341,5.) ;
#368=CIRCLE('generated circle',#367,5.) ;
#474=CIRCLE('generated circle',#473,10.) ;
#505=CIRCLE('generated circle',#504,10.) ;
#608=CIRCLE('generated circle',#607,10.) ;
#624=CIRCLE('generated circle',#623,10.) ;
#679=CIRCLE('generated circle',#678,10.) ;
#693=CIRCLE('generated circle',#692,10.) ;
#747=CIRCLE('generated circle',#746,10.) ;
#761=CIRCLE('generated circle',#760,10.) ;
#850=CIRCLE('generated circle',#849,10.) ;
#873=CIRCLE('generated circle',#872,10.) ;
#1104=SHAPE_REPRESENTATION_RELATIONSHIP(' ',' ',#49,#1103) ;
#56=CYLINDRICAL_SURFACE('generated cylinder',#55,5.) ;
#133=CYLINDRICAL_SURFACE('generated cylinder',#132,3.) ;
#167=CYLINDRICAL_SURFACE('generated cylinder',#166,5.) ;
#244=CYLINDRICAL_SURFACE('generated cylinder',#243,3.) ;
#275=CYLINDRICAL_SURFACE('generated cylinder',#274,5.) ;
#357=CYLINDRICAL_SURFACE('generated cylinder',#356,5.) ;
#463=CYLINDRICAL_SURFACE('generated cylinder',#462,10.) ;
#587=CYLINDRICAL_SURFACE('generated cylinder',#586,10.) ;
#604=CYLINDRICAL_SURFACE('generated cylinder',#603,10.) ;
#675=CYLINDRICAL_SURFACE('generated cylinder',#674,10.) ;
#743=CYLINDRICAL_SURFACE('generated cylinder',#742,10.) ;
#897=CYLINDRICAL_SURFACE('generated cylinder',#896,10.) ;
#909=CYLINDRICAL_SURFACE('generated cylinder',#908,3.) ;
#951=CYLINDRICAL_SURFACE('generated cylinder',#950,3.) ;
#1092=CYLINDRICAL_SURFACE('generated cylinder',#1091,3.) ;
#3=DESIGN_CONTEXT(' ',#1,'design') ;
#65=EDGE_CURVE('',#62,#64,#60,.T.) ;
#72=EDGE_CURVE('',#64,#71,#69,.F.) ;
#79=EDGE_CURVE('',#78,#71,#76,.T.) ;
#84=EDGE_CURVE('',#62,#78,#83,.F.) ;
#111=EDGE_CURVE('',#108,#110,#106,.F.) ;
#116=EDGE_CURVE('',#110,#64,#115,.T.) ;
#121=EDGE_CURVE('',#108,#62,#120,.T.) ;
#145=EDGE_CURVE('',#142,#144,#134,.F.) ;
#150=EDGE_CURVE('',#142,#108,#149,.F.) ;
#155=EDGE_CURVE('',#144,#62,#154,.F.) ;
#176=EDGE_CURVE('',#173,#175,#171,.T.) ;
#183=EDGE_CURVE('',#175,#182,#180,.F.) ;
#190=EDGE_CURVE('',#189,#182,#187,.T.) ;
#195=EDGE_CURVE('',#173,#189,#194,.F.) ;
#222=EDGE_CURVE('',#219,#221,#217,.F.) ;
#227=EDGE_CURVE('',#221,#175,#226,.T.) ;
#232=EDGE_CURVE('',#219,#173,#231,.T.) ;
#253=EDGE_CURVE('',#250,#252,#248,.T.) ;
#258=EDGE_CURVE('',#175,#250,#257,.F.) ;
#263=EDGE_CURVE('',#221,#252,#262,.F.) ;
#286=EDGE_CURVE('',#283,#285,#276,.T.) ;
#293=EDGE_CURVE('',#292,#285,#290,.F.) ;
#300=EDGE_CURVE('',#292,#299,#297,.F.) ;
#305=EDGE_CURVE('',#299,#283,#304,.F.) ;
#326=EDGE_CURVE('',#323,#325,#321,.T.) ;
#331=EDGE_CURVE('',#110,#325,#330,.T.) ;
#338=EDGE_CURVE('',#337,#142,#335,.T.) ;
#343=EDGE_CURVE('',#323,#337,#342,.F.) ;
#364=EDGE_CURVE('',#363,#337,#361,.T.) ;
#371=EDGE_CURVE('',#363,#370,#368,.T.) ;
#376=EDGE_CURVE('',#370,#323,#375,.T.) ;
#395=EDGE_CURVE('',#394,#144,#392,.T.) ;
#402=EDGE_CURVE('',#78,#401,#399,.T.) ;
#416=EDGE_CURVE('',#394,#401,#403,.T.) ;
#436=EDGE_CURVE('',#435,#394,#433,.F.) ;
#443=EDGE_CURVE('',#442,#435,#440,.T.) ;
#448=EDGE_CURVE('',#442,#363,#447,.F.) ;
#470=EDGE_CURVE('',#469,#401,#467,.F.) ;
#475=EDGE_CURVE('',#469,#435,#474,.F.) ;
#489=EDGE_CURVE('',#488,#182,#486,.T.) ;
#494=EDGE_CURVE('',#299,#250,#493,.T.) ;
#501=EDGE_CURVE('',#500,#292,#498,.F.) ;
#506=EDGE_CURVE('',#488,#500,#505,.F.) ;
#528=EDGE_CURVE('',#500,#527,#525,.F.) ;
#532=EDGE_CURVE('',#285,#527,#529,.F.) ;
#554=EDGE_CURVE('',#527,#553,#545,.T.) ;
#561=EDGE_CURVE('',#560,#283,#558,.T.) ;
#566=EDGE_CURVE('',#560,#442,#565,.F.) ;
#571=EDGE_CURVE('',#553,#469,#570,.F.) ;
#592=EDGE_CURVE('',#488,#553,#591,.F.) ;
#613=EDGE_CURVE('',#610,#612,#608,.F.) ;
#620=EDGE_CURVE('',#619,#612,#617,.T.) ;
#627=EDGE_CURVE('',#619,#626,#624,.T.) ;
#632=EDGE_CURVE('',#626,#610,#631,.T.) ;
#653=EDGE_CURVE('',#650,#652,#648,.T.) ;
#658=EDGE_CURVE('',#650,#619,#657,.F.) ;
#663=EDGE_CURVE('',#612,#652,#662,.T.) ;
#682=EDGE_CURVE('',#652,#681,#679,.F.) ;
#689=EDGE_CURVE('',#688,#681,#686,.T.) ;
#694=EDGE_CURVE('',#688,#650,#693,.T.) ;
#713=EDGE_CURVE('',#189,#712,#710,.T.) ;
#720=EDGE_CURVE('',#719,#71,#717,.F.) ;
#725=EDGE_CURVE('',#712,#719,#724,.F.) ;
#750=EDGE_CURVE('',#719,#749,#747,.T.) ;
#757=EDGE_CURVE('',#756,#749,#754,.F.) ;
#762=EDGE_CURVE('',#756,#712,#761,.F.) ;
#781=EDGE_CURVE('',#780,#560,#778,.T.) ;
#788=EDGE_CURVE('',#787,#252,#785,.T.) ;
#793=EDGE_CURVE('',#780,#787,#792,.T.) ;
#817=EDGE_CURVE('',#814,#816,#812,.T.) ;
#822=EDGE_CURVE('',#816,#610,#821,.T.) ;
#827=EDGE_CURVE('',#626,#814,#826,.F.) ;
#841=EDGE_CURVE('',#840,#219,#838,.F.) ;
#846=EDGE_CURVE('',#681,#840,#845,.T.) ;
#851=EDGE_CURVE('',#787,#816,#850,.F.) ;
#874=EDGE_CURVE('',#814,#780,#873,.T.) ;
#879=EDGE_CURVE('',#370,#688,#878,.F.) ;
#919=EDGE_CURVE('',#916,#918,#910,.F.) ;
#924=EDGE_CURVE('',#64,#916,#923,.T.) ;
#938=EDGE_CURVE('',#918,#325,#925,.F.) ;
#961=EDGE_CURVE('',#958,#960,#952,.F.) ;
#969=EDGE_CURVE('',#840,#958,#962,.F.) ;
#974=EDGE_CURVE('',#960,#173,#973,.F.) ;
#992=EDGE_CURVE('',#958,#918,#991,.F.) ;
#1017=EDGE_CURVE('',#1014,#1016,#1012,.F.) ;
#1022=EDGE_CURVE('',#1014,#756,#1021,.T.) ;
#1027=EDGE_CURVE('',#749,#1016,#1026,.T.) ;
#1053=EDGE_CURVE('',#1016,#916,#1040,.F.) ;
#1078=EDGE_CURVE('',#960,#1014,#1068,.F.) ;
#85=EDGE_LOOP('',(#86,#87,#88,#89)) ;
#122=EDGE_LOOP('',(#123,#124,#125,#126)) ;
#156=EDGE_LOOP('',(#157,#158,#159,#160)) ;
#196=EDGE_LOOP('',(#197,#198,#199,#200)) ;
#233=EDGE_LOOP('',(#234,#235,#236,#237)) ;
#264=EDGE_LOOP('',(#265,#266,#267,#268)) ;
#306=EDGE_LOOP('',(#307,#308,#309,#310)) ;
#344=EDGE_LOOP('',(#345,#346,#347,#348,#349,#350)) ;
#377=EDGE_LOOP('',(#378,#379,#380,#381)) ;
#417=EDGE_LOOP('',(#418,#419,#420,#421,#422)) ;
#449=EDGE_LOOP('',(#450,#451,#452,#453,#454,#455,#456)) ;
#476=EDGE_LOOP('',(#477,#478,#479,#480)) ;
#507=EDGE_LOOP('',(#508,#509,#510,#511,#512,#513,#514)) ;
#533=EDGE_LOOP('',(#534,#535,#536,#537)) ;
#572=EDGE_LOOP('',(#573,#574,#575,#576,#577,#578,#579,#580)) ;
#593=EDGE_LOOP('',(#594,#595,#596,#597)) ;
#633=EDGE_LOOP('',(#634,#635,#636,#637)) ;
#664=EDGE_LOOP('',(#665,#666,#667,#668)) ;
#695=EDGE_LOOP('',(#696,#697,#698,#699)) ;
#726=EDGE_LOOP('',(#727,#728,#729,#730,#731,#732,#733,#734,#735,#736)) ;
#763=EDGE_LOOP('',(#764,#765,#766,#767)) ;
#794=EDGE_LOOP('',(#795,#796,#797,#798,#799,#800,#801)) ;
#828=EDGE_LOOP('',(#829,#830,#831,#832)) ;
#852=EDGE_LOOP('',(#853,#854,#855,#856,#857,#858,#859,#860,#861,#862)) ;
#880=EDGE_LOOP('',(#881,#882,#883,#884,#885,#886,#887,#888,#889,#890)) ;
#898=EDGE_LOOP('',(#899,#900,#901,#902)) ;
#939=EDGE_LOOP('',(#940,#941,#942,#943,#944)) ;
#975=EDGE_LOOP('',(#976,#977,#978,#979,#980)) ;
#993=EDGE_LOOP('',(#994,#995,#996,#997,#998,#999,#1000,#1001)) ;
#1028=EDGE_LOOP('',(#1029,#1030,#1031,#1032)) ;
#1054=EDGE_LOOP('',(#1055,#1056,#1057,#1058,#1059,#1060)) ;
#1079=EDGE_LOOP('',(#1080,#1081,#1082,#1083,#1084,#1085)) ;
#1093=EDGE_LOOP('',(#1094,#1095,#1096,#1097,#1098,#1099)) ;
#90=FACE_OUTER_BOUND('',#85,.T.) ;
#127=FACE_OUTER_BOUND('',#122,.T.) ;
#161=FACE_OUTER_BOUND('',#156,.T.) ;
#201=FACE_OUTER_BOUND('',#196,.T.) ;
#238=FACE_OUTER_BOUND('',#233,.T.) ;
#269=FACE_OUTER_BOUND('',#264,.T.) ;
#311=FACE_OUTER_BOUND('',#306,.T.) ;
#351=FACE_OUTER_BOUND('',#344,.T.) ;
#382=FACE_OUTER_BOUND('',#377,.T.) ;
#423=FACE_OUTER_BOUND('',#417,.T.) ;
#457=FACE_OUTER_BOUND('',#449,.T.) ;
#481=FACE_OUTER_BOUND('',#476,.T.) ;
#515=FACE_OUTER_BOUND('',#507,.T.) ;
#538=FACE_OUTER_BOUND('',#533,.T.) ;
#581=FACE_OUTER_BOUND('',#572,.T.) ;
#598=FACE_OUTER_BOUND('',#593,.T.) ;
#638=FACE_OUTER_BOUND('',#633,.T.) ;
#669=FACE_OUTER_BOUND('',#664,.T.) ;
#700=FACE_OUTER_BOUND('',#695,.T.) ;
#737=FACE_OUTER_BOUND('',#726,.T.) ;
#768=FACE_OUTER_BOUND('',#763,.T.) ;
#802=FACE_OUTER_BOUND('',#794,.T.) ;
#833=FACE_OUTER_BOUND('',#828,.T.) ;
#863=FACE_OUTER_BOUND('',#852,.T.) ;
#891=FACE_OUTER_BOUND('',#880,.T.) ;
#903=FACE_OUTER_BOUND('',#898,.T.) ;
#945=FACE_OUTER_BOUND('',#939,.T.) ;
#981=FACE_OUTER_BOUND('',#975,.T.) ;
#1002=FACE_OUTER_BOUND('',#993,.T.) ;
#1033=FACE_OUTER_BOUND('',#1028,.T.) ;
#1061=FACE_OUTER_BOUND('',#1054,.T.) ;
#1086=FACE_OUTER_BOUND('',#1079,.T.) ;
#1100=FACE_OUTER_BOUND('',#1093,.T.) ;
#45=UNCERTAINTY_MEASURE_WITH_UNIT(LENGTH_MEASURE(0.005),#41,'distance_accuracy_value','CONFUSED CURVE UNCERTAINTY') ;
#69=LINE('Line',#66,#68) ;
#83=LINE('Line',#80,#82) ;
#149=LINE('Line',#146,#148) ;
#154=LINE('Line',#151,#153) ;
#180=LINE('Line',#177,#179) ;
#194=LINE('Line',#191,#193) ;
#257=LINE('Line',#254,#256) ;
#262=LINE('Line',#259,#261) ;
#290=LINE('Line',#287,#289) ;
#304=LINE('Line',#301,#303) ;
#321=LINE('Line',#318,#320) ;
#330=LINE('Line',#327,#329) ;
#335=LINE('Line',#332,#334) ;
#361=LINE('Line',#358,#360) ;
#375=LINE('Line',#372,#374) ;
#392=LINE('Line',#389,#391) ;
#399=LINE('Line',#396,#398) ;
#433=LINE('Line',#430,#432) ;
#440=LINE('Line',#437,#439) ;
#447=LINE('Line',#444,#446) ;
#467=LINE('Line',#464,#466) ;
#486=LINE('Line',#483,#485) ;
#493=LINE('Line',#490,#492) ;
#498=LINE('Line',#495,#497) ;
#525=LINE('Line',#522,#524) ;
#558=LINE('Line',#555,#557) ;
#565=LINE('Line',#562,#564) ;
#570=LINE('Line',#567,#569) ;
#591=LINE('Line',#588,#590) ;
#617=LINE('Line',#614,#616) ;
#631=LINE('Line',#628,#630) ;
#648=LINE('Line',#645,#647) ;
#657=LINE('Line',#654,#656) ;
#662=LINE('Line',#659,#661) ;
#686=LINE('Line',#683,#685) ;
#710=LINE('Line',#707,#709) ;
#717=LINE('Line',#714,#716) ;
#724=LINE('Line',#721,#723) ;
#754=LINE('Line',#751,#753) ;
#778=LINE('Line',#775,#777) ;
#785=LINE('Line',#782,#784) ;
#792=LINE('Line',#789,#791) ;
#812=LINE('Line',#809,#811) ;
#821=LINE('Line',#818,#820) ;
#826=LINE('Line',#823,#825) ;
#838=LINE('Line',#835,#837) ;
#845=LINE('Line',#842,#844) ;
#878=LINE('Line',#875,#877) ;
#923=LINE('Line',#920,#922) ;
#973=LINE('Line',#970,#972) ;
#991=LINE('Line',#988,#990) ;
#1012=LINE('Line',#1009,#1011) ;
#1021=LINE('Line',#1018,#1020) ;
#1026=LINE('Line',#1023,#1025) ;
#2=MECHANICAL_CONTEXT(' ',#1,'mechanical') ;
#24=PERSONAL_ADDRESS(' ',' ',' ',' ',' ',' ',' ',' ',' ',' ',' ',' ',(#22),' ') ;
#317=PLANE('',#316) ;
#388=PLANE('',#387) ;
#429=PLANE('',#428) ;
#521=PLANE('',#520) ;
#544=PLANE('',#543) ;
#644=PLANE('',#643) ;
#706=PLANE('',#705) ;
#774=PLANE('',#773) ;
#808=PLANE('',#807) ;
#869=PLANE('',#868) ;
#987=PLANE('',#986) ;
#1008=PLANE('',#1007) ;
#1039=PLANE('',#1038) ;
#1067=PLANE('',#1066) ;
#43=PLANE_ANGLE_MEASURE_WITH_UNIT(PLANE_ANGLE_MEASURE(0.0174532925199),#42) ;
#7=PRODUCT_CATEGORY('part',$) ;
#9=PRODUCT_CATEGORY_RELATIONSHIP(' ',' ',#7,#8) ;
#6=PRODUCT_DEFINITION_FORMATION_WITH_SPECIFIED_SOURCE('',' ',#5,.NOT_KNOWN.) ;
#8=PRODUCT_RELATED_PRODUCT_CATEGORY('detail',$,(#5)) ;
#50=SHAPE_DEFINITION_REPRESENTATION(#40,#49) ;
#102=SURFACE_OF_REVOLUTION('homeo Torus',#92,#101) ;
#213=SURFACE_OF_REVOLUTION('homeo Torus',#203,#212) ;
#62=VERTEX_POINT('',#61) ;
#64=VERTEX_POINT('',#63) ;
#71=VERTEX_POINT('',#70) ;
#78=VERTEX_POINT('',#77) ;
#108=VERTEX_POINT('',#107) ;
#110=VERTEX_POINT('',#109) ;
#142=VERTEX_POINT('',#141) ;
#144=VERTEX_POINT('',#143) ;
#173=VERTEX_POINT('',#172) ;
#175=VERTEX_POINT('',#174) ;
#182=VERTEX_POINT('',#181) ;
#189=VERTEX_POINT('',#188) ;
#219=VERTEX_POINT('',#218) ;
#221=VERTEX_POINT('',#220) ;
#250=VERTEX_POINT('',#249) ;
#252=VERTEX_POINT('',#251) ;
#283=VERTEX_POINT('',#282) ;
#285=VERTEX_POINT('',#284) ;
#292=VERTEX_POINT('',#291) ;
#299=VERTEX_POINT('',#298) ;
#323=VERTEX_POINT('',#322) ;
#325=VERTEX_POINT('',#324) ;
#337=VERTEX_POINT('',#336) ;
#363=VERTEX_POINT('',#362) ;
#370=VERTEX_POINT('',#369) ;
#394=VERTEX_POINT('',#393) ;
#401=VERTEX_POINT('',#400) ;
#435=VERTEX_POINT('',#434) ;
#442=VERTEX_POINT('',#441) ;
#469=VERTEX_POINT('',#468) ;
#488=VERTEX_POINT('',#487) ;
#500=VERTEX_POINT('',#499) ;
#527=VERTEX_POINT('',#526) ;
#553=VERTEX_POINT('',#552) ;
#560=VERTEX_POINT('',#559) ;
#610=VERTEX_POINT('',#609) ;
#612=VERTEX_POINT('',#611) ;
#619=VERTEX_POINT('',#618) ;
#626=VERTEX_POINT('',#625) ;
#650=VERTEX_POINT('',#649) ;
#652=VERTEX_POINT('',#651) ;
#681=VERTEX_POINT('',#680) ;
#688=VERTEX_POINT('',#687) ;
#712=VERTEX_POINT('',#711) ;
#719=VERTEX_POINT('',#718) ;
#749=VERTEX_POINT('',#748) ;
#756=VERTEX_POINT('',#755) ;
#780=VERTEX_POINT('',#779) ;
#787=VERTEX_POINT('',#786) ;
#814=VERTEX_POINT('',#813) ;
#816=VERTEX_POINT('',#815) ;
#840=VERTEX_POINT('',#839) ;
#916=VERTEX_POINT('',#915) ;
#918=VERTEX_POINT('',#917) ;
#958=VERTEX_POINT('',#957) ;
#960=VERTEX_POINT('',#959) ;
#1014=VERTEX_POINT('',#1013) ;
#1016=VERTEX_POINT('',#1015) ;
#41=(LENGTH_UNIT()NAMED_UNIT(*)SI_UNIT(.MILLI.,.METRE.)) ;
#42=(NAMED_UNIT(*)PLANE_ANGLE_UNIT()SI_UNIT($,.RADIAN.)) ;
#44=(NAMED_UNIT(*)SI_UNIT($,.STERADIAN.)SOLID_ANGLE_UNIT()) ;
#46=(GEOMETRIC_REPRESENTATION_CONTEXT(3)GLOBAL_UNCERTAINTY_ASSIGNED_CONTEXT((#45))GLOBAL_UNIT_ASSIGNED_CONTEXT((#41,#42,#44))REPRESENTATION_CONTEXT(' ',' ')) ;
ENDSEC;
END-ISO-10303-21;
