ISO-10303-21;
HEADER;
FILE_DESCRIPTION(('CATIA V5 STEP Exchange'),'2;1');

FILE_NAME('C:\\Users\\Administrator\\Desktop\\5211C33001G72\X2\673A52A04EF6\X0\.stp','2024-11-19T05:55:23+00:00',('none'),('none'),'CATIA Version 5 Release 21 GA (IN-10)','CATIA V5 STEP AP203','none');

FILE_SCHEMA(('CONFIG_CONTROL_DESIGN'));

ENDSEC;
/* file written by CATIA V5R21 */
DATA;
#5=PRODUCT('5211C33001G72','','',(#2)) ;
#1=APPLICATION_CONTEXT('configuration controlled 3D design of mechanical parts and assemblies') ;
#14=PRODUCT_DEFINITION('',' ',#6,#3) ;
#16=SECURITY_CLASSIFICATION(' ',' ',#15) ;
#15=SECURITY_CLASSIFICATION_LEVEL('unclassified') ;
#47=CARTESIAN_POINT(' ',(0.,0.,0.)) ;
#52=CARTESIAN_POINT('Axis2P3D Location',(1436.30448902,5616.33900728,1100.)) ;
#57=CARTESIAN_POINT('Line Origine',(1433.90067121,5616.54931409,1100.)) ;
#61=CARTESIAN_POINT('Vertex',(1434.05319376,5618.29265481,1100.)) ;
#63=CARTESIAN_POINT('Vertex',(1433.74814866,5614.80597336,1100.)) ;
#66=CARTESIAN_POINT('Axis2P3D Location',(1436.45701157,5618.082348,1100.)) ;
#70=CARTESIAN_POINT('Vertex',(1438.86082937,5617.87204119,1100.)) ;
#73=CARTESIAN_POINT('Line Origine',(1438.70830682,5616.12870047,1100.)) ;
#77=CARTESIAN_POINT('Vertex',(1438.55578427,5614.38535975,1100.)) ;
#80=CARTESIAN_POINT('Axis2P3D Location',(1436.15196647,5614.59566656,1100.)) ;
#92=CARTESIAN_POINT('Axis2P3D Location',(1436.45701157,5618.082348,1100.)) ;
#97=CARTESIAN_POINT('Axis2P3D Location',(1436.15196647,5614.59566656,1100.)) ;
#109=CARTESIAN_POINT('Axis2P3D Location',(1415.38440036,5618.16927788,1079.)) ;
#114=CARTESIAN_POINT('Line Origine',(1412.98058255,5618.37958468,1079.)) ;
#118=CARTESIAN_POINT('Vertex',(1413.1331051,5620.1229254,1079.)) ;
#120=CARTESIAN_POINT('Vertex',(1412.82806,5616.63624396,1079.)) ;
#123=CARTESIAN_POINT('Axis2P3D Location',(1415.53692291,5619.9126186,1079.)) ;
#127=CARTESIAN_POINT('Vertex',(1417.94074071,5619.70231179,1079.)) ;
#130=CARTESIAN_POINT('Line Origine',(1417.78821816,5617.95897107,1079.)) ;
#134=CARTESIAN_POINT('Vertex',(1417.63569561,5616.21563035,1079.)) ;
#137=CARTESIAN_POINT('Axis2P3D Location',(1415.23187781,5616.42593715,1079.)) ;
#149=CARTESIAN_POINT('Axis2P3D Location',(1415.53692291,5619.9126186,1079.)) ;
#154=CARTESIAN_POINT('Axis2P3D Location',(1415.23187781,5616.42593715,1079.)) ;
#166=CARTESIAN_POINT('Axis2P3D Location',(1394.4643117,5619.99954847,1100.)) ;
#171=CARTESIAN_POINT('Line Origine',(1392.06049389,5620.20985528,1100.)) ;
#175=CARTESIAN_POINT('Vertex',(1392.21301644,5621.953196,1100.)) ;
#177=CARTESIAN_POINT('Vertex',(1391.90797134,5618.46651456,1100.)) ;
#180=CARTESIAN_POINT('Axis2P3D Location',(1394.61683425,5621.74288919,1100.)) ;
#184=CARTESIAN_POINT('Vertex',(1397.02065205,5621.53258239,1100.)) ;
#187=CARTESIAN_POINT('Line Origine',(1396.8681295,5619.78924167,1100.)) ;
#191=CARTESIAN_POINT('Vertex',(1396.71560696,5618.04590094,1100.)) ;
#194=CARTESIAN_POINT('Axis2P3D Location',(1394.31178915,5618.25620775,1100.)) ;
#206=CARTESIAN_POINT('Axis2P3D Location',(1394.61683425,5621.74288919,1100.)) ;
#211=CARTESIAN_POINT('Axis2P3D Location',(1394.31178915,5618.25620775,1100.)) ;
#223=CARTESIAN_POINT('Axis2P3D Location',(1415.38440036,5618.16927788,1121.)) ;
#228=CARTESIAN_POINT('Line Origine',(1412.98058255,5618.37958468,1121.)) ;
#232=CARTESIAN_POINT('Vertex',(1413.1331051,5620.1229254,1121.)) ;
#234=CARTESIAN_POINT('Vertex',(1412.82806,5616.63624396,1121.)) ;
#237=CARTESIAN_POINT('Axis2P3D Location',(1415.53692291,5619.9126186,1121.)) ;
#241=CARTESIAN_POINT('Vertex',(1417.94074071,5619.70231179,1121.)) ;
#244=CARTESIAN_POINT('Line Origine',(1417.78821816,5617.95897107,1121.)) ;
#248=CARTESIAN_POINT('Vertex',(1417.63569561,5616.21563035,1121.)) ;
#251=CARTESIAN_POINT('Axis2P3D Location',(1415.23187781,5616.42593715,1121.)) ;
#263=CARTESIAN_POINT('Axis2P3D Location',(1415.53692291,5619.9126186,1121.)) ;
#268=CARTESIAN_POINT('Axis2P3D Location',(1415.23187781,5616.42593715,1121.)) ;
#280=CARTESIAN_POINT('Axis2P3D Location',(1384.16498746,5620.90062259,1131.33866598)) ;
#285=CARTESIAN_POINT('Axis2P3D Location',(1384.01246491,5619.15728186,1131.33866598)) ;
#289=CARTESIAN_POINT('Vertex',(1391.81498327,5618.47464996,1107.59725236)) ;
#291=CARTESIAN_POINT('Vertex',(1407.66353529,5617.08808133,1123.50634327)) ;
#294=CARTESIAN_POINT('Line Origine',(1407.81605784,5618.83142205,1123.50634327)) ;
#298=CARTESIAN_POINT('Vertex',(1407.96858039,5620.57476277,1123.50634327)) ;
#301=CARTESIAN_POINT('Axis2P3D Location',(1384.31751001,5622.64396331,1131.33866598)) ;
#305=CARTESIAN_POINT('Vertex',(1392.12002837,5621.9613314,1107.59725236)) ;
#308=CARTESIAN_POINT('Line Origine',(1391.96750582,5620.21799068,1107.59725236)) ;
#320=CARTESIAN_POINT('Axis2P3D Location',(1394.4643117,5619.99954847,1100.)) ;
#325=CARTESIAN_POINT('Axis2P3D Location',(1394.31178915,5618.25620775,1100.)) ;
#329=CARTESIAN_POINT('Vertex',(1391.81498327,5618.47464996,1092.40274764)) ;
#332=CARTESIAN_POINT('Axis2P3D Location',(1394.61683425,5621.74288919,1100.)) ;
#336=CARTESIAN_POINT('Vertex',(1392.12002837,5621.9613314,1092.40274764)) ;
#339=CARTESIAN_POINT('Line Origine',(1391.96750582,5620.21799068,1092.40274764)) ;
#351=CARTESIAN_POINT('Axis2P3D Location',(1384.16498746,5620.90062259,1068.66133402)) ;
#356=CARTESIAN_POINT('Axis2P3D Location',(1384.01246491,5619.15728186,1068.66133402)) ;
#360=CARTESIAN_POINT('Vertex',(1407.66353529,5617.08808133,1076.49365673)) ;
#363=CARTESIAN_POINT('Axis2P3D Location',(1384.31751001,5622.64396331,1068.66133402)) ;
#367=CARTESIAN_POINT('Vertex',(1407.96858039,5620.57476277,1076.49365673)) ;
#370=CARTESIAN_POINT('Line Origine',(1407.81605784,5618.83142205,1076.49365673)) ;
#382=CARTESIAN_POINT('Axis2P3D Location',(1415.38440036,5618.16927788,1079.)) ;
#387=CARTESIAN_POINT('Axis2P3D Location',(1415.23187781,5616.42593715,1079.)) ;
#391=CARTESIAN_POINT('Vertex',(1422.80022033,5615.76379298,1076.49365673)) ;
#394=CARTESIAN_POINT('Axis2P3D Location',(1415.53692291,5619.9126186,1079.)) ;
#398=CARTESIAN_POINT('Vertex',(1423.10526543,5619.25047442,1076.49365673)) ;
#401=CARTESIAN_POINT('Line Origine',(1422.95274288,5617.5071337,1076.49365673)) ;
#413=CARTESIAN_POINT('Axis2P3D Location',(1446.60381326,5615.43793316,1068.66133402)) ;
#418=CARTESIAN_POINT('Axis2P3D Location',(1446.45129071,5613.69459244,1068.66133402)) ;
#422=CARTESIAN_POINT('Vertex',(1438.64877234,5614.37722435,1092.40274764)) ;
#425=CARTESIAN_POINT('Axis2P3D Location',(1446.75633581,5617.18127389,1068.66133402)) ;
#429=CARTESIAN_POINT('Vertex',(1438.95381744,5617.86390579,1092.40274764)) ;
#432=CARTESIAN_POINT('Line Origine',(1438.80129489,5616.12056507,1092.40274764)) ;
#444=CARTESIAN_POINT('Axis2P3D Location',(1436.30448902,5616.33900728,1100.)) ;
#449=CARTESIAN_POINT('Axis2P3D Location',(1436.15196647,5614.59566656,1100.)) ;
#453=CARTESIAN_POINT('Vertex',(1438.64877234,5614.37722435,1107.59725236)) ;
#456=CARTESIAN_POINT('Axis2P3D Location',(1436.45701157,5618.082348,1100.)) ;
#460=CARTESIAN_POINT('Vertex',(1438.95381744,5617.86390579,1107.59725236)) ;
#463=CARTESIAN_POINT('Line Origine',(1438.80129489,5616.12056507,1107.59725236)) ;
#475=CARTESIAN_POINT('Axis2P3D Location',(1446.60381326,5615.43793316,1131.33866598)) ;
#480=CARTESIAN_POINT('Axis2P3D Location',(1446.45129071,5613.69459244,1131.33866598)) ;
#484=CARTESIAN_POINT('Vertex',(1422.80021855,5615.76379314,1123.50634869)) ;
#487=CARTESIAN_POINT('Axis2P3D Location',(1446.75633581,5617.18127389,1131.33866598)) ;
#491=CARTESIAN_POINT('Vertex',(1423.10526365,5619.25047458,1123.50634869)) ;
#494=CARTESIAN_POINT('Line Origine',(1422.9527411,5617.50713386,1123.50634869)) ;
#506=CARTESIAN_POINT('Axis2P3D Location',(1415.38440036,5618.16927788,1121.)) ;
#511=CARTESIAN_POINT('Axis2P3D Location',(1415.23187781,5616.42593715,1121.)) ;
#516=CARTESIAN_POINT('Axis2P3D Location',(1415.53692291,5619.9126186,1121.)) ;
#528=CARTESIAN_POINT('Axis2P3D Location',(1414.64793433,5609.75143268,1100.)) ;
#533=CARTESIAN_POINT('Line Origine',(1405.1840847,5610.57941223,1100.)) ;
#537=CARTESIAN_POINT('Vertex',(1405.24509372,5611.27674852,1100.)) ;
#539=CARTESIAN_POINT('Vertex',(1404.60014122,5603.90490776,1100.)) ;
#542=CARTESIAN_POINT('Axis2P3D Location',(1414.06399086,5603.0769282,1100.)) ;
#546=CARTESIAN_POINT('Vertex',(1423.52784049,5602.24894864,1100.)) ;
#549=CARTESIAN_POINT('Line Origine',(1424.11178396,5608.92345312,1100.)) ;
#553=CARTESIAN_POINT('Vertex',(1424.17279298,5609.62078941,1100.)) ;
#556=CARTESIAN_POINT('Axis2P3D Location',(1414.70894335,5610.44876897,1100.)) ;
#568=CARTESIAN_POINT('Axis2P3D Location',(1414.06399086,5603.0769282,1100.)) ;
#573=CARTESIAN_POINT('Axis2P3D Location',(1414.70894335,5610.44876897,1100.)) ;
#585=CARTESIAN_POINT('Axis2P3D Location',(498.39134061,5696.63909042,0.)) ;
#600=CARTESIAN_POINT('Axis2P3D Location',(1415.23187781,5616.42593715,1100.)) ;
#604=CARTESIAN_POINT('Vertex',(1430.67289563,5615.07502314,1100.)) ;
#606=CARTESIAN_POINT('Vertex',(1399.79085999,5617.77685117,1099.99999994)) ;
#609=CARTESIAN_POINT('Axis2P3D Location',(1415.23187781,5616.42593715,1100.)) ;
#635=CARTESIAN_POINT('Axis2P3D Location',(1414.70894335,5610.44876897,1100.)) ;
#640=CARTESIAN_POINT('Axis2P3D Location',(1399.26792553,5611.79968298,1099.99999994)) ;
#645=CARTESIAN_POINT('Axis2P3D Location',(1430.14996117,5609.09785495,1100.)) ;
#657=CARTESIAN_POINT('Axis2P3D Location',(1414.70894335,5610.44876897,1100.)) ;
#669=CARTESIAN_POINT('Axis2P3D Location',(497.223453658,5683.29008147,0.)) ;
#678=CARTESIAN_POINT('Axis2P3D Location',(1414.06399086,5603.0769282,1100.)) ;
#682=CARTESIAN_POINT('Vertex',(1408.83396869,5603.53449585,1099.99999996)) ;
#684=CARTESIAN_POINT('Vertex',(1419.29401302,5602.61936055,1100.)) ;
#687=CARTESIAN_POINT('Axis2P3D Location',(1414.06399086,5603.0769282,1100.)) ;
#697=CARTESIAN_POINT('Axis2P3D Location',(1414.52155851,5608.30695036,1100.)) ;
#702=CARTESIAN_POINT('Line Origine',(1419.06675328,5602.89019816,1100.)) ;
#706=CARTESIAN_POINT('Vertex',(1418.83949354,5603.16103577,1100.)) ;
#709=CARTESIAN_POINT('Line Origine',(1409.1048063,5603.76175559,1099.99999997)) ;
#713=CARTESIAN_POINT('Vertex',(1409.37564391,5603.98901533,1100.)) ;
#716=CARTESIAN_POINT('Axis2P3D Location',(1414.10756873,5603.57502555,1100.)) ;
#728=CARTESIAN_POINT('Axis2P3D Location',(1414.52155851,5608.30695036,1100.)) ;
#733=CARTESIAN_POINT('Axis2P3D Location',(1414.10756873,5603.57502555,1100.)) ;
#745=CARTESIAN_POINT('Axis2P3D Location',(498.69638571,5700.12577186,0.)) ;
#760=CARTESIAN_POINT('Axis2P3D Location',(1415.53692291,5619.9126186,1100.)) ;
#764=CARTESIAN_POINT('Vertex',(1420.76694507,5619.45505095,1100.)) ;
#766=CARTESIAN_POINT('Vertex',(1410.30690074,5620.37018625,1099.9999997)) ;
#769=CARTESIAN_POINT('Axis2P3D Location',(1415.53692291,5619.9126186,1100.)) ;
#795=CARTESIAN_POINT('Axis2P3D Location',(1415.80710571,5623.00082216,1100.)) ;
#800=CARTESIAN_POINT('Axis2P3D Location',(1415.49334504,5619.41452125,1100.)) ;
#804=CARTESIAN_POINT('Vertex',(1420.22526985,5619.00053147,1100.)) ;
#806=CARTESIAN_POINT('Vertex',(1410.76142022,5619.82851103,1100.)) ;
#809=CARTESIAN_POINT('Line Origine',(1411.07518089,5623.41481194,1100.)) ;
#814=CARTESIAN_POINT('Line Origine',(1420.53903053,5622.58683238,1100.)) ;
#826=CARTESIAN_POINT('Axis2P3D Location',(1415.49334504,5619.41452125,1100.)) ;
#838=CARTESIAN_POINT('Axis2P3D Location',(1415.07935526,5614.68259643,1100.)) ;
#843=CARTESIAN_POINT('Line Origine',(1410.53416048,5620.09934864,1099.9999993)) ;
#848=CARTESIAN_POINT('Line Origine',(1420.49610746,5619.22779121,1100.)) ;
#860=CARTESIAN_POINT('Axis2P3D Location',(1415.07935526,5614.68259643,1100.)) ;
#53=DIRECTION('Axis2P3D Direction',(0.0871557427477,0.996194698092,-0.)) ;
#54=DIRECTION('Axis2P3D XDirection',(-0.996194698092,0.0871557427477,2.40977749336E-014)) ;
#58=DIRECTION('Vector Direction',(0.0871557427477,0.996194698092,0.)) ;
#67=DIRECTION('Axis2P3D Direction',(0.0871557427477,0.996194698092,-0.)) ;
#74=DIRECTION('Vector Direction',(0.0871557427477,0.996194698092,0.)) ;
#81=DIRECTION('Axis2P3D Direction',(0.0871557427477,0.996194698092,-0.)) ;
#93=DIRECTION('Axis2P3D Direction',(0.0871557427477,0.996194698092,-0.)) ;
#98=DIRECTION('Axis2P3D Direction',(0.0871557427477,0.996194698092,-0.)) ;
#110=DIRECTION('Axis2P3D Direction',(0.0871557427477,0.996194698092,-0.)) ;
#111=DIRECTION('Axis2P3D XDirection',(-0.996194698092,0.0871557427477,3.23105726914E-014)) ;
#115=DIRECTION('Vector Direction',(0.0871557427477,0.996194698092,0.)) ;
#124=DIRECTION('Axis2P3D Direction',(0.0871557427477,0.996194698092,-0.)) ;
#131=DIRECTION('Vector Direction',(0.0871557427477,0.996194698092,0.)) ;
#138=DIRECTION('Axis2P3D Direction',(0.0871557427477,0.996194698092,-0.)) ;
#150=DIRECTION('Axis2P3D Direction',(0.0871557427477,0.996194698092,-0.)) ;
#155=DIRECTION('Axis2P3D Direction',(0.0871557427477,0.996194698092,-0.)) ;
#167=DIRECTION('Axis2P3D Direction',(0.0871557427477,0.996194698092,-0.)) ;
#168=DIRECTION('Axis2P3D XDirection',(-0.996194698092,0.0871557427477,1.58849771758E-014)) ;
#172=DIRECTION('Vector Direction',(0.0871557427477,0.996194698092,0.)) ;
#181=DIRECTION('Axis2P3D Direction',(0.0871557427477,0.996194698092,-0.)) ;
#188=DIRECTION('Vector Direction',(0.0871557427477,0.996194698092,0.)) ;
#195=DIRECTION('Axis2P3D Direction',(0.0871557427477,0.996194698092,-0.)) ;
#207=DIRECTION('Axis2P3D Direction',(0.0871557427477,0.996194698092,-0.)) ;
#212=DIRECTION('Axis2P3D Direction',(0.0871557427477,0.996194698092,-0.)) ;
#224=DIRECTION('Axis2P3D Direction',(0.0871557427477,0.996194698092,-0.)) ;
#225=DIRECTION('Axis2P3D XDirection',(-0.996194698092,0.0871557427477,3.23105726914E-014)) ;
#229=DIRECTION('Vector Direction',(0.0871557427477,0.996194698092,0.)) ;
#238=DIRECTION('Axis2P3D Direction',(0.0871557427477,0.996194698092,-0.)) ;
#245=DIRECTION('Vector Direction',(0.0871557427477,0.996194698092,0.)) ;
#252=DIRECTION('Axis2P3D Direction',(0.0871557427477,0.996194698092,-0.)) ;
#264=DIRECTION('Axis2P3D Direction',(0.0871557427477,0.996194698092,-0.)) ;
#269=DIRECTION('Axis2P3D Direction',(0.0871557427477,0.996194698092,-0.)) ;
#281=DIRECTION('Axis2P3D Direction',(0.0871557427477,0.996194698092,-0.)) ;
#282=DIRECTION('Axis2P3D XDirection',(0.946042815112,-0.0827680215325,-0.313292908611)) ;
#286=DIRECTION('Axis2P3D Direction',(0.0871557427477,0.996194698092,-0.)) ;
#295=DIRECTION('Vector Direction',(0.0871557427477,0.996194698092,0.)) ;
#302=DIRECTION('Axis2P3D Direction',(0.0871557427477,0.996194698092,-0.)) ;
#309=DIRECTION('Vector Direction',(0.0871557427477,0.996194698092,0.)) ;
#321=DIRECTION('Axis2P3D Direction',(0.0871557427477,0.996194698092,-0.)) ;
#322=DIRECTION('Axis2P3D XDirection',(-0.312100734508,0.0273052761476,-0.949656544975)) ;
#326=DIRECTION('Axis2P3D Direction',(0.0871557427477,0.996194698092,-0.)) ;
#333=DIRECTION('Axis2P3D Direction',(0.0871557427477,0.996194698092,-0.)) ;
#340=DIRECTION('Vector Direction',(0.0871557427477,0.996194698092,0.)) ;
#352=DIRECTION('Axis2P3D Direction',(0.0871557427477,0.996194698092,-0.)) ;
#353=DIRECTION('Axis2P3D XDirection',(0.312100734508,-0.0273052761476,0.949656544975)) ;
#357=DIRECTION('Axis2P3D Direction',(0.0871557427477,0.996194698092,-0.)) ;
#364=DIRECTION('Axis2P3D Direction',(0.0871557427477,0.996194698092,-0.)) ;
#371=DIRECTION('Vector Direction',(0.0871557427477,0.996194698092,0.)) ;
#383=DIRECTION('Axis2P3D Direction',(0.0871557427477,0.996194698092,-0.)) ;
#384=DIRECTION('Axis2P3D XDirection',(0.946042815112,-0.0827680215325,-0.313292908611)) ;
#388=DIRECTION('Axis2P3D Direction',(0.0871557427477,0.996194698092,-0.)) ;
#395=DIRECTION('Axis2P3D Direction',(0.0871557427477,0.996194698092,-0.)) ;
#402=DIRECTION('Vector Direction',(0.0871557427477,0.996194698092,0.)) ;
#414=DIRECTION('Axis2P3D Direction',(0.0871557427477,0.996194698092,-0.)) ;
#415=DIRECTION('Axis2P3D XDirection',(-0.946042815112,0.0827680215325,0.313292908611)) ;
#419=DIRECTION('Axis2P3D Direction',(0.0871557427477,0.996194698092,-0.)) ;
#426=DIRECTION('Axis2P3D Direction',(0.0871557427477,0.996194698092,-0.)) ;
#433=DIRECTION('Vector Direction',(0.0871557427477,0.996194698092,0.)) ;
#445=DIRECTION('Axis2P3D Direction',(0.0871557427477,0.996194698092,-0.)) ;
#446=DIRECTION('Axis2P3D XDirection',(0.312100734508,-0.0273052761476,0.949656544975)) ;
#450=DIRECTION('Axis2P3D Direction',(0.0871557427477,0.996194698092,-0.)) ;
#457=DIRECTION('Axis2P3D Direction',(0.0871557427477,0.996194698092,-0.)) ;
#464=DIRECTION('Vector Direction',(0.0871557427477,0.996194698092,0.)) ;
#476=DIRECTION('Axis2P3D Direction',(0.0871557427477,0.996194698092,-0.)) ;
#477=DIRECTION('Axis2P3D XDirection',(-0.312100734508,0.0273052761476,-0.949656544975)) ;
#481=DIRECTION('Axis2P3D Direction',(0.0871557427477,0.996194698092,-0.)) ;
#488=DIRECTION('Axis2P3D Direction',(0.0871557427477,0.996194698092,-0.)) ;
#495=DIRECTION('Vector Direction',(0.0871557427477,0.996194698092,0.)) ;
#507=DIRECTION('Axis2P3D Direction',(0.0871557427477,0.996194698092,-0.)) ;
#508=DIRECTION('Axis2P3D XDirection',(-0.946042815112,0.0827680215325,0.313292908611)) ;
#512=DIRECTION('Axis2P3D Direction',(0.0871557427477,0.996194698092,-0.)) ;
#517=DIRECTION('Axis2P3D Direction',(0.0871557427477,0.996194698092,-0.)) ;
#529=DIRECTION('Axis2P3D Direction',(-0.0871557427477,-0.996194698092,0.)) ;
#530=DIRECTION('Axis2P3D XDirection',(0.996194698092,-0.0871557427477,7.53432404185E-014)) ;
#534=DIRECTION('Vector Direction',(-0.0871557427477,-0.996194698092,0.)) ;
#543=DIRECTION('Axis2P3D Direction',(-0.0871557427477,-0.996194698092,0.)) ;
#550=DIRECTION('Vector Direction',(-0.0871557427477,-0.996194698092,0.)) ;
#557=DIRECTION('Axis2P3D Direction',(-0.0871557427477,-0.996194698092,0.)) ;
#569=DIRECTION('Axis2P3D Direction',(-0.0871557427477,-0.996194698092,0.)) ;
#574=DIRECTION('Axis2P3D Direction',(-0.0871557427477,-0.996194698092,0.)) ;
#586=DIRECTION('Axis2P3D Direction',(0.0871557427477,0.996194698092,-0.)) ;
#587=DIRECTION('Axis2P3D XDirection',(-0.996194698092,0.0871557427477,0.)) ;
#601=DIRECTION('Axis2P3D Direction',(0.0871557427477,0.996194698092,-0.)) ;
#610=DIRECTION('Axis2P3D Direction',(0.0871557427477,0.996194698092,-0.)) ;
#636=DIRECTION('Axis2P3D Direction',(0.0871557427476,0.996194698092,-8.36136715421E-015)) ;
#637=DIRECTION('Axis2P3D XDirection',(0.996194698092,-0.0871557427477,7.33463469172E-014)) ;
#641=DIRECTION('Axis2P3D Direction',(3.57406548563E-009,-3.12698605998E-010,-1.)) ;
#646=DIRECTION('Axis2P3D Direction',(-7.56404408172E-014,1.5010987294E-014,1.)) ;
#658=DIRECTION('Axis2P3D Direction',(0.0871557427476,0.996194698092,-6.0437765903E-015)) ;
#659=DIRECTION('Axis2P3D XDirection',(-0.887568559745,0.0776521870797,-0.454083901491)) ;
#670=DIRECTION('Axis2P3D Direction',(-0.0871557427477,-0.996194698092,0.)) ;
#671=DIRECTION('Axis2P3D XDirection',(0.996194698092,-0.0871557427477,0.)) ;
#679=DIRECTION('Axis2P3D Direction',(-0.0871557427477,-0.996194698092,0.)) ;
#688=DIRECTION('Axis2P3D Direction',(-0.0871557427477,-0.996194698092,0.)) ;
#698=DIRECTION('Axis2P3D Direction',(-0.0871557427477,-0.996194698092,4.54747350887E-013)) ;
#699=DIRECTION('Axis2P3D XDirection',(0.996194698092,-0.0871557427477,-4.33092696029E-014)) ;
#703=DIRECTION('Vector Direction',(0.642787609687,-0.766044443119,3.21554935538E-013)) ;
#710=DIRECTION('Vector Direction',(-0.766044443119,-0.642787609687,-4.82171625839E-009)) ;
#717=DIRECTION('Axis2P3D Direction',(-0.0871557427476,-0.996194698092,4.54747350887E-013)) ;
#729=DIRECTION('Axis2P3D Direction',(-0.0871557427476,-0.996194698092,-0.)) ;
#730=DIRECTION('Axis2P3D XDirection',(-0.975742953048,0.0853664469069,0.201589333349)) ;
#734=DIRECTION('Axis2P3D Direction',(-0.0871557427477,-0.996194698092,2.99274494076E-014)) ;
#746=DIRECTION('Axis2P3D Direction',(0.0871557427477,0.996194698092,-0.)) ;
#747=DIRECTION('Axis2P3D XDirection',(-0.996194698092,0.0871557427477,0.)) ;
#761=DIRECTION('Axis2P3D Direction',(0.0871557427477,0.996194698092,-0.)) ;
#770=DIRECTION('Axis2P3D Direction',(0.0871557427477,0.996194698092,-0.)) ;
#796=DIRECTION('Axis2P3D Direction',(-0.0871557427477,-0.996194698092,0.)) ;
#797=DIRECTION('Axis2P3D XDirection',(0.996194698092,-0.0871557427477,2.00307606759E-014)) ;
#801=DIRECTION('Axis2P3D Direction',(-0.0871557427477,-0.996194698092,0.)) ;
#810=DIRECTION('Vector Direction',(-0.0871557427477,-0.996194698092,0.)) ;
#815=DIRECTION('Vector Direction',(-0.0871557427477,-0.996194698092,0.)) ;
#827=DIRECTION('Axis2P3D Direction',(-0.0871557427477,-0.996194698092,0.)) ;
#839=DIRECTION('Axis2P3D Direction',(0.0871557427482,0.996194698092,-0.)) ;
#840=DIRECTION('Axis2P3D XDirection',(-0.961974863907,0.0841618951892,-0.259848295376)) ;
#844=DIRECTION('Vector Direction',(-0.642787609687,0.766044443118,-9.93897365805E-008)) ;
#849=DIRECTION('Vector Direction',(0.76604444312,0.642787609686,0.)) ;
#861=DIRECTION('Axis2P3D Direction',(0.0871557427476,0.996194698092,-0.)) ;
#862=DIRECTION('Axis2P3D XDirection',(0.996194698092,-0.0871557427476,0.)) ;
#48=AXIS2_PLACEMENT_3D(' ',#47,$,$) ;
#55=AXIS2_PLACEMENT_3D('Cylinder Axis2P3D',#52,#53,#54) ;
#68=AXIS2_PLACEMENT_3D('Circle Axis2P3D',#66,#67,$) ;
#82=AXIS2_PLACEMENT_3D('Circle Axis2P3D',#80,#81,$) ;
#94=AXIS2_PLACEMENT_3D('Circle Axis2P3D',#92,#93,$) ;
#99=AXIS2_PLACEMENT_3D('Circle Axis2P3D',#97,#98,$) ;
#112=AXIS2_PLACEMENT_3D('Cylinder Axis2P3D',#109,#110,#111) ;
#125=AXIS2_PLACEMENT_3D('Circle Axis2P3D',#123,#124,$) ;
#139=AXIS2_PLACEMENT_3D('Circle Axis2P3D',#137,#138,$) ;
#151=AXIS2_PLACEMENT_3D('Circle Axis2P3D',#149,#150,$) ;
#156=AXIS2_PLACEMENT_3D('Circle Axis2P3D',#154,#155,$) ;
#169=AXIS2_PLACEMENT_3D('Cylinder Axis2P3D',#166,#167,#168) ;
#182=AXIS2_PLACEMENT_3D('Circle Axis2P3D',#180,#181,$) ;
#196=AXIS2_PLACEMENT_3D('Circle Axis2P3D',#194,#195,$) ;
#208=AXIS2_PLACEMENT_3D('Circle Axis2P3D',#206,#207,$) ;
#213=AXIS2_PLACEMENT_3D('Circle Axis2P3D',#211,#212,$) ;
#226=AXIS2_PLACEMENT_3D('Cylinder Axis2P3D',#223,#224,#225) ;
#239=AXIS2_PLACEMENT_3D('Circle Axis2P3D',#237,#238,$) ;
#253=AXIS2_PLACEMENT_3D('Circle Axis2P3D',#251,#252,$) ;
#265=AXIS2_PLACEMENT_3D('Circle Axis2P3D',#263,#264,$) ;
#270=AXIS2_PLACEMENT_3D('Circle Axis2P3D',#268,#269,$) ;
#283=AXIS2_PLACEMENT_3D('Cylinder Axis2P3D',#280,#281,#282) ;
#287=AXIS2_PLACEMENT_3D('Circle Axis2P3D',#285,#286,$) ;
#303=AXIS2_PLACEMENT_3D('Circle Axis2P3D',#301,#302,$) ;
#323=AXIS2_PLACEMENT_3D('Cylinder Axis2P3D',#320,#321,#322) ;
#327=AXIS2_PLACEMENT_3D('Circle Axis2P3D',#325,#326,$) ;
#334=AXIS2_PLACEMENT_3D('Circle Axis2P3D',#332,#333,$) ;
#354=AXIS2_PLACEMENT_3D('Cylinder Axis2P3D',#351,#352,#353) ;
#358=AXIS2_PLACEMENT_3D('Circle Axis2P3D',#356,#357,$) ;
#365=AXIS2_PLACEMENT_3D('Circle Axis2P3D',#363,#364,$) ;
#385=AXIS2_PLACEMENT_3D('Cylinder Axis2P3D',#382,#383,#384) ;
#389=AXIS2_PLACEMENT_3D('Circle Axis2P3D',#387,#388,$) ;
#396=AXIS2_PLACEMENT_3D('Circle Axis2P3D',#394,#395,$) ;
#416=AXIS2_PLACEMENT_3D('Cylinder Axis2P3D',#413,#414,#415) ;
#420=AXIS2_PLACEMENT_3D('Circle Axis2P3D',#418,#419,$) ;
#427=AXIS2_PLACEMENT_3D('Circle Axis2P3D',#425,#426,$) ;
#447=AXIS2_PLACEMENT_3D('Cylinder Axis2P3D',#444,#445,#446) ;
#451=AXIS2_PLACEMENT_3D('Circle Axis2P3D',#449,#450,$) ;
#458=AXIS2_PLACEMENT_3D('Circle Axis2P3D',#456,#457,$) ;
#478=AXIS2_PLACEMENT_3D('Cylinder Axis2P3D',#475,#476,#477) ;
#482=AXIS2_PLACEMENT_3D('Circle Axis2P3D',#480,#481,$) ;
#489=AXIS2_PLACEMENT_3D('Circle Axis2P3D',#487,#488,$) ;
#509=AXIS2_PLACEMENT_3D('Cylinder Axis2P3D',#506,#507,#508) ;
#513=AXIS2_PLACEMENT_3D('Circle Axis2P3D',#511,#512,$) ;
#518=AXIS2_PLACEMENT_3D('Circle Axis2P3D',#516,#517,$) ;
#531=AXIS2_PLACEMENT_3D('Cylinder Axis2P3D',#528,#529,#530) ;
#544=AXIS2_PLACEMENT_3D('Circle Axis2P3D',#542,#543,$) ;
#558=AXIS2_PLACEMENT_3D('Circle Axis2P3D',#556,#557,$) ;
#570=AXIS2_PLACEMENT_3D('Circle Axis2P3D',#568,#569,$) ;
#575=AXIS2_PLACEMENT_3D('Circle Axis2P3D',#573,#574,$) ;
#588=AXIS2_PLACEMENT_3D('Plane Axis2P3D',#585,#586,#587) ;
#602=AXIS2_PLACEMENT_3D('Circle Axis2P3D',#600,#601,$) ;
#611=AXIS2_PLACEMENT_3D('Circle Axis2P3D',#609,#610,$) ;
#638=AXIS2_PLACEMENT_3D('Torus Axis2P3D',#635,#636,#637) ;
#642=AXIS2_PLACEMENT_3D('Circle Axis2P3D',#640,#641,$) ;
#647=AXIS2_PLACEMENT_3D('Circle Axis2P3D',#645,#646,$) ;
#660=AXIS2_PLACEMENT_3D('Torus Axis2P3D',#657,#658,#659) ;
#672=AXIS2_PLACEMENT_3D('Plane Axis2P3D',#669,#670,#671) ;
#680=AXIS2_PLACEMENT_3D('Circle Axis2P3D',#678,#679,$) ;
#689=AXIS2_PLACEMENT_3D('Circle Axis2P3D',#687,#688,$) ;
#700=AXIS2_PLACEMENT_3D('Cone Axis2P3D',#697,#698,#699) ;
#718=AXIS2_PLACEMENT_3D('Circle Axis2P3D',#716,#717,$) ;
#731=AXIS2_PLACEMENT_3D('Cone Axis2P3D',#728,#729,#730) ;
#735=AXIS2_PLACEMENT_3D('Circle Axis2P3D',#733,#734,$) ;
#748=AXIS2_PLACEMENT_3D('Plane Axis2P3D',#745,#746,#747) ;
#762=AXIS2_PLACEMENT_3D('Circle Axis2P3D',#760,#761,$) ;
#771=AXIS2_PLACEMENT_3D('Circle Axis2P3D',#769,#770,$) ;
#798=AXIS2_PLACEMENT_3D('Cylinder Axis2P3D',#795,#796,#797) ;
#802=AXIS2_PLACEMENT_3D('Circle Axis2P3D',#800,#801,$) ;
#828=AXIS2_PLACEMENT_3D('Circle Axis2P3D',#826,#827,$) ;
#841=AXIS2_PLACEMENT_3D('Cone Axis2P3D',#838,#839,#840) ;
#863=AXIS2_PLACEMENT_3D('Cone Axis2P3D',#860,#861,#862) ;
#40=PRODUCT_DEFINITION_SHAPE(' ',' ',#14) ;
#31=APPROVAL_PERSON_ORGANIZATION(#25,#21,#19) ;
#25=PERSON_AND_ORGANIZATION(#22,#23) ;
#22=PERSON(' ',' ',' ',$,$,$) ;
#23=ORGANIZATION(' ',' ',' ') ;
#21=APPROVAL(#20,' ') ;
#20=APPROVAL_STATUS('not_yet_approved') ;
#19=APPROVAL_ROLE('APPROVER') ;
#13=DATE_AND_TIME(#11,#12) ;
#12=LOCAL_TIME(13,55,23.,#10) ;
#10=COORDINATED_UNIVERSAL_TIME_OFFSET(0,0,.AHEAD.) ;
#86=ORIENTED_EDGE('',*,*,#65,.F.) ;
#87=ORIENTED_EDGE('',*,*,#72,.T.) ;
#88=ORIENTED_EDGE('',*,*,#79,.T.) ;
#89=ORIENTED_EDGE('',*,*,#84,.F.) ;
#103=ORIENTED_EDGE('',*,*,#79,.F.) ;
#104=ORIENTED_EDGE('',*,*,#96,.T.) ;
#105=ORIENTED_EDGE('',*,*,#65,.T.) ;
#106=ORIENTED_EDGE('',*,*,#101,.F.) ;
#143=ORIENTED_EDGE('',*,*,#122,.F.) ;
#144=ORIENTED_EDGE('',*,*,#129,.T.) ;
#145=ORIENTED_EDGE('',*,*,#136,.T.) ;
#146=ORIENTED_EDGE('',*,*,#141,.F.) ;
#160=ORIENTED_EDGE('',*,*,#136,.F.) ;
#161=ORIENTED_EDGE('',*,*,#153,.T.) ;
#162=ORIENTED_EDGE('',*,*,#122,.T.) ;
#163=ORIENTED_EDGE('',*,*,#158,.F.) ;
#200=ORIENTED_EDGE('',*,*,#179,.F.) ;
#201=ORIENTED_EDGE('',*,*,#186,.T.) ;
#202=ORIENTED_EDGE('',*,*,#193,.T.) ;
#203=ORIENTED_EDGE('',*,*,#198,.F.) ;
#217=ORIENTED_EDGE('',*,*,#193,.F.) ;
#218=ORIENTED_EDGE('',*,*,#210,.T.) ;
#219=ORIENTED_EDGE('',*,*,#179,.T.) ;
#220=ORIENTED_EDGE('',*,*,#215,.F.) ;
#257=ORIENTED_EDGE('',*,*,#236,.F.) ;
#258=ORIENTED_EDGE('',*,*,#243,.T.) ;
#259=ORIENTED_EDGE('',*,*,#250,.T.) ;
#260=ORIENTED_EDGE('',*,*,#255,.F.) ;
#274=ORIENTED_EDGE('',*,*,#250,.F.) ;
#275=ORIENTED_EDGE('',*,*,#267,.T.) ;
#276=ORIENTED_EDGE('',*,*,#236,.T.) ;
#277=ORIENTED_EDGE('',*,*,#272,.F.) ;
#314=ORIENTED_EDGE('',*,*,#293,.T.) ;
#315=ORIENTED_EDGE('',*,*,#300,.F.) ;
#316=ORIENTED_EDGE('',*,*,#307,.F.) ;
#317=ORIENTED_EDGE('',*,*,#312,.T.) ;
#345=ORIENTED_EDGE('',*,*,#331,.T.) ;
#346=ORIENTED_EDGE('',*,*,#312,.F.) ;
#347=ORIENTED_EDGE('',*,*,#338,.F.) ;
#348=ORIENTED_EDGE('',*,*,#343,.T.) ;
#376=ORIENTED_EDGE('',*,*,#362,.T.) ;
#377=ORIENTED_EDGE('',*,*,#343,.F.) ;
#378=ORIENTED_EDGE('',*,*,#369,.F.) ;
#379=ORIENTED_EDGE('',*,*,#374,.T.) ;
#407=ORIENTED_EDGE('',*,*,#393,.T.) ;
#408=ORIENTED_EDGE('',*,*,#374,.F.) ;
#409=ORIENTED_EDGE('',*,*,#400,.F.) ;
#410=ORIENTED_EDGE('',*,*,#405,.T.) ;
#438=ORIENTED_EDGE('',*,*,#424,.T.) ;
#439=ORIENTED_EDGE('',*,*,#405,.F.) ;
#440=ORIENTED_EDGE('',*,*,#431,.F.) ;
#441=ORIENTED_EDGE('',*,*,#436,.T.) ;
#469=ORIENTED_EDGE('',*,*,#455,.T.) ;
#470=ORIENTED_EDGE('',*,*,#436,.F.) ;
#471=ORIENTED_EDGE('',*,*,#462,.F.) ;
#472=ORIENTED_EDGE('',*,*,#467,.T.) ;
#500=ORIENTED_EDGE('',*,*,#486,.T.) ;
#501=ORIENTED_EDGE('',*,*,#467,.F.) ;
#502=ORIENTED_EDGE('',*,*,#493,.F.) ;
#503=ORIENTED_EDGE('',*,*,#498,.T.) ;
#522=ORIENTED_EDGE('',*,*,#515,.T.) ;
#523=ORIENTED_EDGE('',*,*,#498,.F.) ;
#524=ORIENTED_EDGE('',*,*,#520,.F.) ;
#525=ORIENTED_EDGE('',*,*,#300,.T.) ;
#562=ORIENTED_EDGE('',*,*,#541,.T.) ;
#563=ORIENTED_EDGE('',*,*,#548,.F.) ;
#564=ORIENTED_EDGE('',*,*,#555,.F.) ;
#565=ORIENTED_EDGE('',*,*,#560,.F.) ;
#579=ORIENTED_EDGE('',*,*,#555,.T.) ;
#580=ORIENTED_EDGE('',*,*,#572,.F.) ;
#581=ORIENTED_EDGE('',*,*,#541,.F.) ;
#582=ORIENTED_EDGE('',*,*,#577,.F.) ;
#591=ORIENTED_EDGE('',*,*,#293,.F.) ;
#592=ORIENTED_EDGE('',*,*,#331,.F.) ;
#593=ORIENTED_EDGE('',*,*,#362,.F.) ;
#594=ORIENTED_EDGE('',*,*,#393,.F.) ;
#595=ORIENTED_EDGE('',*,*,#424,.F.) ;
#596=ORIENTED_EDGE('',*,*,#455,.F.) ;
#597=ORIENTED_EDGE('',*,*,#486,.F.) ;
#598=ORIENTED_EDGE('',*,*,#515,.F.) ;
#615=ORIENTED_EDGE('',*,*,#608,.T.) ;
#616=ORIENTED_EDGE('',*,*,#613,.T.) ;
#619=ORIENTED_EDGE('',*,*,#255,.T.) ;
#620=ORIENTED_EDGE('',*,*,#272,.T.) ;
#623=ORIENTED_EDGE('',*,*,#198,.T.) ;
#624=ORIENTED_EDGE('',*,*,#215,.T.) ;
#627=ORIENTED_EDGE('',*,*,#141,.T.) ;
#628=ORIENTED_EDGE('',*,*,#158,.T.) ;
#631=ORIENTED_EDGE('',*,*,#84,.T.) ;
#632=ORIENTED_EDGE('',*,*,#101,.T.) ;
#651=ORIENTED_EDGE('',*,*,#577,.T.) ;
#652=ORIENTED_EDGE('',*,*,#644,.T.) ;
#653=ORIENTED_EDGE('',*,*,#608,.F.) ;
#654=ORIENTED_EDGE('',*,*,#649,.F.) ;
#663=ORIENTED_EDGE('',*,*,#560,.T.) ;
#664=ORIENTED_EDGE('',*,*,#649,.T.) ;
#665=ORIENTED_EDGE('',*,*,#613,.F.) ;
#666=ORIENTED_EDGE('',*,*,#644,.F.) ;
#675=ORIENTED_EDGE('',*,*,#548,.T.) ;
#676=ORIENTED_EDGE('',*,*,#572,.T.) ;
#693=ORIENTED_EDGE('',*,*,#686,.F.) ;
#694=ORIENTED_EDGE('',*,*,#691,.F.) ;
#722=ORIENTED_EDGE('',*,*,#708,.T.) ;
#723=ORIENTED_EDGE('',*,*,#691,.T.) ;
#724=ORIENTED_EDGE('',*,*,#715,.F.) ;
#725=ORIENTED_EDGE('',*,*,#720,.F.) ;
#739=ORIENTED_EDGE('',*,*,#715,.T.) ;
#740=ORIENTED_EDGE('',*,*,#686,.T.) ;
#741=ORIENTED_EDGE('',*,*,#708,.F.) ;
#742=ORIENTED_EDGE('',*,*,#737,.F.) ;
#751=ORIENTED_EDGE('',*,*,#520,.T.) ;
#752=ORIENTED_EDGE('',*,*,#493,.T.) ;
#753=ORIENTED_EDGE('',*,*,#462,.T.) ;
#754=ORIENTED_EDGE('',*,*,#431,.T.) ;
#755=ORIENTED_EDGE('',*,*,#400,.T.) ;
#756=ORIENTED_EDGE('',*,*,#369,.T.) ;
#757=ORIENTED_EDGE('',*,*,#338,.T.) ;
#758=ORIENTED_EDGE('',*,*,#307,.T.) ;
#775=ORIENTED_EDGE('',*,*,#768,.F.) ;
#776=ORIENTED_EDGE('',*,*,#773,.F.) ;
#779=ORIENTED_EDGE('',*,*,#267,.F.) ;
#780=ORIENTED_EDGE('',*,*,#243,.F.) ;
#783=ORIENTED_EDGE('',*,*,#210,.F.) ;
#784=ORIENTED_EDGE('',*,*,#186,.F.) ;
#787=ORIENTED_EDGE('',*,*,#153,.F.) ;
#788=ORIENTED_EDGE('',*,*,#129,.F.) ;
#791=ORIENTED_EDGE('',*,*,#96,.F.) ;
#792=ORIENTED_EDGE('',*,*,#72,.F.) ;
#820=ORIENTED_EDGE('',*,*,#808,.T.) ;
#821=ORIENTED_EDGE('',*,*,#813,.F.) ;
#822=ORIENTED_EDGE('',*,*,#737,.T.) ;
#823=ORIENTED_EDGE('',*,*,#818,.T.) ;
#832=ORIENTED_EDGE('',*,*,#830,.T.) ;
#833=ORIENTED_EDGE('',*,*,#818,.F.) ;
#834=ORIENTED_EDGE('',*,*,#720,.T.) ;
#835=ORIENTED_EDGE('',*,*,#813,.T.) ;
#854=ORIENTED_EDGE('',*,*,#847,.T.) ;
#855=ORIENTED_EDGE('',*,*,#773,.T.) ;
#856=ORIENTED_EDGE('',*,*,#852,.F.) ;
#857=ORIENTED_EDGE('',*,*,#830,.F.) ;
#866=ORIENTED_EDGE('',*,*,#852,.T.) ;
#867=ORIENTED_EDGE('',*,*,#768,.T.) ;
#868=ORIENTED_EDGE('',*,*,#847,.F.) ;
#869=ORIENTED_EDGE('',*,*,#808,.F.) ;
#617=FACE_BOUND('',#614,.T.) ;
#621=FACE_BOUND('',#618,.T.) ;
#625=FACE_BOUND('',#622,.T.) ;
#629=FACE_BOUND('',#626,.T.) ;
#633=FACE_BOUND('',#630,.T.) ;
#695=FACE_BOUND('',#692,.T.) ;
#777=FACE_BOUND('',#774,.T.) ;
#781=FACE_BOUND('',#778,.T.) ;
#785=FACE_BOUND('',#782,.T.) ;
#789=FACE_BOUND('',#786,.T.) ;
#793=FACE_BOUND('',#790,.T.) ;
#51=CLOSED_SHELL('Closed Shell',(#91,#108,#148,#165,#205,#222,#262,#279,#319,#350,#381,#412,#443,#474,#505,#527,#567,#584,#634,#656,#668,#696,#727,#744,#794,#825,#837,#859,#871)) ;
#59=VECTOR('Line Direction',#58,1.) ;
#75=VECTOR('Line Direction',#74,1.) ;
#116=VECTOR('Line Direction',#115,1.) ;
#132=VECTOR('Line Direction',#131,1.) ;
#173=VECTOR('Line Direction',#172,1.) ;
#189=VECTOR('Line Direction',#188,1.) ;
#230=VECTOR('Line Direction',#229,1.) ;
#246=VECTOR('Line Direction',#245,1.) ;
#296=VECTOR('Line Direction',#295,1.) ;
#310=VECTOR('Line Direction',#309,1.) ;
#341=VECTOR('Line Direction',#340,1.) ;
#372=VECTOR('Line Direction',#371,1.) ;
#403=VECTOR('Line Direction',#402,1.) ;
#434=VECTOR('Line Direction',#433,1.) ;
#465=VECTOR('Line Direction',#464,1.) ;
#496=VECTOR('Line Direction',#495,1.) ;
#535=VECTOR('Line Direction',#534,1.) ;
#551=VECTOR('Line Direction',#550,1.) ;
#704=VECTOR('Line Direction',#703,1.) ;
#711=VECTOR('Line Direction',#710,1.) ;
#811=VECTOR('Line Direction',#810,1.) ;
#816=VECTOR('Line Direction',#815,1.) ;
#845=VECTOR('Line Direction',#844,1.) ;
#850=VECTOR('Line Direction',#849,1.) ;
#873=ADVANCED_BREP_SHAPE_REPRESENTATION('NONE',(#872),#46) ;
#49=SHAPE_REPRESENTATION(' ',(#48),#46) ;
#91=ADVANCED_FACE('\X2\96F64EF651E04F554F53\X0\',(#90),#56,.F.) ;
#108=ADVANCED_FACE('\X2\96F64EF651E04F554F53\X0\',(#107),#56,.F.) ;
#148=ADVANCED_FACE('\X2\96F64EF651E04F554F53\X0\',(#147),#113,.F.) ;
#165=ADVANCED_FACE('\X2\96F64EF651E04F554F53\X0\',(#164),#113,.F.) ;
#205=ADVANCED_FACE('\X2\96F64EF651E04F554F53\X0\',(#204),#170,.F.) ;
#222=ADVANCED_FACE('\X2\96F64EF651E04F554F53\X0\',(#221),#170,.F.) ;
#262=ADVANCED_FACE('\X2\96F64EF651E04F554F53\X0\',(#261),#227,.F.) ;
#279=ADVANCED_FACE('\X2\96F64EF651E04F554F53\X0\',(#278),#227,.F.) ;
#319=ADVANCED_FACE('\X2\96F64EF651E04F554F53\X0\',(#318),#284,.F.) ;
#350=ADVANCED_FACE('\X2\96F64EF651E04F554F53\X0\',(#349),#324,.T.) ;
#381=ADVANCED_FACE('\X2\96F64EF651E04F554F53\X0\',(#380),#355,.F.) ;
#412=ADVANCED_FACE('\X2\96F64EF651E04F554F53\X0\',(#411),#386,.T.) ;
#443=ADVANCED_FACE('\X2\96F64EF651E04F554F53\X0\',(#442),#417,.F.) ;
#474=ADVANCED_FACE('\X2\96F64EF651E04F554F53\X0\',(#473),#448,.T.) ;
#505=ADVANCED_FACE('\X2\96F64EF651E04F554F53\X0\',(#504),#479,.F.) ;
#527=ADVANCED_FACE('\X2\96F64EF651E04F554F53\X0\',(#526),#510,.T.) ;
#567=ADVANCED_FACE('\X2\96F64EF651E04F554F53\X0\',(#566),#532,.T.) ;
#584=ADVANCED_FACE('\X2\96F64EF651E04F554F53\X0\',(#583),#532,.T.) ;
#634=ADVANCED_FACE('\X2\96F64EF651E04F554F53\X0\',(#599,#617,#621,#625,#629,#633),#589,.F.) ;
#656=ADVANCED_FACE('\X2\96F64EF651E04F554F53\X0\',(#655),#639,.F.) ;
#668=ADVANCED_FACE('\X2\96F64EF651E04F554F53\X0\',(#667),#661,.F.) ;
#696=ADVANCED_FACE('\X2\96F64EF651E04F554F53\X0\',(#677,#695),#673,.T.) ;
#727=ADVANCED_FACE('\X2\96F64EF651E04F554F53\X0\',(#726),#701,.F.) ;
#744=ADVANCED_FACE('\X2\96F64EF651E04F554F53\X0\',(#743),#732,.F.) ;
#794=ADVANCED_FACE('\X2\96F64EF651E04F554F53\X0\',(#759,#777,#781,#785,#789,#793),#749,.T.) ;
#825=ADVANCED_FACE('\X2\96F64EF651E04F554F53\X0\',(#824),#799,.F.) ;
#837=ADVANCED_FACE('\X2\96F64EF651E04F554F53\X0\',(#836),#799,.F.) ;
#859=ADVANCED_FACE('\X2\96F64EF651E04F554F53\X0\',(#858),#842,.F.) ;
#871=ADVANCED_FACE('\X2\96F64EF651E04F554F53\X0\',(#870),#864,.F.) ;
#4=APPLICATION_PROTOCOL_DEFINITION('international standard','config_control_design',1994,#1) ;
#32=APPROVAL_DATE_TIME(#13,#21) ;
#872=MANIFOLD_SOLID_BREP('\X2\96F64EF651E04F554F53\X0\',#51) ;
#11=CALENDAR_DATE(2024,19,11) ;
#30=CC_DESIGN_APPROVAL(#21,(#16,#6,#14)) ;
#18=CC_DESIGN_DATE_AND_TIME_ASSIGNMENT(#13,#17,(#16)) ;
#29=CC_DESIGN_DATE_AND_TIME_ASSIGNMENT(#13,#28,(#14)) ;
#17=DATE_TIME_ROLE('classification_date') ;
#28=DATE_TIME_ROLE('creation_date') ;
#27=CC_DESIGN_PERSON_AND_ORGANIZATION_ASSIGNMENT(#25,#26,(#16)) ;
#33=CC_DESIGN_PERSON_AND_ORGANIZATION_ASSIGNMENT(#25,#34,(#6)) ;
#35=CC_DESIGN_PERSON_AND_ORGANIZATION_ASSIGNMENT(#25,#36,(#6,#14)) ;
#37=CC_DESIGN_PERSON_AND_ORGANIZATION_ASSIGNMENT(#25,#38,(#5)) ;
#26=PERSON_AND_ORGANIZATION_ROLE('classification_officer') ;
#34=PERSON_AND_ORGANIZATION_ROLE('design_supplier') ;
#36=PERSON_AND_ORGANIZATION_ROLE('creator') ;
#38=PERSON_AND_ORGANIZATION_ROLE('design_owner') ;
#39=CC_DESIGN_SECURITY_CLASSIFICATION(#16,(#6)) ;
#69=CIRCLE('generated circle',#68,2.413) ;
#83=CIRCLE('generated circle',#82,2.413) ;
#95=CIRCLE('generated circle',#94,2.413) ;
#100=CIRCLE('generated circle',#99,2.413) ;
#126=CIRCLE('generated circle',#125,2.413) ;
#140=CIRCLE('generated circle',#139,2.413) ;
#152=CIRCLE('generated circle',#151,2.413) ;
#157=CIRCLE('generated circle',#156,2.413) ;
#183=CIRCLE('generated circle',#182,2.413) ;
#197=CIRCLE('generated circle',#196,2.413) ;
#209=CIRCLE('generated circle',#208,2.413) ;
#214=CIRCLE('generated circle',#213,2.413) ;
#240=CIRCLE('generated circle',#239,2.413) ;
#254=CIRCLE('generated circle',#253,2.413) ;
#266=CIRCLE('generated circle',#265,2.413) ;
#271=CIRCLE('generated circle',#270,2.413) ;
#288=CIRCLE('generated circle',#287,25.) ;
#304=CIRCLE('generated circle',#303,25.) ;
#328=CIRCLE('generated circle',#327,8.) ;
#335=CIRCLE('generated circle',#334,8.) ;
#359=CIRCLE('generated circle',#358,25.) ;
#366=CIRCLE('generated circle',#365,25.) ;
#390=CIRCLE('generated circle',#389,8.) ;
#397=CIRCLE('generated circle',#396,8.) ;
#421=CIRCLE('generated circle',#420,25.) ;
#428=CIRCLE('generated circle',#427,25.) ;
#452=CIRCLE('generated circle',#451,8.) ;
#459=CIRCLE('generated circle',#458,8.) ;
#483=CIRCLE('generated circle',#482,25.) ;
#490=CIRCLE('generated circle',#489,25.) ;
#514=CIRCLE('generated circle',#513,8.) ;
#519=CIRCLE('generated circle',#518,8.) ;
#545=CIRCLE('generated circle',#544,9.5) ;
#559=CIRCLE('generated circle',#558,9.5) ;
#571=CIRCLE('generated circle',#570,9.5) ;
#576=CIRCLE('generated circle',#575,9.5) ;
#603=CIRCLE('generated circle',#602,15.5) ;
#612=CIRCLE('generated circle',#611,15.5) ;
#643=CIRCLE('generated circle',#642,6.) ;
#648=CIRCLE('generated circle',#647,6.) ;
#681=CIRCLE('generated circle',#680,5.25) ;
#690=CIRCLE('generated circle',#689,5.25) ;
#719=CIRCLE('generated circle',#718,4.75) ;
#736=CIRCLE('generated circle',#735,4.75) ;
#763=CIRCLE('generated circle',#762,5.25) ;
#772=CIRCLE('generated circle',#771,5.25) ;
#803=CIRCLE('generated circle',#802,4.75) ;
#829=CIRCLE('generated circle',#828,4.75) ;
#701=CONICAL_SURFACE('Cone',#700,0.,0.785398163398) ;
#732=CONICAL_SURFACE('Cone',#731,0.,0.785398163397) ;
#842=CONICAL_SURFACE('Cone',#841,0.,0.785398163398) ;
#864=CONICAL_SURFACE('Cone',#863,0.,0.785398163397) ;
#874=SHAPE_REPRESENTATION_RELATIONSHIP(' ',' ',#49,#873) ;
#56=CYLINDRICAL_SURFACE('generated cylinder',#55,2.413) ;
#113=CYLINDRICAL_SURFACE('generated cylinder',#112,2.413) ;
#170=CYLINDRICAL_SURFACE('generated cylinder',#169,2.413) ;
#227=CYLINDRICAL_SURFACE('generated cylinder',#226,2.413) ;
#284=CYLINDRICAL_SURFACE('generated cylinder',#283,25.) ;
#324=CYLINDRICAL_SURFACE('generated cylinder',#323,8.) ;
#355=CYLINDRICAL_SURFACE('generated cylinder',#354,25.) ;
#386=CYLINDRICAL_SURFACE('generated cylinder',#385,8.) ;
#417=CYLINDRICAL_SURFACE('generated cylinder',#416,25.) ;
#448=CYLINDRICAL_SURFACE('generated cylinder',#447,8.) ;
#479=CYLINDRICAL_SURFACE('generated cylinder',#478,25.) ;
#510=CYLINDRICAL_SURFACE('generated cylinder',#509,8.) ;
#532=CYLINDRICAL_SURFACE('generated cylinder',#531,9.5) ;
#799=CYLINDRICAL_SURFACE('generated cylinder',#798,4.75) ;
#639=TOROIDAL_SURFACE('homeo Torus',#638,15.5,6.) ;
#661=TOROIDAL_SURFACE('homeo Torus',#660,15.5,6.) ;
#3=DESIGN_CONTEXT(' ',#1,'design') ;
#65=EDGE_CURVE('',#62,#64,#60,.F.) ;
#72=EDGE_CURVE('',#62,#71,#69,.T.) ;
#79=EDGE_CURVE('',#71,#78,#76,.F.) ;
#84=EDGE_CURVE('',#64,#78,#83,.T.) ;
#96=EDGE_CURVE('',#71,#62,#95,.T.) ;
#101=EDGE_CURVE('',#78,#64,#100,.T.) ;
#122=EDGE_CURVE('',#119,#121,#117,.F.) ;
#129=EDGE_CURVE('',#119,#128,#126,.T.) ;
#136=EDGE_CURVE('',#128,#135,#133,.F.) ;
#141=EDGE_CURVE('',#121,#135,#140,.T.) ;
#153=EDGE_CURVE('',#128,#119,#152,.T.) ;
#158=EDGE_CURVE('',#135,#121,#157,.T.) ;
#179=EDGE_CURVE('',#176,#178,#174,.F.) ;
#186=EDGE_CURVE('',#176,#185,#183,.T.) ;
#193=EDGE_CURVE('',#185,#192,#190,.F.) ;
#198=EDGE_CURVE('',#178,#192,#197,.T.) ;
#210=EDGE_CURVE('',#185,#176,#209,.T.) ;
#215=EDGE_CURVE('',#192,#178,#214,.T.) ;
#236=EDGE_CURVE('',#233,#235,#231,.F.) ;
#243=EDGE_CURVE('',#233,#242,#240,.T.) ;
#250=EDGE_CURVE('',#242,#249,#247,.F.) ;
#255=EDGE_CURVE('',#235,#249,#254,.T.) ;
#267=EDGE_CURVE('',#242,#233,#266,.T.) ;
#272=EDGE_CURVE('',#249,#235,#271,.T.) ;
#293=EDGE_CURVE('',#290,#292,#288,.F.) ;
#300=EDGE_CURVE('',#299,#292,#297,.F.) ;
#307=EDGE_CURVE('',#306,#299,#304,.F.) ;
#312=EDGE_CURVE('',#306,#290,#311,.F.) ;
#331=EDGE_CURVE('',#330,#290,#328,.T.) ;
#338=EDGE_CURVE('',#337,#306,#335,.T.) ;
#343=EDGE_CURVE('',#337,#330,#342,.F.) ;
#362=EDGE_CURVE('',#361,#330,#359,.F.) ;
#369=EDGE_CURVE('',#368,#337,#366,.F.) ;
#374=EDGE_CURVE('',#368,#361,#373,.F.) ;
#393=EDGE_CURVE('',#392,#361,#390,.T.) ;
#400=EDGE_CURVE('',#399,#368,#397,.T.) ;
#405=EDGE_CURVE('',#399,#392,#404,.F.) ;
#424=EDGE_CURVE('',#423,#392,#421,.F.) ;
#431=EDGE_CURVE('',#430,#399,#428,.F.) ;
#436=EDGE_CURVE('',#430,#423,#435,.F.) ;
#455=EDGE_CURVE('',#454,#423,#452,.T.) ;
#462=EDGE_CURVE('',#461,#430,#459,.T.) ;
#467=EDGE_CURVE('',#461,#454,#466,.F.) ;
#486=EDGE_CURVE('',#485,#454,#483,.F.) ;
#493=EDGE_CURVE('',#492,#461,#490,.F.) ;
#498=EDGE_CURVE('',#492,#485,#497,.F.) ;
#515=EDGE_CURVE('',#292,#485,#514,.T.) ;
#520=EDGE_CURVE('',#299,#492,#519,.T.) ;
#541=EDGE_CURVE('',#538,#540,#536,.T.) ;
#548=EDGE_CURVE('',#547,#540,#545,.T.) ;
#555=EDGE_CURVE('',#554,#547,#552,.T.) ;
#560=EDGE_CURVE('',#538,#554,#559,.F.) ;
#572=EDGE_CURVE('',#540,#547,#571,.T.) ;
#577=EDGE_CURVE('',#554,#538,#576,.F.) ;
#608=EDGE_CURVE('',#605,#607,#603,.T.) ;
#613=EDGE_CURVE('',#607,#605,#612,.T.) ;
#644=EDGE_CURVE('',#538,#607,#643,.F.) ;
#649=EDGE_CURVE('',#554,#605,#648,.F.) ;
#686=EDGE_CURVE('',#683,#685,#681,.T.) ;
#691=EDGE_CURVE('',#685,#683,#690,.T.) ;
#708=EDGE_CURVE('',#707,#685,#705,.T.) ;
#715=EDGE_CURVE('',#714,#683,#712,.T.) ;
#720=EDGE_CURVE('',#707,#714,#719,.T.) ;
#737=EDGE_CURVE('',#714,#707,#736,.T.) ;
#768=EDGE_CURVE('',#765,#767,#763,.T.) ;
#773=EDGE_CURVE('',#767,#765,#772,.T.) ;
#808=EDGE_CURVE('',#805,#807,#803,.F.) ;
#813=EDGE_CURVE('',#714,#807,#812,.F.) ;
#818=EDGE_CURVE('',#707,#805,#817,.F.) ;
#830=EDGE_CURVE('',#807,#805,#829,.F.) ;
#847=EDGE_CURVE('',#807,#767,#846,.T.) ;
#852=EDGE_CURVE('',#805,#765,#851,.T.) ;
#85=EDGE_LOOP('',(#86,#87,#88,#89)) ;
#102=EDGE_LOOP('',(#103,#104,#105,#106)) ;
#142=EDGE_LOOP('',(#143,#144,#145,#146)) ;
#159=EDGE_LOOP('',(#160,#161,#162,#163)) ;
#199=EDGE_LOOP('',(#200,#201,#202,#203)) ;
#216=EDGE_LOOP('',(#217,#218,#219,#220)) ;
#256=EDGE_LOOP('',(#257,#258,#259,#260)) ;
#273=EDGE_LOOP('',(#274,#275,#276,#277)) ;
#313=EDGE_LOOP('',(#314,#315,#316,#317)) ;
#344=EDGE_LOOP('',(#345,#346,#347,#348)) ;
#375=EDGE_LOOP('',(#376,#377,#378,#379)) ;
#406=EDGE_LOOP('',(#407,#408,#409,#410)) ;
#437=EDGE_LOOP('',(#438,#439,#440,#441)) ;
#468=EDGE_LOOP('',(#469,#470,#471,#472)) ;
#499=EDGE_LOOP('',(#500,#501,#502,#503)) ;
#521=EDGE_LOOP('',(#522,#523,#524,#525)) ;
#561=EDGE_LOOP('',(#562,#563,#564,#565)) ;
#578=EDGE_LOOP('',(#579,#580,#581,#582)) ;
#590=EDGE_LOOP('',(#591,#592,#593,#594,#595,#596,#597,#598)) ;
#614=EDGE_LOOP('',(#615,#616)) ;
#618=EDGE_LOOP('',(#619,#620)) ;
#622=EDGE_LOOP('',(#623,#624)) ;
#626=EDGE_LOOP('',(#627,#628)) ;
#630=EDGE_LOOP('',(#631,#632)) ;
#650=EDGE_LOOP('',(#651,#652,#653,#654)) ;
#662=EDGE_LOOP('',(#663,#664,#665,#666)) ;
#674=EDGE_LOOP('',(#675,#676)) ;
#692=EDGE_LOOP('',(#693,#694)) ;
#721=EDGE_LOOP('',(#722,#723,#724,#725)) ;
#738=EDGE_LOOP('',(#739,#740,#741,#742)) ;
#750=EDGE_LOOP('',(#751,#752,#753,#754,#755,#756,#757,#758)) ;
#774=EDGE_LOOP('',(#775,#776)) ;
#778=EDGE_LOOP('',(#779,#780)) ;
#782=EDGE_LOOP('',(#783,#784)) ;
#786=EDGE_LOOP('',(#787,#788)) ;
#790=EDGE_LOOP('',(#791,#792)) ;
#819=EDGE_LOOP('',(#820,#821,#822,#823)) ;
#831=EDGE_LOOP('',(#832,#833,#834,#835)) ;
#853=EDGE_LOOP('',(#854,#855,#856,#857)) ;
#865=EDGE_LOOP('',(#866,#867,#868,#869)) ;
#90=FACE_OUTER_BOUND('',#85,.T.) ;
#107=FACE_OUTER_BOUND('',#102,.T.) ;
#147=FACE_OUTER_BOUND('',#142,.T.) ;
#164=FACE_OUTER_BOUND('',#159,.T.) ;
#204=FACE_OUTER_BOUND('',#199,.T.) ;
#221=FACE_OUTER_BOUND('',#216,.T.) ;
#261=FACE_OUTER_BOUND('',#256,.T.) ;
#278=FACE_OUTER_BOUND('',#273,.T.) ;
#318=FACE_OUTER_BOUND('',#313,.T.) ;
#349=FACE_OUTER_BOUND('',#344,.T.) ;
#380=FACE_OUTER_BOUND('',#375,.T.) ;
#411=FACE_OUTER_BOUND('',#406,.T.) ;
#442=FACE_OUTER_BOUND('',#437,.T.) ;
#473=FACE_OUTER_BOUND('',#468,.T.) ;
#504=FACE_OUTER_BOUND('',#499,.T.) ;
#526=FACE_OUTER_BOUND('',#521,.T.) ;
#566=FACE_OUTER_BOUND('',#561,.T.) ;
#583=FACE_OUTER_BOUND('',#578,.T.) ;
#599=FACE_OUTER_BOUND('',#590,.T.) ;
#655=FACE_OUTER_BOUND('',#650,.T.) ;
#667=FACE_OUTER_BOUND('',#662,.T.) ;
#677=FACE_OUTER_BOUND('',#674,.T.) ;
#726=FACE_OUTER_BOUND('',#721,.T.) ;
#743=FACE_OUTER_BOUND('',#738,.T.) ;
#759=FACE_OUTER_BOUND('',#750,.T.) ;
#824=FACE_OUTER_BOUND('',#819,.T.) ;
#836=FACE_OUTER_BOUND('',#831,.T.) ;
#858=FACE_OUTER_BOUND('',#853,.T.) ;
#870=FACE_OUTER_BOUND('',#865,.T.) ;
#45=UNCERTAINTY_MEASURE_WITH_UNIT(LENGTH_MEASURE(0.005),#41,'distance_accuracy_value','CONFUSED CURVE UNCERTAINTY') ;
#60=LINE('Line',#57,#59) ;
#76=LINE('Line',#73,#75) ;
#117=LINE('Line',#114,#116) ;
#133=LINE('Line',#130,#132) ;
#174=LINE('Line',#171,#173) ;
#190=LINE('Line',#187,#189) ;
#231=LINE('Line',#228,#230) ;
#247=LINE('Line',#244,#246) ;
#297=LINE('Line',#294,#296) ;
#311=LINE('Line',#308,#310) ;
#342=LINE('Line',#339,#341) ;
#373=LINE('Line',#370,#372) ;
#404=LINE('Line',#401,#403) ;
#435=LINE('Line',#432,#434) ;
#466=LINE('Line',#463,#465) ;
#497=LINE('Line',#494,#496) ;
#536=LINE('Line',#533,#535) ;
#552=LINE('Line',#549,#551) ;
#705=LINE('Line',#702,#704) ;
#712=LINE('Line',#709,#711) ;
#812=LINE('Line',#809,#811) ;
#817=LINE('Line',#814,#816) ;
#846=LINE('Line',#843,#845) ;
#851=LINE('Line',#848,#850) ;
#2=MECHANICAL_CONTEXT(' ',#1,'mechanical') ;
#24=PERSONAL_ADDRESS(' ',' ',' ',' ',' ',' ',' ',' ',' ',' ',' ',' ',(#22),' ') ;
#589=PLANE('',#588) ;
#673=PLANE('',#672) ;
#749=PLANE('',#748) ;
#43=PLANE_ANGLE_MEASURE_WITH_UNIT(PLANE_ANGLE_MEASURE(0.0174532925199),#42) ;
#7=PRODUCT_CATEGORY('part',$) ;
#9=PRODUCT_CATEGORY_RELATIONSHIP(' ',' ',#7,#8) ;
#6=PRODUCT_DEFINITION_FORMATION_WITH_SPECIFIED_SOURCE('',' ',#5,.NOT_KNOWN.) ;
#8=PRODUCT_RELATED_PRODUCT_CATEGORY('detail',$,(#5)) ;
#50=SHAPE_DEFINITION_REPRESENTATION(#40,#49) ;
#62=VERTEX_POINT('',#61) ;
#64=VERTEX_POINT('',#63) ;
#71=VERTEX_POINT('',#70) ;
#78=VERTEX_POINT('',#77) ;
#119=VERTEX_POINT('',#118) ;
#121=VERTEX_POINT('',#120) ;
#128=VERTEX_POINT('',#127) ;
#135=VERTEX_POINT('',#134) ;
#176=VERTEX_POINT('',#175) ;
#178=VERTEX_POINT('',#177) ;
#185=VERTEX_POINT('',#184) ;
#192=VERTEX_POINT('',#191) ;
#233=VERTEX_POINT('',#232) ;
#235=VERTEX_POINT('',#234) ;
#242=VERTEX_POINT('',#241) ;
#249=VERTEX_POINT('',#248) ;
#290=VERTEX_POINT('',#289) ;
#292=VERTEX_POINT('',#291) ;
#299=VERTEX_POINT('',#298) ;
#306=VERTEX_POINT('',#305) ;
#330=VERTEX_POINT('',#329) ;
#337=VERTEX_POINT('',#336) ;
#361=VERTEX_POINT('',#360) ;
#368=VERTEX_POINT('',#367) ;
#392=VERTEX_POINT('',#391) ;
#399=VERTEX_POINT('',#398) ;
#423=VERTEX_POINT('',#422) ;
#430=VERTEX_POINT('',#429) ;
#454=VERTEX_POINT('',#453) ;
#461=VERTEX_POINT('',#460) ;
#485=VERTEX_POINT('',#484) ;
#492=VERTEX_POINT('',#491) ;
#538=VERTEX_POINT('',#537) ;
#540=VERTEX_POINT('',#539) ;
#547=VERTEX_POINT('',#546) ;
#554=VERTEX_POINT('',#553) ;
#605=VERTEX_POINT('',#604) ;
#607=VERTEX_POINT('',#606) ;
#683=VERTEX_POINT('',#682) ;
#685=VERTEX_POINT('',#684) ;
#707=VERTEX_POINT('',#706) ;
#714=VERTEX_POINT('',#713) ;
#765=VERTEX_POINT('',#764) ;
#767=VERTEX_POINT('',#766) ;
#805=VERTEX_POINT('',#804) ;
#807=VERTEX_POINT('',#806) ;
#41=(LENGTH_UNIT()NAMED_UNIT(*)SI_UNIT(.MILLI.,.METRE.)) ;
#42=(NAMED_UNIT(*)PLANE_ANGLE_UNIT()SI_UNIT($,.RADIAN.)) ;
#44=(NAMED_UNIT(*)SI_UNIT($,.STERADIAN.)SOLID_ANGLE_UNIT()) ;
#46=(GEOMETRIC_REPRESENTATION_CONTEXT(3)GLOBAL_UNCERTAINTY_ASSIGNED_CONTEXT((#45))GLOBAL_UNIT_ASSIGNED_CONTEXT((#41,#42,#44))REPRESENTATION_CONTEXT(' ',' ')) ;
ENDSEC;
END-ISO-10303-21;
