ISO-10303-21;
HEADER;
/* Generated by software containing ST-Developer
 * from STEP Tools, Inc. (www.steptools.com) 
 */
/* OPTION: using custom renumber hook */

FILE_DESCRIPTION(
/* description */ ('STEP AP214'),
/* implementation_level */ '2;1');

FILE_NAME(
/* name */ 'XMS06-DN80',
/* time_stamp */ '2026-07-21T03:49:37+02:00',
/* author */ ('License CC BY-ND 4.0'),
/* organization */ ('CADENAS'),
/* preprocessor_version */ 'ST-DEVELOPER v20',
/* originating_system */ 'PARTsolutions',
/* authorisation */ '  ');

FILE_SCHEMA (('AUTOMOTIVE_DESIGN {1 0 10303 214 3 1 1}'));
ENDSEC;

DATA;
#10=PROPERTY_DEFINITION_REPRESENTATION(#14,#12);
#11=PROPERTY_DEFINITION_REPRESENTATION(#15,#13);
#12=REPRESENTATION('',(#16),#909);
#13=REPRESENTATION('',(#17),#909);
#14=PROPERTY_DEFINITION('pmi validation property','',#914);
#15=PROPERTY_DEFINITION('pmi validation property','',#914);
#16=VALUE_REPRESENTATION_ITEM('number of annotations',COUNT_MEASURE(0.));
#17=VALUE_REPRESENTATION_ITEM('number of views',COUNT_MEASURE(0.));
#18=SHAPE_REPRESENTATION_RELATIONSHIP('','',#521,#19);
#19=ADVANCED_BREP_SHAPE_REPRESENTATION('',(#519),#909);
#20=CONICAL_SURFACE('',#558,50.9913376232499,0.380506377112365);
#21=CONICAL_SURFACE('',#564,44.5,0.785398163397445);
#22=CONICAL_SURFACE('',#567,9.90000000000001,0.785398163397448);
#23=CONICAL_SURFACE('',#571,8.99999999999999,0.785398163397456);
#24=CONICAL_SURFACE('',#572,9.90000000000001,0.785398163397452);
#25=CONICAL_SURFACE('',#576,8.99999999999999,0.785398163397452);
#26=CONICAL_SURFACE('',#577,9.90000000000001,0.785398163397452);
#27=CONICAL_SURFACE('',#581,8.99999999999999,0.785398163397452);
#28=CONICAL_SURFACE('',#582,9.90000000000001,0.785398163397448);
#29=CONICAL_SURFACE('',#586,8.99999999999999,0.785398163397456);
#30=CONICAL_SURFACE('',#587,9.9,0.78539816339745);
#31=CONICAL_SURFACE('',#591,8.99999999999999,0.78539816339745);
#32=CONICAL_SURFACE('',#592,9.90000000000001,0.785398163397456);
#33=CONICAL_SURFACE('',#596,8.99999999999999,0.785398163397456);
#34=CONICAL_SURFACE('',#597,9.90000000000001,0.785398163397452);
#35=CONICAL_SURFACE('',#601,8.99999999999999,0.78539816339746);
#36=CONICAL_SURFACE('',#602,9.9,0.785398163397446);
#37=CONICAL_SURFACE('',#606,8.99999999999999,0.785398163397454);
#38=TOROIDAL_SURFACE('',#540,99.,1.00000000000001);
#39=TOROIDAL_SURFACE('',#544,99.,1.00000000000001);
#40=TOROIDAL_SURFACE('',#556,56.5621977685614,5.99999999999999);
#41=TOROIDAL_SURFACE('',#560,50.5,5.99999999999998);
#42=PLANE('',#526);
#43=PLANE('',#530);
#44=PLANE('',#546);
#45=PLANE('',#566);
#46=ORIENTED_EDGE('',*,*,#138,.T.);
#47=ORIENTED_EDGE('',*,*,#139,.F.);
#48=ORIENTED_EDGE('',*,*,#140,.T.);
#49=ORIENTED_EDGE('',*,*,#138,.F.);
#50=ORIENTED_EDGE('',*,*,#141,.T.);
#51=ORIENTED_EDGE('',*,*,#140,.F.);
#52=ORIENTED_EDGE('',*,*,#142,.T.);
#53=ORIENTED_EDGE('',*,*,#143,.T.);
#54=ORIENTED_EDGE('',*,*,#144,.F.);
#55=ORIENTED_EDGE('',*,*,#145,.F.);
#56=ORIENTED_EDGE('',*,*,#146,.T.);
#57=ORIENTED_EDGE('',*,*,#147,.F.);
#58=ORIENTED_EDGE('',*,*,#148,.F.);
#59=ORIENTED_EDGE('',*,*,#149,.T.);
#60=ORIENTED_EDGE('',*,*,#150,.T.);
#61=ORIENTED_EDGE('',*,*,#141,.F.);
#62=ORIENTED_EDGE('',*,*,#151,.T.);
#63=ORIENTED_EDGE('',*,*,#150,.F.);
#64=ORIENTED_EDGE('',*,*,#152,.T.);
#65=ORIENTED_EDGE('',*,*,#151,.F.);
#66=ORIENTED_EDGE('',*,*,#153,.T.);
#67=ORIENTED_EDGE('',*,*,#152,.F.);
#68=ORIENTED_EDGE('',*,*,#154,.F.);
#69=ORIENTED_EDGE('',*,*,#155,.F.);
#70=ORIENTED_EDGE('',*,*,#156,.T.);
#71=ORIENTED_EDGE('',*,*,#157,.T.);
#72=ORIENTED_EDGE('',*,*,#158,.F.);
#73=ORIENTED_EDGE('',*,*,#159,.T.);
#74=ORIENTED_EDGE('',*,*,#160,.T.);
#75=ORIENTED_EDGE('',*,*,#161,.F.);
#76=ORIENTED_EDGE('',*,*,#162,.T.);
#77=ORIENTED_EDGE('',*,*,#153,.F.);
#78=ORIENTED_EDGE('',*,*,#162,.F.);
#79=ORIENTED_EDGE('',*,*,#163,.T.);
#80=ORIENTED_EDGE('',*,*,#164,.T.);
#81=ORIENTED_EDGE('',*,*,#163,.F.);
#82=ORIENTED_EDGE('',*,*,#164,.F.);
#83=ORIENTED_EDGE('',*,*,#165,.T.);
#84=ORIENTED_EDGE('',*,*,#166,.T.);
#85=ORIENTED_EDGE('',*,*,#165,.F.);
#86=ORIENTED_EDGE('',*,*,#167,.T.);
#87=ORIENTED_EDGE('',*,*,#166,.F.);
#88=ORIENTED_EDGE('',*,*,#139,.T.);
#89=ORIENTED_EDGE('',*,*,#167,.F.);
#90=ORIENTED_EDGE('',*,*,#168,.T.);
#91=ORIENTED_EDGE('',*,*,#149,.F.);
#92=ORIENTED_EDGE('',*,*,#169,.T.);
#93=ORIENTED_EDGE('',*,*,#168,.F.);
#94=ORIENTED_EDGE('',*,*,#161,.T.);
#95=ORIENTED_EDGE('',*,*,#169,.F.);
#96=ORIENTED_EDGE('',*,*,#170,.T.);
#97=ORIENTED_EDGE('',*,*,#160,.F.);
#98=ORIENTED_EDGE('',*,*,#171,.T.);
#99=ORIENTED_EDGE('',*,*,#170,.F.);
#100=ORIENTED_EDGE('',*,*,#148,.T.);
#101=ORIENTED_EDGE('',*,*,#171,.F.);
#102=ORIENTED_EDGE('',*,*,#172,.T.);
#103=ORIENTED_EDGE('',*,*,#159,.F.);
#104=ORIENTED_EDGE('',*,*,#173,.T.);
#105=ORIENTED_EDGE('',*,*,#172,.F.);
#106=ORIENTED_EDGE('',*,*,#147,.T.);
#107=ORIENTED_EDGE('',*,*,#173,.F.);
#108=ORIENTED_EDGE('',*,*,#174,.T.);
#109=ORIENTED_EDGE('',*,*,#146,.F.);
#110=ORIENTED_EDGE('',*,*,#175,.T.);
#111=ORIENTED_EDGE('',*,*,#174,.F.);
#112=ORIENTED_EDGE('',*,*,#158,.T.);
#113=ORIENTED_EDGE('',*,*,#175,.F.);
#114=ORIENTED_EDGE('',*,*,#176,.T.);
#115=ORIENTED_EDGE('',*,*,#157,.F.);
#116=ORIENTED_EDGE('',*,*,#177,.T.);
#117=ORIENTED_EDGE('',*,*,#176,.F.);
#118=ORIENTED_EDGE('',*,*,#145,.T.);
#119=ORIENTED_EDGE('',*,*,#177,.F.);
#120=ORIENTED_EDGE('',*,*,#178,.T.);
#121=ORIENTED_EDGE('',*,*,#156,.F.);
#122=ORIENTED_EDGE('',*,*,#179,.T.);
#123=ORIENTED_EDGE('',*,*,#178,.F.);
#124=ORIENTED_EDGE('',*,*,#144,.T.);
#125=ORIENTED_EDGE('',*,*,#179,.F.);
#126=ORIENTED_EDGE('',*,*,#180,.T.);
#127=ORIENTED_EDGE('',*,*,#143,.F.);
#128=ORIENTED_EDGE('',*,*,#181,.T.);
#129=ORIENTED_EDGE('',*,*,#180,.F.);
#130=ORIENTED_EDGE('',*,*,#155,.T.);
#131=ORIENTED_EDGE('',*,*,#181,.F.);
#132=ORIENTED_EDGE('',*,*,#182,.T.);
#133=ORIENTED_EDGE('',*,*,#142,.F.);
#134=ORIENTED_EDGE('',*,*,#183,.T.);
#135=ORIENTED_EDGE('',*,*,#182,.F.);
#136=ORIENTED_EDGE('',*,*,#154,.T.);
#137=ORIENTED_EDGE('',*,*,#183,.F.);
#138=EDGE_CURVE('',#184,#184,#230,.T.);
#139=EDGE_CURVE('',#185,#185,#231,.T.);
#140=EDGE_CURVE('',#186,#186,#232,.T.);
#141=EDGE_CURVE('',#187,#187,#233,.T.);
#142=EDGE_CURVE('',#188,#188,#234,.T.);
#143=EDGE_CURVE('',#189,#189,#235,.T.);
#144=EDGE_CURVE('',#190,#190,#236,.T.);
#145=EDGE_CURVE('',#191,#191,#237,.T.);
#146=EDGE_CURVE('',#192,#192,#238,.T.);
#147=EDGE_CURVE('',#193,#193,#239,.T.);
#148=EDGE_CURVE('',#194,#194,#240,.T.);
#149=EDGE_CURVE('',#195,#195,#241,.T.);
#150=EDGE_CURVE('',#196,#196,#242,.T.);
#151=EDGE_CURVE('',#197,#197,#243,.T.);
#152=EDGE_CURVE('',#198,#198,#244,.T.);
#153=EDGE_CURVE('',#199,#199,#245,.T.);
#154=EDGE_CURVE('',#200,#200,#246,.T.);
#155=EDGE_CURVE('',#201,#201,#247,.T.);
#156=EDGE_CURVE('',#202,#202,#248,.T.);
#157=EDGE_CURVE('',#203,#203,#249,.T.);
#158=EDGE_CURVE('',#204,#204,#250,.T.);
#159=EDGE_CURVE('',#205,#205,#251,.T.);
#160=EDGE_CURVE('',#206,#206,#252,.T.);
#161=EDGE_CURVE('',#207,#207,#253,.T.);
#162=EDGE_CURVE('',#208,#208,#254,.T.);
#163=EDGE_CURVE('',#209,#209,#255,.T.);
#164=EDGE_CURVE('',#210,#210,#256,.T.);
#165=EDGE_CURVE('',#211,#211,#257,.T.);
#166=EDGE_CURVE('',#212,#212,#258,.T.);
#167=EDGE_CURVE('',#213,#213,#259,.T.);
#168=EDGE_CURVE('',#214,#214,#260,.T.);
#169=EDGE_CURVE('',#215,#215,#261,.T.);
#170=EDGE_CURVE('',#216,#216,#262,.T.);
#171=EDGE_CURVE('',#217,#217,#263,.T.);
#172=EDGE_CURVE('',#218,#218,#264,.T.);
#173=EDGE_CURVE('',#219,#219,#265,.T.);
#174=EDGE_CURVE('',#220,#220,#266,.T.);
#175=EDGE_CURVE('',#221,#221,#267,.T.);
#176=EDGE_CURVE('',#222,#222,#268,.T.);
#177=EDGE_CURVE('',#223,#223,#269,.T.);
#178=EDGE_CURVE('',#224,#224,#270,.T.);
#179=EDGE_CURVE('',#225,#225,#271,.T.);
#180=EDGE_CURVE('',#226,#226,#272,.T.);
#181=EDGE_CURVE('',#227,#227,#273,.T.);
#182=EDGE_CURVE('',#228,#228,#274,.T.);
#183=EDGE_CURVE('',#229,#229,#275,.T.);
#184=VERTEX_POINT('',#780);
#185=VERTEX_POINT('',#782);
#186=VERTEX_POINT('',#785);
#187=VERTEX_POINT('',#788);
#188=VERTEX_POINT('',#791);
#189=VERTEX_POINT('',#793);
#190=VERTEX_POINT('',#795);
#191=VERTEX_POINT('',#797);
#192=VERTEX_POINT('',#799);
#193=VERTEX_POINT('',#801);
#194=VERTEX_POINT('',#803);
#195=VERTEX_POINT('',#805);
#196=VERTEX_POINT('',#807);
#197=VERTEX_POINT('',#810);
#198=VERTEX_POINT('',#813);
#199=VERTEX_POINT('',#816);
#200=VERTEX_POINT('',#819);
#201=VERTEX_POINT('',#821);
#202=VERTEX_POINT('',#823);
#203=VERTEX_POINT('',#825);
#204=VERTEX_POINT('',#827);
#205=VERTEX_POINT('',#829);
#206=VERTEX_POINT('',#831);
#207=VERTEX_POINT('',#833);
#208=VERTEX_POINT('',#835);
#209=VERTEX_POINT('',#838);
#210=VERTEX_POINT('',#841);
#211=VERTEX_POINT('',#844);
#212=VERTEX_POINT('',#847);
#213=VERTEX_POINT('',#850);
#214=VERTEX_POINT('',#854);
#215=VERTEX_POINT('',#857);
#216=VERTEX_POINT('',#861);
#217=VERTEX_POINT('',#864);
#218=VERTEX_POINT('',#868);
#219=VERTEX_POINT('',#871);
#220=VERTEX_POINT('',#875);
#221=VERTEX_POINT('',#878);
#222=VERTEX_POINT('',#882);
#223=VERTEX_POINT('',#885);
#224=VERTEX_POINT('',#889);
#225=VERTEX_POINT('',#892);
#226=VERTEX_POINT('',#896);
#227=VERTEX_POINT('',#899);
#228=VERTEX_POINT('',#903);
#229=VERTEX_POINT('',#906);
#230=CIRCLE('',#524,41.3);
#231=CIRCLE('',#525,41.3000000000001);
#232=CIRCLE('',#527,69.);
#233=CIRCLE('',#529,69.);
#234=CIRCLE('',#531,9.9);
#235=CIRCLE('',#532,9.90000000000001);
#236=CIRCLE('',#533,9.90000000000001);
#237=CIRCLE('',#534,9.9);
#238=CIRCLE('',#535,9.90000000000001);
#239=CIRCLE('',#536,9.90000000000001);
#240=CIRCLE('',#537,9.90000000000001);
#241=CIRCLE('',#538,9.90000000000001);
#242=CIRCLE('',#539,99.);
#243=CIRCLE('',#541,100.);
#244=CIRCLE('',#543,100.);
#245=CIRCLE('',#545,99.);
#246=CIRCLE('',#547,9.9);
#247=CIRCLE('',#548,9.90000000000001);
#248=CIRCLE('',#549,9.90000000000001);
#249=CIRCLE('',#550,9.9);
#250=CIRCLE('',#551,9.90000000000001);
#251=CIRCLE('',#552,9.90000000000001);
#252=CIRCLE('',#553,9.90000000000001);
#253=CIRCLE('',#554,9.90000000000001);
#254=CIRCLE('',#555,56.5621977685614);
#255=CIRCLE('',#557,50.9913376232499);
#256=CIRCLE('',#559,44.9291398546884);
#257=CIRCLE('',#561,44.5);
#258=CIRCLE('',#563,44.5);
#259=CIRCLE('',#565,43.5);
#260=CIRCLE('',#568,8.99999999999999);
#261=CIRCLE('',#570,8.99999999999999);
#262=CIRCLE('',#573,8.99999999999999);
#263=CIRCLE('',#575,8.99999999999999);
#264=CIRCLE('',#578,8.99999999999999);
#265=CIRCLE('',#580,8.99999999999999);
#266=CIRCLE('',#583,8.99999999999999);
#267=CIRCLE('',#585,8.99999999999999);
#268=CIRCLE('',#588,8.99999999999999);
#269=CIRCLE('',#590,8.99999999999999);
#270=CIRCLE('',#593,8.99999999999999);
#271=CIRCLE('',#595,8.99999999999999);
#272=CIRCLE('',#598,8.99999999999999);
#273=CIRCLE('',#600,8.99999999999999);
#274=CIRCLE('',#603,8.99999999999999);
#275=CIRCLE('',#605,8.99999999999999);
#276=EDGE_LOOP('',(#46));
#277=EDGE_LOOP('',(#47));
#278=EDGE_LOOP('',(#48));
#279=EDGE_LOOP('',(#49));
#280=EDGE_LOOP('',(#50));
#281=EDGE_LOOP('',(#51));
#282=EDGE_LOOP('',(#52));
#283=EDGE_LOOP('',(#53));
#284=EDGE_LOOP('',(#54));
#285=EDGE_LOOP('',(#55));
#286=EDGE_LOOP('',(#56));
#287=EDGE_LOOP('',(#57));
#288=EDGE_LOOP('',(#58));
#289=EDGE_LOOP('',(#59));
#290=EDGE_LOOP('',(#60));
#291=EDGE_LOOP('',(#61));
#292=EDGE_LOOP('',(#62));
#293=EDGE_LOOP('',(#63));
#294=EDGE_LOOP('',(#64));
#295=EDGE_LOOP('',(#65));
#296=EDGE_LOOP('',(#66));
#297=EDGE_LOOP('',(#67));
#298=EDGE_LOOP('',(#68));
#299=EDGE_LOOP('',(#69));
#300=EDGE_LOOP('',(#70));
#301=EDGE_LOOP('',(#71));
#302=EDGE_LOOP('',(#72));
#303=EDGE_LOOP('',(#73));
#304=EDGE_LOOP('',(#74));
#305=EDGE_LOOP('',(#75));
#306=EDGE_LOOP('',(#76));
#307=EDGE_LOOP('',(#77));
#308=EDGE_LOOP('',(#78));
#309=EDGE_LOOP('',(#79));
#310=EDGE_LOOP('',(#80));
#311=EDGE_LOOP('',(#81));
#312=EDGE_LOOP('',(#82));
#313=EDGE_LOOP('',(#83));
#314=EDGE_LOOP('',(#84));
#315=EDGE_LOOP('',(#85));
#316=EDGE_LOOP('',(#86));
#317=EDGE_LOOP('',(#87));
#318=EDGE_LOOP('',(#88));
#319=EDGE_LOOP('',(#89));
#320=EDGE_LOOP('',(#90));
#321=EDGE_LOOP('',(#91));
#322=EDGE_LOOP('',(#92));
#323=EDGE_LOOP('',(#93));
#324=EDGE_LOOP('',(#94));
#325=EDGE_LOOP('',(#95));
#326=EDGE_LOOP('',(#96));
#327=EDGE_LOOP('',(#97));
#328=EDGE_LOOP('',(#98));
#329=EDGE_LOOP('',(#99));
#330=EDGE_LOOP('',(#100));
#331=EDGE_LOOP('',(#101));
#332=EDGE_LOOP('',(#102));
#333=EDGE_LOOP('',(#103));
#334=EDGE_LOOP('',(#104));
#335=EDGE_LOOP('',(#105));
#336=EDGE_LOOP('',(#106));
#337=EDGE_LOOP('',(#107));
#338=EDGE_LOOP('',(#108));
#339=EDGE_LOOP('',(#109));
#340=EDGE_LOOP('',(#110));
#341=EDGE_LOOP('',(#111));
#342=EDGE_LOOP('',(#112));
#343=EDGE_LOOP('',(#113));
#344=EDGE_LOOP('',(#114));
#345=EDGE_LOOP('',(#115));
#346=EDGE_LOOP('',(#116));
#347=EDGE_LOOP('',(#117));
#348=EDGE_LOOP('',(#118));
#349=EDGE_LOOP('',(#119));
#350=EDGE_LOOP('',(#120));
#351=EDGE_LOOP('',(#121));
#352=EDGE_LOOP('',(#122));
#353=EDGE_LOOP('',(#123));
#354=EDGE_LOOP('',(#124));
#355=EDGE_LOOP('',(#125));
#356=EDGE_LOOP('',(#126));
#357=EDGE_LOOP('',(#127));
#358=EDGE_LOOP('',(#128));
#359=EDGE_LOOP('',(#129));
#360=EDGE_LOOP('',(#130));
#361=EDGE_LOOP('',(#131));
#362=EDGE_LOOP('',(#132));
#363=EDGE_LOOP('',(#133));
#364=EDGE_LOOP('',(#134));
#365=EDGE_LOOP('',(#135));
#366=EDGE_LOOP('',(#136));
#367=EDGE_LOOP('',(#137));
#368=FACE_BOUND('',#276,.T.);
#369=FACE_BOUND('',#277,.T.);
#370=FACE_BOUND('',#278,.T.);
#371=FACE_BOUND('',#279,.T.);
#372=FACE_BOUND('',#280,.T.);
#373=FACE_BOUND('',#281,.T.);
#374=FACE_BOUND('',#282,.T.);
#375=FACE_BOUND('',#283,.T.);
#376=FACE_BOUND('',#284,.T.);
#377=FACE_BOUND('',#285,.T.);
#378=FACE_BOUND('',#286,.T.);
#379=FACE_BOUND('',#287,.T.);
#380=FACE_BOUND('',#288,.T.);
#381=FACE_BOUND('',#289,.T.);
#382=FACE_BOUND('',#290,.T.);
#383=FACE_BOUND('',#291,.T.);
#384=FACE_BOUND('',#292,.T.);
#385=FACE_BOUND('',#293,.T.);
#386=FACE_BOUND('',#294,.T.);
#387=FACE_BOUND('',#295,.T.);
#388=FACE_BOUND('',#296,.T.);
#389=FACE_BOUND('',#297,.T.);
#390=FACE_BOUND('',#298,.T.);
#391=FACE_BOUND('',#299,.T.);
#392=FACE_BOUND('',#300,.T.);
#393=FACE_BOUND('',#301,.T.);
#394=FACE_BOUND('',#302,.T.);
#395=FACE_BOUND('',#303,.T.);
#396=FACE_BOUND('',#304,.T.);
#397=FACE_BOUND('',#305,.T.);
#398=FACE_BOUND('',#306,.T.);
#399=FACE_BOUND('',#307,.T.);
#400=FACE_BOUND('',#308,.T.);
#401=FACE_BOUND('',#309,.T.);
#402=FACE_BOUND('',#310,.T.);
#403=FACE_BOUND('',#311,.T.);
#404=FACE_BOUND('',#312,.T.);
#405=FACE_BOUND('',#313,.T.);
#406=FACE_BOUND('',#314,.T.);
#407=FACE_BOUND('',#315,.T.);
#408=FACE_BOUND('',#316,.T.);
#409=FACE_BOUND('',#317,.T.);
#410=FACE_BOUND('',#318,.T.);
#411=FACE_BOUND('',#319,.T.);
#412=FACE_BOUND('',#320,.T.);
#413=FACE_BOUND('',#321,.T.);
#414=FACE_BOUND('',#322,.T.);
#415=FACE_BOUND('',#323,.T.);
#416=FACE_BOUND('',#324,.T.);
#417=FACE_BOUND('',#325,.T.);
#418=FACE_BOUND('',#326,.T.);
#419=FACE_BOUND('',#327,.T.);
#420=FACE_BOUND('',#328,.T.);
#421=FACE_BOUND('',#329,.T.);
#422=FACE_BOUND('',#330,.T.);
#423=FACE_BOUND('',#331,.T.);
#424=FACE_BOUND('',#332,.T.);
#425=FACE_BOUND('',#333,.T.);
#426=FACE_BOUND('',#334,.T.);
#427=FACE_BOUND('',#335,.T.);
#428=FACE_BOUND('',#336,.T.);
#429=FACE_BOUND('',#337,.T.);
#430=FACE_BOUND('',#338,.T.);
#431=FACE_BOUND('',#339,.T.);
#432=FACE_BOUND('',#340,.T.);
#433=FACE_BOUND('',#341,.T.);
#434=FACE_BOUND('',#342,.T.);
#435=FACE_BOUND('',#343,.T.);
#436=FACE_BOUND('',#344,.T.);
#437=FACE_BOUND('',#345,.T.);
#438=FACE_BOUND('',#346,.T.);
#439=FACE_BOUND('',#347,.T.);
#440=FACE_BOUND('',#348,.T.);
#441=FACE_BOUND('',#349,.T.);
#442=FACE_BOUND('',#350,.T.);
#443=FACE_BOUND('',#351,.T.);
#444=FACE_BOUND('',#352,.T.);
#445=FACE_BOUND('',#353,.T.);
#446=FACE_BOUND('',#354,.T.);
#447=FACE_BOUND('',#355,.T.);
#448=FACE_BOUND('',#356,.T.);
#449=FACE_BOUND('',#357,.T.);
#450=FACE_BOUND('',#358,.T.);
#451=FACE_BOUND('',#359,.T.);
#452=FACE_BOUND('',#360,.T.);
#453=FACE_BOUND('',#361,.T.);
#454=FACE_BOUND('',#362,.T.);
#455=FACE_BOUND('',#363,.T.);
#456=FACE_BOUND('',#364,.T.);
#457=FACE_BOUND('',#365,.T.);
#458=FACE_BOUND('',#366,.T.);
#459=FACE_BOUND('',#367,.T.);
#460=CYLINDRICAL_SURFACE('',#523,41.3);
#461=CYLINDRICAL_SURFACE('',#528,69.);
#462=CYLINDRICAL_SURFACE('',#542,100.);
#463=CYLINDRICAL_SURFACE('',#562,44.5);
#464=CYLINDRICAL_SURFACE('',#569,8.99999999999999);
#465=CYLINDRICAL_SURFACE('',#574,8.99999999999999);
#466=CYLINDRICAL_SURFACE('',#579,8.99999999999999);
#467=CYLINDRICAL_SURFACE('',#584,8.99999999999999);
#468=CYLINDRICAL_SURFACE('',#589,8.99999999999999);
#469=CYLINDRICAL_SURFACE('',#594,8.99999999999999);
#470=CYLINDRICAL_SURFACE('',#599,8.99999999999999);
#471=CYLINDRICAL_SURFACE('',#604,8.99999999999999);
#472=ADVANCED_FACE('',(#368,#369),#460,.F.);
#473=ADVANCED_FACE('',(#370,#371),#42,.T.);
#474=ADVANCED_FACE('',(#372,#373),#461,.T.);
#475=ADVANCED_FACE('',(#374,#375,#376,#377,#378,#379,#380,#381,#382,#383),
#43,.T.);
#476=ADVANCED_FACE('',(#384,#385),#38,.T.);
#477=ADVANCED_FACE('',(#386,#387),#462,.T.);
#478=ADVANCED_FACE('',(#388,#389),#39,.T.);
#479=ADVANCED_FACE('',(#390,#391,#392,#393,#394,#395,#396,#397,#398,#399),
#44,.T.);
#480=ADVANCED_FACE('',(#400,#401),#40,.F.);
#481=ADVANCED_FACE('',(#402,#403),#20,.T.);
#482=ADVANCED_FACE('',(#404,#405),#41,.F.);
#483=ADVANCED_FACE('',(#406,#407),#463,.T.);
#484=ADVANCED_FACE('',(#408,#409),#21,.T.);
#485=ADVANCED_FACE('',(#410,#411),#45,.T.);
#486=ADVANCED_FACE('',(#412,#413),#22,.F.);
#487=ADVANCED_FACE('',(#414,#415),#464,.F.);
#488=ADVANCED_FACE('',(#416,#417),#23,.F.);
#489=ADVANCED_FACE('',(#418,#419),#24,.F.);
#490=ADVANCED_FACE('',(#420,#421),#465,.F.);
#491=ADVANCED_FACE('',(#422,#423),#25,.F.);
#492=ADVANCED_FACE('',(#424,#425),#26,.F.);
#493=ADVANCED_FACE('',(#426,#427),#466,.F.);
#494=ADVANCED_FACE('',(#428,#429),#27,.F.);
#495=ADVANCED_FACE('',(#430,#431),#28,.F.);
#496=ADVANCED_FACE('',(#432,#433),#467,.F.);
#497=ADVANCED_FACE('',(#434,#435),#29,.F.);
#498=ADVANCED_FACE('',(#436,#437),#30,.F.);
#499=ADVANCED_FACE('',(#438,#439),#468,.F.);
#500=ADVANCED_FACE('',(#440,#441),#31,.F.);
#501=ADVANCED_FACE('',(#442,#443),#32,.F.);
#502=ADVANCED_FACE('',(#444,#445),#469,.F.);
#503=ADVANCED_FACE('',(#446,#447),#33,.F.);
#504=ADVANCED_FACE('',(#448,#449),#34,.F.);
#505=ADVANCED_FACE('',(#450,#451),#470,.F.);
#506=ADVANCED_FACE('',(#452,#453),#35,.F.);
#507=ADVANCED_FACE('',(#454,#455),#36,.F.);
#508=ADVANCED_FACE('',(#456,#457),#471,.F.);
#509=ADVANCED_FACE('',(#458,#459),#37,.F.);
#510=CLOSED_SHELL('',(#472,#473,#474,#475,#476,#477,#478,#479,#480,#481,
#482,#483,#484,#485,#486,#487,#488,#489,#490,#491,#492,#493,#494,#495,#496,
#497,#498,#499,#500,#501,#502,#503,#504,#505,#506,#507,#508,#509));
#511=STYLED_ITEM('',(#512),#519);
#512=PRESENTATION_STYLE_ASSIGNMENT((#513));
#513=SURFACE_STYLE_USAGE(.BOTH.,#514);
#514=SURFACE_SIDE_STYLE('',(#515));
#515=SURFACE_STYLE_FILL_AREA(#516);
#516=FILL_AREA_STYLE('',(#517));
#517=FILL_AREA_STYLE_COLOUR('',#518);
#518=COLOUR_RGB('',0.689999997615814,0.689999997615814,0.689999997615814);
#519=MANIFOLD_SOLID_BREP('XMS06-DN80',#510);
#520=SHAPE_DEFINITION_REPRESENTATION(#914,#521);
#521=SHAPE_REPRESENTATION('XMS06-DN80',(#522),#909);
#522=AXIS2_PLACEMENT_3D('',#777,#607,#608);
#523=AXIS2_PLACEMENT_3D('',#778,#609,#610);
#524=AXIS2_PLACEMENT_3D('',#779,#611,#612);
#525=AXIS2_PLACEMENT_3D('',#781,#613,#614);
#526=AXIS2_PLACEMENT_3D('',#783,#615,#616);
#527=AXIS2_PLACEMENT_3D('',#784,#617,#618);
#528=AXIS2_PLACEMENT_3D('',#786,#619,#620);
#529=AXIS2_PLACEMENT_3D('',#787,#621,#622);
#530=AXIS2_PLACEMENT_3D('',#789,#623,#624);
#531=AXIS2_PLACEMENT_3D('',#790,#625,#626);
#532=AXIS2_PLACEMENT_3D('',#792,#627,#628);
#533=AXIS2_PLACEMENT_3D('',#794,#629,#630);
#534=AXIS2_PLACEMENT_3D('',#796,#631,#632);
#535=AXIS2_PLACEMENT_3D('',#798,#633,#634);
#536=AXIS2_PLACEMENT_3D('',#800,#635,#636);
#537=AXIS2_PLACEMENT_3D('',#802,#637,#638);
#538=AXIS2_PLACEMENT_3D('',#804,#639,#640);
#539=AXIS2_PLACEMENT_3D('',#806,#641,#642);
#540=AXIS2_PLACEMENT_3D('',#808,#643,#644);
#541=AXIS2_PLACEMENT_3D('',#809,#645,#646);
#542=AXIS2_PLACEMENT_3D('',#811,#647,#648);
#543=AXIS2_PLACEMENT_3D('',#812,#649,#650);
#544=AXIS2_PLACEMENT_3D('',#814,#651,#652);
#545=AXIS2_PLACEMENT_3D('',#815,#653,#654);
#546=AXIS2_PLACEMENT_3D('',#817,#655,#656);
#547=AXIS2_PLACEMENT_3D('',#818,#657,#658);
#548=AXIS2_PLACEMENT_3D('',#820,#659,#660);
#549=AXIS2_PLACEMENT_3D('',#822,#661,#662);
#550=AXIS2_PLACEMENT_3D('',#824,#663,#664);
#551=AXIS2_PLACEMENT_3D('',#826,#665,#666);
#552=AXIS2_PLACEMENT_3D('',#828,#667,#668);
#553=AXIS2_PLACEMENT_3D('',#830,#669,#670);
#554=AXIS2_PLACEMENT_3D('',#832,#671,#672);
#555=AXIS2_PLACEMENT_3D('',#834,#673,#674);
#556=AXIS2_PLACEMENT_3D('',#836,#675,#676);
#557=AXIS2_PLACEMENT_3D('',#837,#677,#678);
#558=AXIS2_PLACEMENT_3D('',#839,#679,#680);
#559=AXIS2_PLACEMENT_3D('',#840,#681,#682);
#560=AXIS2_PLACEMENT_3D('',#842,#683,#684);
#561=AXIS2_PLACEMENT_3D('',#843,#685,#686);
#562=AXIS2_PLACEMENT_3D('',#845,#687,#688);
#563=AXIS2_PLACEMENT_3D('',#846,#689,#690);
#564=AXIS2_PLACEMENT_3D('',#848,#691,#692);
#565=AXIS2_PLACEMENT_3D('',#849,#693,#694);
#566=AXIS2_PLACEMENT_3D('',#851,#695,#696);
#567=AXIS2_PLACEMENT_3D('',#852,#697,#698);
#568=AXIS2_PLACEMENT_3D('',#853,#699,#700);
#569=AXIS2_PLACEMENT_3D('',#855,#701,#702);
#570=AXIS2_PLACEMENT_3D('',#856,#703,#704);
#571=AXIS2_PLACEMENT_3D('',#858,#705,#706);
#572=AXIS2_PLACEMENT_3D('',#859,#707,#708);
#573=AXIS2_PLACEMENT_3D('',#860,#709,#710);
#574=AXIS2_PLACEMENT_3D('',#862,#711,#712);
#575=AXIS2_PLACEMENT_3D('',#863,#713,#714);
#576=AXIS2_PLACEMENT_3D('',#865,#715,#716);
#577=AXIS2_PLACEMENT_3D('',#866,#717,#718);
#578=AXIS2_PLACEMENT_3D('',#867,#719,#720);
#579=AXIS2_PLACEMENT_3D('',#869,#721,#722);
#580=AXIS2_PLACEMENT_3D('',#870,#723,#724);
#581=AXIS2_PLACEMENT_3D('',#872,#725,#726);
#582=AXIS2_PLACEMENT_3D('',#873,#727,#728);
#583=AXIS2_PLACEMENT_3D('',#874,#729,#730);
#584=AXIS2_PLACEMENT_3D('',#876,#731,#732);
#585=AXIS2_PLACEMENT_3D('',#877,#733,#734);
#586=AXIS2_PLACEMENT_3D('',#879,#735,#736);
#587=AXIS2_PLACEMENT_3D('',#880,#737,#738);
#588=AXIS2_PLACEMENT_3D('',#881,#739,#740);
#589=AXIS2_PLACEMENT_3D('',#883,#741,#742);
#590=AXIS2_PLACEMENT_3D('',#884,#743,#744);
#591=AXIS2_PLACEMENT_3D('',#886,#745,#746);
#592=AXIS2_PLACEMENT_3D('',#887,#747,#748);
#593=AXIS2_PLACEMENT_3D('',#888,#749,#750);
#594=AXIS2_PLACEMENT_3D('',#890,#751,#752);
#595=AXIS2_PLACEMENT_3D('',#891,#753,#754);
#596=AXIS2_PLACEMENT_3D('',#893,#755,#756);
#597=AXIS2_PLACEMENT_3D('',#894,#757,#758);
#598=AXIS2_PLACEMENT_3D('',#895,#759,#760);
#599=AXIS2_PLACEMENT_3D('',#897,#761,#762);
#600=AXIS2_PLACEMENT_3D('',#898,#763,#764);
#601=AXIS2_PLACEMENT_3D('',#900,#765,#766);
#602=AXIS2_PLACEMENT_3D('',#901,#767,#768);
#603=AXIS2_PLACEMENT_3D('',#902,#769,#770);
#604=AXIS2_PLACEMENT_3D('',#904,#771,#772);
#605=AXIS2_PLACEMENT_3D('',#905,#773,#774);
#606=AXIS2_PLACEMENT_3D('',#907,#775,#776);
#607=DIRECTION('',(0.,0.,1.));
#608=DIRECTION('',(1.,0.,0.));
#609=DIRECTION('',(0.,-1.,0.));
#610=DIRECTION('',(0.,0.,-1.));
#611=DIRECTION('',(0.,-1.,0.));
#612=DIRECTION('',(0.,0.,-1.));
#613=DIRECTION('',(0.,-1.,0.));
#614=DIRECTION('',(0.,0.,-1.));
#615=DIRECTION('',(0.,-1.,0.));
#616=DIRECTION('',(0.,0.,-1.));
#617=DIRECTION('',(0.,-1.,0.));
#618=DIRECTION('',(0.,0.,-1.));
#619=DIRECTION('',(0.,-1.,0.));
#620=DIRECTION('',(0.,0.,-1.));
#621=DIRECTION('',(0.,-1.,0.));
#622=DIRECTION('',(0.,0.,-1.));
#623=DIRECTION('',(0.,-1.,0.));
#624=DIRECTION('',(0.,0.,-1.));
#625=DIRECTION('',(0.,1.,0.));
#626=DIRECTION('',(0.,0.,1.));
#627=DIRECTION('',(0.,1.,0.));
#628=DIRECTION('',(0.,0.,1.));
#629=DIRECTION('',(0.,-1.,0.));
#630=DIRECTION('',(0.,0.,-1.));
#631=DIRECTION('',(0.,-1.,0.));
#632=DIRECTION('',(0.,0.,-1.));
#633=DIRECTION('',(0.,1.,0.));
#634=DIRECTION('',(0.,0.,1.));
#635=DIRECTION('',(0.,-1.,0.));
#636=DIRECTION('',(0.,0.,-1.));
#637=DIRECTION('',(0.,-1.,0.));
#638=DIRECTION('',(0.,0.,-1.));
#639=DIRECTION('',(0.,1.,0.));
#640=DIRECTION('',(0.,0.,1.));
#641=DIRECTION('',(0.,-1.,0.));
#642=DIRECTION('',(0.,0.,-1.));
#643=DIRECTION('',(0.,-1.,0.));
#644=DIRECTION('',(0.,0.,-1.));
#645=DIRECTION('',(0.,-1.,0.));
#646=DIRECTION('',(0.,0.,-1.));
#647=DIRECTION('',(0.,-1.,0.));
#648=DIRECTION('',(0.,0.,-1.));
#649=DIRECTION('',(0.,-1.,0.));
#650=DIRECTION('',(0.,0.,-1.));
#651=DIRECTION('',(0.,-1.,0.));
#652=DIRECTION('',(0.,0.,-1.));
#653=DIRECTION('',(0.,-1.,0.));
#654=DIRECTION('',(0.,0.,-1.));
#655=DIRECTION('',(0.,1.,0.));
#656=DIRECTION('',(0.,0.,1.));
#657=DIRECTION('',(0.,1.,0.));
#658=DIRECTION('',(0.,0.,1.));
#659=DIRECTION('',(0.,1.,0.));
#660=DIRECTION('',(0.,0.,1.));
#661=DIRECTION('',(0.,-1.,0.));
#662=DIRECTION('',(0.,0.,-1.));
#663=DIRECTION('',(0.,-1.,0.));
#664=DIRECTION('',(0.,0.,-1.));
#665=DIRECTION('',(0.,1.,0.));
#666=DIRECTION('',(0.,0.,1.));
#667=DIRECTION('',(0.,-1.,0.));
#668=DIRECTION('',(0.,0.,-1.));
#669=DIRECTION('',(0.,-1.,0.));
#670=DIRECTION('',(0.,0.,-1.));
#671=DIRECTION('',(0.,1.,0.));
#672=DIRECTION('',(0.,0.,1.));
#673=DIRECTION('',(0.,-1.,0.));
#674=DIRECTION('',(0.,0.,-1.));
#675=DIRECTION('',(0.,-1.,0.));
#676=DIRECTION('',(0.,0.,-1.));
#677=DIRECTION('',(0.,-1.,0.));
#678=DIRECTION('',(0.,0.,-1.));
#679=DIRECTION('',(0.,-1.,0.));
#680=DIRECTION('',(0.,0.,-1.));
#681=DIRECTION('',(0.,-1.,0.));
#682=DIRECTION('',(0.,0.,-1.));
#683=DIRECTION('',(0.,-1.,0.));
#684=DIRECTION('',(0.,0.,-1.));
#685=DIRECTION('',(0.,-1.,0.));
#686=DIRECTION('',(0.,0.,-1.));
#687=DIRECTION('',(0.,-1.,0.));
#688=DIRECTION('',(0.,0.,-1.));
#689=DIRECTION('',(0.,-1.,0.));
#690=DIRECTION('',(0.,0.,-1.));
#691=DIRECTION('',(0.,-1.,0.));
#692=DIRECTION('',(0.,0.,-1.));
#693=DIRECTION('',(0.,-1.,0.));
#694=DIRECTION('',(0.,0.,-1.));
#695=DIRECTION('',(0.,1.,0.));
#696=DIRECTION('',(0.,0.,1.));
#697=DIRECTION('',(0.,-1.,0.));
#698=DIRECTION('',(0.,0.,-1.));
#699=DIRECTION('',(0.,1.,0.));
#700=DIRECTION('',(0.,0.,1.));
#701=DIRECTION('',(0.,1.,0.));
#702=DIRECTION('',(0.,0.,1.));
#703=DIRECTION('',(0.,1.,0.));
#704=DIRECTION('',(0.,0.,1.));
#705=DIRECTION('',(0.,1.,0.));
#706=DIRECTION('',(0.,0.,1.));
#707=DIRECTION('',(0.,1.,0.));
#708=DIRECTION('',(0.,0.,1.));
#709=DIRECTION('',(0.,-1.,0.));
#710=DIRECTION('',(0.,0.,-1.));
#711=DIRECTION('',(0.,-1.,0.));
#712=DIRECTION('',(0.,0.,-1.));
#713=DIRECTION('',(0.,-1.,0.));
#714=DIRECTION('',(0.,0.,-1.));
#715=DIRECTION('',(0.,-1.,0.));
#716=DIRECTION('',(0.,0.,-1.));
#717=DIRECTION('',(0.,1.,0.));
#718=DIRECTION('',(0.,0.,1.));
#719=DIRECTION('',(0.,-1.,0.));
#720=DIRECTION('',(0.,0.,-1.));
#721=DIRECTION('',(0.,-1.,0.));
#722=DIRECTION('',(0.,0.,-1.));
#723=DIRECTION('',(0.,-1.,0.));
#724=DIRECTION('',(0.,0.,-1.));
#725=DIRECTION('',(0.,-1.,0.));
#726=DIRECTION('',(0.,0.,-1.));
#727=DIRECTION('',(0.,-1.,0.));
#728=DIRECTION('',(0.,0.,-1.));
#729=DIRECTION('',(0.,1.,0.));
#730=DIRECTION('',(0.,0.,1.));
#731=DIRECTION('',(0.,1.,0.));
#732=DIRECTION('',(0.,0.,1.));
#733=DIRECTION('',(0.,1.,0.));
#734=DIRECTION('',(0.,0.,1.));
#735=DIRECTION('',(0.,1.,0.));
#736=DIRECTION('',(0.,0.,1.));
#737=DIRECTION('',(0.,1.,0.));
#738=DIRECTION('',(0.,0.,1.));
#739=DIRECTION('',(0.,-1.,0.));
#740=DIRECTION('',(0.,0.,-1.));
#741=DIRECTION('',(0.,-1.,0.));
#742=DIRECTION('',(0.,0.,-1.));
#743=DIRECTION('',(0.,-1.,0.));
#744=DIRECTION('',(0.,0.,-1.));
#745=DIRECTION('',(0.,-1.,0.));
#746=DIRECTION('',(0.,0.,-1.));
#747=DIRECTION('',(0.,1.,0.));
#748=DIRECTION('',(0.,0.,1.));
#749=DIRECTION('',(0.,-1.,0.));
#750=DIRECTION('',(0.,0.,-1.));
#751=DIRECTION('',(0.,-1.,0.));
#752=DIRECTION('',(0.,0.,-1.));
#753=DIRECTION('',(0.,-1.,0.));
#754=DIRECTION('',(0.,0.,-1.));
#755=DIRECTION('',(0.,-1.,0.));
#756=DIRECTION('',(0.,0.,-1.));
#757=DIRECTION('',(0.,-1.,0.));
#758=DIRECTION('',(0.,0.,-1.));
#759=DIRECTION('',(0.,1.,0.));
#760=DIRECTION('',(0.,0.,1.));
#761=DIRECTION('',(0.,1.,0.));
#762=DIRECTION('',(0.,0.,1.));
#763=DIRECTION('',(0.,1.,0.));
#764=DIRECTION('',(0.,0.,1.));
#765=DIRECTION('',(0.,1.,0.));
#766=DIRECTION('',(0.,0.,1.));
#767=DIRECTION('',(0.,-1.,0.));
#768=DIRECTION('',(0.,0.,-1.));
#769=DIRECTION('',(0.,1.,0.));
#770=DIRECTION('',(0.,0.,1.));
#771=DIRECTION('',(0.,1.,0.));
#772=DIRECTION('',(0.,0.,1.));
#773=DIRECTION('',(0.,1.,0.));
#774=DIRECTION('',(0.,0.,1.));
#775=DIRECTION('',(0.,1.,0.));
#776=DIRECTION('',(0.,0.,1.));
#777=CARTESIAN_POINT('',(0.,0.,0.));
#778=CARTESIAN_POINT('',(0.,-62.,0.));
#779=CARTESIAN_POINT('',(0.,-50.,0.));
#780=CARTESIAN_POINT('',(0.,-50.,-41.3));
#781=CARTESIAN_POINT('',(0.,0.,0.));
#782=CARTESIAN_POINT('',(0.,0.,-41.3000000000001));
#783=CARTESIAN_POINT('',(41.3,-50.,0.));
#784=CARTESIAN_POINT('',(0.,-50.,0.));
#785=CARTESIAN_POINT('',(0.,-50.,-69.));
#786=CARTESIAN_POINT('',(0.,-62.,0.));
#787=CARTESIAN_POINT('',(0.,-48.,0.));
#788=CARTESIAN_POINT('',(0.,-48.,-69.));
#789=CARTESIAN_POINT('',(69.,-48.,0.));
#790=CARTESIAN_POINT('',(-56.5685424949238,-48.,56.5685424949238));
#791=CARTESIAN_POINT('',(-56.5685424949238,-48.,66.4685424949238));
#792=CARTESIAN_POINT('',(56.5685424949238,-48.,56.5685424949238));
#793=CARTESIAN_POINT('',(56.5685424949238,-48.,66.4685424949238));
#794=CARTESIAN_POINT('',(-56.5685424949238,-48.,-56.5685424949238));
#795=CARTESIAN_POINT('',(-56.5685424949238,-48.,-66.4685424949238));
#796=CARTESIAN_POINT('',(56.5685424949238,-48.,-56.5685424949238));
#797=CARTESIAN_POINT('',(56.5685424949238,-48.,-66.4685424949238));
#798=CARTESIAN_POINT('',(0.,-48.,80.));
#799=CARTESIAN_POINT('',(0.,-48.,89.9));
#800=CARTESIAN_POINT('',(0.,-48.,-80.));
#801=CARTESIAN_POINT('',(0.,-48.,-89.9));
#802=CARTESIAN_POINT('',(80.,-48.,0.));
#803=CARTESIAN_POINT('',(80.,-48.,-9.90000000000001));
#804=CARTESIAN_POINT('',(-80.,-48.,0.));
#805=CARTESIAN_POINT('',(-80.,-48.,9.90000000000001));
#806=CARTESIAN_POINT('',(0.,-48.,0.));
#807=CARTESIAN_POINT('',(0.,-48.,-99.));
#808=CARTESIAN_POINT('',(0.,-47.,0.));
#809=CARTESIAN_POINT('',(0.,-47.,0.));
#810=CARTESIAN_POINT('',(0.,-47.,-100.));
#811=CARTESIAN_POINT('',(0.,-62.,0.));
#812=CARTESIAN_POINT('',(0.,-31.,0.));
#813=CARTESIAN_POINT('',(0.,-31.,-100.));
#814=CARTESIAN_POINT('',(0.,-31.,0.));
#815=CARTESIAN_POINT('',(0.,-30.,0.));
#816=CARTESIAN_POINT('',(0.,-30.,-99.));
#817=CARTESIAN_POINT('',(99.,-30.,0.));
#818=CARTESIAN_POINT('',(-56.5685424949238,-30.,56.5685424949238));
#819=CARTESIAN_POINT('',(-56.5685424949238,-30.,66.4685424949238));
#820=CARTESIAN_POINT('',(56.5685424949238,-30.,56.5685424949238));
#821=CARTESIAN_POINT('',(56.5685424949238,-30.,66.4685424949238));
#822=CARTESIAN_POINT('',(-56.5685424949238,-30.,-56.5685424949238));
#823=CARTESIAN_POINT('',(-56.5685424949238,-30.,-66.4685424949238));
#824=CARTESIAN_POINT('',(56.5685424949238,-30.,-56.5685424949238));
#825=CARTESIAN_POINT('',(56.5685424949238,-30.,-66.4685424949238));
#826=CARTESIAN_POINT('',(0.,-30.,80.));
#827=CARTESIAN_POINT('',(0.,-30.,89.9));
#828=CARTESIAN_POINT('',(0.,-30.,-80.));
#829=CARTESIAN_POINT('',(0.,-30.,-89.9));
#830=CARTESIAN_POINT('',(80.,-30.,0.));
#831=CARTESIAN_POINT('',(80.,-30.,-9.90000000000001));
#832=CARTESIAN_POINT('',(-80.,-30.,0.));
#833=CARTESIAN_POINT('',(-80.,-30.,9.90000000000001));
#834=CARTESIAN_POINT('',(0.,-30.,0.));
#835=CARTESIAN_POINT('',(0.,-30.,-56.5621977685614));
#836=CARTESIAN_POINT('',(0.,-24.,0.));
#837=CARTESIAN_POINT('',(0.,-26.2283440581246,0.));
#838=CARTESIAN_POINT('',(0.,-26.2283440581246,-50.9913376232499));
#839=CARTESIAN_POINT('',(0.,-26.2283440581246,0.));
#840=CARTESIAN_POINT('',(0.,-11.0728496367211,0.));
#841=CARTESIAN_POINT('',(0.,-11.0728496367211,-44.9291398546884));
#842=CARTESIAN_POINT('',(0.,-8.84450557859648,0.));
#843=CARTESIAN_POINT('',(0.,-8.84450557859649,0.));
#844=CARTESIAN_POINT('',(0.,-8.84450557859649,-44.5));
#845=CARTESIAN_POINT('',(0.,-62.,0.));
#846=CARTESIAN_POINT('',(0.,-1.,0.));
#847=CARTESIAN_POINT('',(0.,-1.,-44.5));
#848=CARTESIAN_POINT('',(0.,-1.,0.));
#849=CARTESIAN_POINT('',(0.,0.,0.));
#850=CARTESIAN_POINT('',(0.,0.,-43.5));
#851=CARTESIAN_POINT('',(43.5,0.,0.));
#852=CARTESIAN_POINT('',(-80.,-48.,0.));
#853=CARTESIAN_POINT('',(-80.,-47.1,0.));
#854=CARTESIAN_POINT('',(-80.,-47.1,8.99999999999999));
#855=CARTESIAN_POINT('',(-80.,50.,0.));
#856=CARTESIAN_POINT('',(-80.,-30.9,0.));
#857=CARTESIAN_POINT('',(-80.,-30.9,8.99999999999999));
#858=CARTESIAN_POINT('',(-80.,-30.9,0.));
#859=CARTESIAN_POINT('',(80.,-30.,0.));
#860=CARTESIAN_POINT('',(80.,-30.9,0.));
#861=CARTESIAN_POINT('',(80.,-30.9,-8.99999999999999));
#862=CARTESIAN_POINT('',(80.,-50.,0.));
#863=CARTESIAN_POINT('',(80.,-47.1,0.));
#864=CARTESIAN_POINT('',(80.,-47.1,-8.99999999999999));
#865=CARTESIAN_POINT('',(80.,-47.1,0.));
#866=CARTESIAN_POINT('',(0.,-30.,-80.));
#867=CARTESIAN_POINT('',(0.,-30.9,-80.));
#868=CARTESIAN_POINT('',(0.,-30.9,-89.));
#869=CARTESIAN_POINT('',(0.,-50.,-80.));
#870=CARTESIAN_POINT('',(0.,-47.1,-80.));
#871=CARTESIAN_POINT('',(0.,-47.1,-89.));
#872=CARTESIAN_POINT('',(0.,-47.1,-80.));
#873=CARTESIAN_POINT('',(0.,-48.,80.));
#874=CARTESIAN_POINT('',(0.,-47.1,80.));
#875=CARTESIAN_POINT('',(0.,-47.1,89.));
#876=CARTESIAN_POINT('',(0.,50.,80.));
#877=CARTESIAN_POINT('',(0.,-30.9,80.));
#878=CARTESIAN_POINT('',(0.,-30.9,89.));
#879=CARTESIAN_POINT('',(0.,-30.9,80.));
#880=CARTESIAN_POINT('',(56.5685424949238,-30.,-56.5685424949238));
#881=CARTESIAN_POINT('',(56.5685424949238,-30.9,-56.5685424949238));
#882=CARTESIAN_POINT('',(56.5685424949238,-30.9,-65.5685424949238));
#883=CARTESIAN_POINT('',(56.5685424949238,-50.,-56.5685424949238));
#884=CARTESIAN_POINT('',(56.5685424949238,-47.1,-56.5685424949238));
#885=CARTESIAN_POINT('',(56.5685424949238,-47.1,-65.5685424949238));
#886=CARTESIAN_POINT('',(56.5685424949238,-47.1,-56.5685424949238));
#887=CARTESIAN_POINT('',(-56.5685424949238,-30.,-56.5685424949238));
#888=CARTESIAN_POINT('',(-56.5685424949238,-30.9,-56.5685424949238));
#889=CARTESIAN_POINT('',(-56.5685424949238,-30.9,-65.5685424949238));
#890=CARTESIAN_POINT('',(-56.5685424949238,-50.,-56.5685424949238));
#891=CARTESIAN_POINT('',(-56.5685424949238,-47.1,-56.5685424949238));
#892=CARTESIAN_POINT('',(-56.5685424949238,-47.1,-65.5685424949238));
#893=CARTESIAN_POINT('',(-56.5685424949238,-47.1,-56.5685424949238));
#894=CARTESIAN_POINT('',(56.5685424949238,-48.,56.5685424949238));
#895=CARTESIAN_POINT('',(56.5685424949238,-47.1,56.5685424949238));
#896=CARTESIAN_POINT('',(56.5685424949238,-47.1,65.5685424949238));
#897=CARTESIAN_POINT('',(56.5685424949238,50.,56.5685424949238));
#898=CARTESIAN_POINT('',(56.5685424949238,-30.9,56.5685424949238));
#899=CARTESIAN_POINT('',(56.5685424949238,-30.9,65.5685424949238));
#900=CARTESIAN_POINT('',(56.5685424949238,-30.9,56.5685424949238));
#901=CARTESIAN_POINT('',(-56.5685424949238,-48.,56.5685424949238));
#902=CARTESIAN_POINT('',(-56.5685424949238,-47.1,56.5685424949238));
#903=CARTESIAN_POINT('',(-56.5685424949238,-47.1,65.5685424949238));
#904=CARTESIAN_POINT('',(-56.5685424949238,50.,56.5685424949238));
#905=CARTESIAN_POINT('',(-56.5685424949238,-30.9,56.5685424949238));
#906=CARTESIAN_POINT('',(-56.5685424949238,-30.9,65.5685424949238));
#907=CARTESIAN_POINT('',(-56.5685424949238,-30.9,56.5685424949238));
#908=MECHANICAL_DESIGN_GEOMETRIC_PRESENTATION_REPRESENTATION('',(#511),
#909);
#909=(
GEOMETRIC_REPRESENTATION_CONTEXT(3)
GLOBAL_UNCERTAINTY_ASSIGNED_CONTEXT((#910))
GLOBAL_UNIT_ASSIGNED_CONTEXT((#913,#912,#911))
REPRESENTATION_CONTEXT('XMS06-DN80','TOP_LEVEL_ASSEMBLY_PART')
);
#910=UNCERTAINTY_MEASURE_WITH_UNIT(LENGTH_MEASURE(1.E-5),#913,
'DISTANCE_ACCURACY_VALUE','Maximum Tolerance applied to model');
#911=(
NAMED_UNIT(*)
SI_UNIT($,.STERADIAN.)
SOLID_ANGLE_UNIT()
);
#912=(
NAMED_UNIT(*)
PLANE_ANGLE_UNIT()
SI_UNIT($,.RADIAN.)
);
#913=(
LENGTH_UNIT()
NAMED_UNIT(*)
SI_UNIT(.MILLI.,.METRE.)
);
#914=PRODUCT_DEFINITION_SHAPE('','',#915);
#915=PRODUCT_DEFINITION('','',#917,#916);
#916=PRODUCT_DEFINITION_CONTEXT('',#923,'design');
#917=PRODUCT_DEFINITION_FORMATION_WITH_SPECIFIED_SOURCE('','',#919,
 .NOT_KNOWN.);
#918=PRODUCT_RELATED_PRODUCT_CATEGORY('','',(#919));
#919=PRODUCT('XMS06-DN80','XMS06-DN80','XMS06-DN80',(#921));
#920=PRODUCT_CATEGORY('','');
#921=PRODUCT_CONTEXT('',#923,'mechanical');
#922=APPLICATION_PROTOCOL_DEFINITION('international standard',
'automotive_design',2010,#923);
#923=APPLICATION_CONTEXT(
'core data for automotive mechanical design processes');
ENDSEC;
END-ISO-10303-21;
